<?xml version="1.0" encoding="UTF-8"?>
<svg width="194px" height="128px" viewBox="0 0 194 128" version="1.1" xmlns="http://www.w3.org/2000/svg" xmlns:xlink="http://www.w3.org/1999/xlink">
    <!-- Generator: Sketch 41 (35326) - http://www.bohemiancoding.com/sketch -->
    <title>Group 2</title>
    <desc>Created with Sketch.</desc>
    <defs></defs>
    <g id="Page-1" stroke="none" stroke-width="1" fill="none" fill-rule="evenodd">
        <g id="Group-2">
            <rect id="Rectangle" fill="#FFFFFF" x="0.75" y="0.5" width="192.5" height="127"></rect>
            <g id="Group" transform="translate(40.000000, 7.000000)">
                <path d="M57.32,105.637 C50.756,105.637 44.383,104.35 38.387,101.817 C32.595,99.369 27.394,95.862 22.928,91.391 C18.462,86.926 14.955,81.725 12.506,75.934 C9.969,69.938 8.683,63.571 8.683,57.003 C8.683,50.437 9.969,44.069 12.506,38.072 C14.955,32.28 18.462,27.081 22.928,22.614 C27.395,18.146 32.595,14.638 38.387,12.19 C44.383,9.653 50.752,8.368 57.32,8.368 C63.885,8.368 70.255,9.653 76.251,12.19 C82.044,14.638 87.245,18.146 91.712,22.614 C96.177,27.081 99.683,32.28 102.134,38.072 C104.671,44.07 105.956,50.437 105.956,57.003 C105.956,63.568 104.669,69.938 102.134,75.934 C99.683,81.725 96.177,86.926 91.712,91.391 C87.245,95.862 82.044,99.369 76.251,101.817 C70.254,104.35 63.885,105.637 57.32,105.637 Z M57.32,9.385 C50.89,9.385 44.657,10.647 38.787,13.129 C33.118,15.525 28.022,18.959 23.648,23.332 C19.275,27.705 15.841,32.797 13.445,38.469 C10.964,44.338 9.705,50.574 9.705,57.002 C9.705,63.432 10.964,69.666 13.445,75.535 C15.841,81.207 19.275,86.299 23.648,90.672 C28.022,95.045 33.117,98.481 38.787,100.875 C44.658,103.359 50.891,104.619 57.32,104.619 C63.749,104.619 69.983,103.359 75.854,100.875 C81.524,98.479 86.619,95.045 90.992,90.672 C95.364,86.299 98.799,81.207 101.196,75.535 C103.676,69.666 104.936,63.431 104.936,57.002 C104.936,50.574 103.678,44.338 101.196,38.469 C98.799,32.797 95.364,27.705 90.992,23.332 C86.619,18.959 81.524,15.525 75.854,13.129 C69.983,10.646 63.748,9.385 57.32,9.385 Z" id="Shape" fill="#231F20"></path>
                <path d="M111.289,59.725 C111.588,59.598 111.987,59.436 112.389,59.262 C113.19,58.918 113.994,58.551 113.994,58.551 C113.994,58.551 113.211,58.141 112.428,57.754 C111.828,57.46 111.231,57.176 110.983,57.063 C110.983,57.042 110.987,57.022 110.987,57.002 C110.987,56.984 110.983,56.964 110.983,56.943 C111.233,56.828 111.832,56.545 112.428,56.25 C113.211,55.863 113.994,55.453 113.994,55.453 C113.994,55.453 113.188,55.086 112.389,54.744 C111.992,54.572 111.588,54.404 111.289,54.279 C111.125,54.216 110.996,54.164 110.906,54.127 C110.903,54.09 110.897,54.051 110.895,54.014 C111.135,53.884 111.717,53.573 112.301,53.243 C113.065,52.815 113.824,52.364 113.824,52.364 C113.824,52.364 113.006,52.042 112.184,51.741 C111.776,51.593 111.373,51.446 111.053,51.339 C110.887,51.284 110.754,51.237 110.662,51.208 C110.658,51.17 110.651,51.133 110.645,51.095 C110.879,50.95 111.447,50.607 112.01,50.245 C112.75,49.778 113.488,49.284 113.488,49.284 C113.488,49.284 112.654,49.007 111.822,48.751 C111.412,48.624 110.975,48.503 110.662,48.413 C110.494,48.366 110.358,48.329 110.266,48.302 C110.26,48.264 110.252,48.228 110.246,48.191 C110.473,48.035 111.017,47.662 111.563,47.271 C112.278,46.759 112.988,46.23 112.988,46.23 C112.988,46.23 112.776,46.171 112.459,46.085 C112.141,45.999 111.727,45.892 111.293,45.788 C110.635,45.628 109.983,45.483 109.711,45.425 C109.703,45.388 109.692,45.353 109.684,45.314 C109.908,45.146 110.43,44.742 110.955,44.32 C111.643,43.776 112.324,43.205 112.324,43.205 C112.324,43.205 112.11,43.16 111.791,43.09 C111.473,43.023 111.031,42.941 110.6,42.861 C109.934,42.738 109.278,42.63 109.002,42.585 C108.992,42.549 108.981,42.512 108.971,42.475 C109.182,42.294 109.686,41.863 110.19,41.413 C110.846,40.829 111.5,40.22 111.5,40.22 C111.5,40.22 111.446,40.212 111.352,40.199 C111.256,40.18 111.121,40.164 110.956,40.137 C110.626,40.09 110.185,40.032 109.749,39.975 C109.079,39.889 108.419,39.817 108.144,39.787 C108.13,39.751 108.122,39.715 108.107,39.678 C108.304,39.492 108.786,39.032 109.267,38.55 C109.579,38.24 109.892,37.923 110.124,37.684 C110.351,37.449 110.501,37.288 110.501,37.288 C110.501,37.288 109.616,37.204 108.739,37.141 C108.062,37.09 107.398,37.053 107.126,37.039 C107.111,37.003 107.099,36.968 107.085,36.933 C107.271,36.737 107.726,36.247 108.187,35.743 C108.488,35.413 108.769,35.085 108.984,34.835 C109.2,34.587 109.339,34.419 109.339,34.419 C109.339,34.419 108.452,34.382 107.575,34.364 C106.9,34.351 106.241,34.349 105.964,34.349 C105.948,34.315 105.933,34.28 105.917,34.245 C105.979,34.172 106.068,34.062 106.183,33.931 C106.392,33.681 106.681,33.335 106.952,32.995 C107.493,32.315 108.021,31.616 108.021,31.616 C108.021,31.616 107.136,31.624 106.261,31.655 C105.595,31.676 104.935,31.712 104.659,31.726 C104.638,31.693 104.624,31.657 104.603,31.622 C104.663,31.545 104.747,31.432 104.849,31.295 C105.046,31.031 105.298,30.682 105.552,30.324 C106.056,29.615 106.552,28.885 106.552,28.885 C106.552,28.885 105.669,28.944 104.8,29.019 C104.364,29.057 103.933,29.099 103.611,29.133 C103.45,29.154 103.314,29.166 103.218,29.177 L103.208,29.177 C103.187,29.145 103.165,29.115 103.144,29.078 C103.298,28.848 103.663,28.298 104.015,27.732 C104.486,26.998 104.939,26.238 104.939,26.238 C104.939,26.238 104.064,26.342 103.206,26.467 C102.771,26.529 102.347,26.593 102.017,26.652 C101.849,26.68 101.71,26.704 101.618,26.719 C101.595,26.686 101.571,26.656 101.55,26.622 C101.691,26.383 102.023,25.812 102.349,25.229 C102.777,24.465 103.193,23.682 103.193,23.682 C103.193,23.682 102.333,23.832 101.474,24.002 C100.814,24.137 100.163,24.284 99.89,24.348 C99.869,24.318 99.843,24.286 99.818,24.255 C99.95,24.007 100.253,23.419 100.547,22.818 C100.936,22.031 101.309,21.223 101.309,21.223 C101.309,21.223 100.459,21.414 99.602,21.645 C98.951,21.816 98.309,21.998 98.04,22.074 C98.015,22.045 97.989,22.014 97.964,21.985 C98.079,21.732 98.351,21.126 98.614,20.508 C98.964,19.697 99.294,18.871 99.294,18.871 C99.294,18.871 98.44,19.123 97.603,19.391 C96.958,19.598 96.331,19.813 96.066,19.902 C96.044,19.874 96.015,19.846 95.991,19.82 C96.093,19.56 96.333,18.94 96.564,18.301 C96.714,17.889 96.872,17.467 96.97,17.16 C97.075,16.848 97.144,16.641 97.144,16.641 C97.144,16.641 96.308,16.937 95.486,17.248 C94.855,17.486 94.241,17.734 93.984,17.835 C93.96,17.812 93.929,17.783 93.902,17.757 C93.988,17.496 94.198,16.859 94.396,16.209 C94.646,15.375 94.878,14.527 94.878,14.527 C94.878,14.527 94.058,14.868 93.257,15.219 C92.644,15.49 92.044,15.768 91.794,15.886 C91.765,15.863 91.732,15.834 91.706,15.811 C91.728,15.715 91.768,15.582 91.812,15.412 C91.9,15.092 92.003,14.674 92.105,14.251 C92.312,13.402 92.501,12.541 92.501,12.541 C92.501,12.541 91.704,12.923 90.925,13.32 C90.329,13.62 89.745,13.925 89.503,14.057 C89.472,14.034 89.441,14.007 89.411,13.986 C89.431,13.891 89.458,13.757 89.493,13.59 C89.555,13.271 89.639,12.843 89.72,12.416 C89.882,11.556 90.021,10.684 90.021,10.684 C90.021,10.684 89.25,11.107 88.495,11.541 C88.114,11.76 87.747,11.976 87.462,12.148 C87.316,12.238 87.195,12.312 87.113,12.362 C87.083,12.34 87.048,12.32 87.011,12.299 C87.054,12.023 87.15,11.371 87.236,10.711 C87.351,9.844 87.445,8.963 87.445,8.963 C87.445,8.963 86.695,9.424 85.968,9.9 C85.601,10.137 85.234,10.389 84.962,10.577 C84.818,10.674 84.706,10.753 84.626,10.806 C84.593,10.785 84.558,10.766 84.522,10.747 C84.549,10.469 84.61,9.812 84.664,9.144 C84.731,8.269 84.778,7.383 84.778,7.383 C84.778,7.383 84.598,7.506 84.332,7.695 C84.196,7.789 84.043,7.9 83.875,8.016 C83.709,8.141 83.526,8.272 83.352,8.404 C82.809,8.805 82.28,9.213 82.059,9.383 C82.026,9.365 81.994,9.348 81.957,9.33 C81.969,9.054 81.996,8.391 82.012,7.717 C82.033,6.838 82.033,5.947 82.033,5.947 C82.033,5.947 81.99,5.982 81.914,6.04 C81.84,6.102 81.729,6.186 81.602,6.289 C81.342,6.498 80.998,6.775 80.66,7.058 C80.139,7.49 79.633,7.924 79.426,8.105 C79.391,8.089 79.358,8.075 79.321,8.057 C79.319,7.783 79.311,7.117 79.289,6.441 C79.276,5.998 79.26,5.553 79.242,5.221 C79.223,4.894 79.213,4.672 79.213,4.672 C79.213,4.672 78.547,5.263 77.901,5.861 C77.399,6.324 76.922,6.781 76.725,6.968 C76.69,6.955 76.655,6.942 76.621,6.926 C76.6,6.652 76.559,5.985 76.5,5.307 C76.465,4.864 76.42,4.43 76.383,4.107 C76.346,3.78 76.321,3.562 76.321,3.562 C76.321,3.562 75.688,4.185 75.078,4.814 C74.602,5.3 74.149,5.786 73.969,5.982 C73.934,5.969 73.897,5.958 73.862,5.946 C73.85,5.849 73.836,5.711 73.813,5.536 C73.772,5.211 73.717,4.766 73.653,4.336 C73.526,3.478 73.379,2.608 73.379,2.608 C73.379,2.608 72.78,3.26 72.207,3.92 C71.766,4.428 71.338,4.936 71.162,5.147 C71.127,5.135 71.092,5.126 71.055,5.117 C71.037,5.02 71.014,4.883 70.985,4.708 C70.928,4.381 70.844,3.959 70.756,3.529 C70.58,2.675 70.385,1.817 70.385,1.817 C70.385,1.817 69.823,2.502 69.287,3.192 C68.873,3.718 68.475,4.249 68.309,4.465 C68.272,4.458 68.237,4.447 68.2,4.442 C68.179,4.346 68.147,4.213 68.104,4.043 C68.026,3.73 67.92,3.308 67.811,2.885 C67.592,2.041 67.348,1.194 67.348,1.194 C67.348,1.194 66.827,1.905 66.327,2.623 C66.077,2.978 65.833,3.338 65.65,3.607 C65.558,3.743 65.484,3.856 65.431,3.938 C65.429,3.943 65.427,3.943 65.425,3.947 C65.386,3.941 65.347,3.933 65.308,3.929 C65.228,3.662 65.04,3.033 64.837,2.4 C64.568,1.57 64.279,0.733 64.279,0.733 C64.279,0.733 63.8,1.469 63.341,2.212 C63.111,2.584 62.886,2.947 62.718,3.238 C62.632,3.386 62.562,3.509 62.511,3.592 C62.472,3.59 62.433,3.587 62.394,3.584 C62.302,3.322 62.081,2.701 61.841,2.078 C61.529,1.26 61.195,0.439 61.195,0.439 C61.195,0.439 60.757,1.202 60.341,1.963 C60.132,2.34 59.927,2.738 59.775,3.027 C59.695,3.182 59.632,3.309 59.589,3.396 C59.55,3.394 59.511,3.394 59.472,3.392 C59.365,3.136 59.109,2.528 58.835,1.914 C58.481,1.112 58.105,0.31 58.105,0.31 C58.105,0.31 57.707,1.092 57.332,1.875 C57.041,2.49 56.769,3.101 56.653,3.354 C56.615,3.354 56.579,3.356 56.543,3.356 C56.424,3.11 56.134,2.512 55.825,1.913 C55.429,1.13 55.011,0.35 55.011,0.35 C55.011,0.35 54.923,0.548 54.79,0.852 C54.657,1.153 54.485,1.544 54.319,1.96 C54.064,2.588 53.822,3.211 53.723,3.472 C53.685,3.475 53.647,3.477 53.609,3.481 C53.476,3.239 53.154,2.657 52.817,2.075 C52.379,1.313 51.919,0.554 51.919,0.554 C51.919,0.554 51.842,0.759 51.727,1.067 C51.612,1.37 51.464,1.794 51.32,2.211 C51.099,2.852 50.892,3.484 50.807,3.749 C50.769,3.753 50.731,3.758 50.693,3.763 C50.547,3.529 50.194,2.966 49.826,2.401 C49.347,1.664 48.846,0.928 48.846,0.928 C48.846,0.928 48.828,0.981 48.801,1.073 C48.772,1.164 48.73,1.294 48.682,1.456 C48.585,1.772 48.459,2.198 48.338,2.624 C48.15,3.27 47.983,3.912 47.909,4.181 C47.871,4.19 47.834,4.196 47.796,4.202 C47.636,3.973 47.254,3.431 46.857,2.888 C46.597,2.533 46.334,2.175 46.13,1.911 C45.93,1.64 45.795,1.473 45.795,1.473 C45.795,1.473 45.575,2.337 45.383,3.196 C45.233,3.849 45.096,4.5 45.039,4.772 C45.003,4.78 44.966,4.788 44.928,4.796 C44.755,4.576 44.344,4.054 43.914,3.531 C43.638,3.191 43.352,2.843 43.139,2.599 C42.924,2.353 42.782,2.187 42.782,2.187 C42.782,2.187 42.611,3.057 42.465,3.925 C42.352,4.585 42.25,5.238 42.208,5.514 C42.172,5.526 42.134,5.535 42.098,5.545 C41.91,5.335 41.473,4.833 41.017,4.336 C40.72,4.011 40.42,3.698 40.194,3.46 C39.965,3.224 39.814,3.065 39.814,3.065 C39.814,3.065 39.69,3.945 39.589,4.814 C39.511,5.481 39.443,6.139 39.419,6.414 C39.383,6.427 39.347,6.439 39.311,6.451 C39.243,6.382 39.149,6.285 39.022,6.156 C38.791,5.92 38.479,5.607 38.168,5.307 C37.543,4.701 36.897,4.105 36.897,4.105 C36.897,4.105 36.822,4.986 36.769,5.861 C36.727,6.532 36.698,7.193 36.686,7.465 C36.651,7.481 36.615,7.491 36.58,7.506 C36.511,7.443 36.405,7.347 36.274,7.229 C36.033,7.011 35.708,6.724 35.378,6.44 C34.72,5.866 34.039,5.303 34.039,5.303 C34.039,5.303 34.012,6.186 34.006,7.057 C34.001,7.495 34.002,7.929 34.006,8.253 C34.008,8.415 34.01,8.554 34.011,8.649 L34.011,8.665 C33.977,8.682 33.945,8.699 33.907,8.717 C33.694,8.543 33.18,8.13 32.65,7.718 C31.962,7.18 31.251,6.656 31.251,6.656 C31.251,6.656 31.272,7.537 31.313,8.406 C31.324,8.622 31.334,8.84 31.344,9.043 C31.359,9.249 31.368,9.441 31.382,9.607 C31.395,9.781 31.403,9.92 31.409,10.016 C31.376,10.037 31.345,10.055 31.308,10.076 C31.083,9.913 30.548,9.527 29.996,9.144 C29.275,8.644 28.535,8.155 28.535,8.155 C28.535,8.155 28.556,8.373 28.58,8.702 C28.607,9.031 28.644,9.461 28.69,9.898 C28.763,10.569 28.845,11.229 28.88,11.507 C28.848,11.528 28.816,11.549 28.779,11.57 C28.547,11.418 27.989,11.06 27.422,10.709 C26.676,10.246 25.906,9.799 25.906,9.799 C25.906,9.799 25.935,10.014 25.978,10.339 C26.022,10.662 26.093,11.107 26.164,11.539 C26.27,12.202 26.391,12.856 26.438,13.132 C26.406,13.156 26.376,13.178 26.342,13.201 C26.099,13.06 25.524,12.734 24.935,12.414 C24.549,12.201 24.159,11.992 23.864,11.838 C23.569,11.685 23.372,11.58 23.372,11.58 C23.372,11.58 23.543,12.455 23.73,13.316 C23.875,13.969 24.025,14.617 24.09,14.886 C24.06,14.908 24.028,14.935 23.996,14.957 C23.748,14.832 23.151,14.534 22.545,14.245 C22.148,14.055 21.741,13.863 21.444,13.73 C21.145,13.596 20.945,13.508 20.945,13.508 C20.945,13.508 21.161,14.369 21.393,15.213 C21.57,15.862 21.756,16.498 21.834,16.764 C21.806,16.789 21.773,16.815 21.747,16.84 C21.49,16.728 20.88,16.459 20.254,16.201 C19.447,15.873 18.628,15.563 18.628,15.563 C18.628,15.563 18.888,16.41 19.164,17.24 C19.375,17.879 19.596,18.502 19.685,18.761 C19.659,18.788 19.629,18.813 19.602,18.839 C19.512,18.806 19.379,18.755 19.215,18.693 C18.903,18.575 18.496,18.434 18.085,18.29 C17.261,18.007 16.421,17.739 16.421,17.739 C16.421,17.739 16.725,18.567 17.045,19.38 C17.288,20.006 17.542,20.616 17.647,20.868 C17.623,20.896 17.594,20.925 17.568,20.951 C17.305,20.87 16.675,20.679 16.032,20.497 C15.193,20.254 14.341,20.03 14.341,20.03 C14.341,20.03 14.687,20.839 15.049,21.634 C15.32,22.236 15.611,22.834 15.737,23.088 C15.715,23.118 15.689,23.151 15.667,23.181 C15.396,23.114 14.758,22.954 14.105,22.806 C13.251,22.61 12.384,22.431 12.384,22.431 C12.384,22.431 12.772,23.221 13.175,23.991 C13.487,24.585 13.811,25.167 13.946,25.414 C13.925,25.444 13.901,25.476 13.88,25.511 C13.606,25.456 12.958,25.332 12.3,25.218 C11.436,25.069 10.557,24.933 10.557,24.933 C10.557,24.933 10.663,25.124 10.827,25.412 C10.986,25.696 11.214,26.077 11.44,26.456 C11.787,27.032 12.138,27.593 12.29,27.831 C12.269,27.864 12.248,27.897 12.227,27.932 C11.95,27.894 11.293,27.804 10.629,27.727 C9.756,27.62 8.866,27.536 8.866,27.536 C8.866,27.536 8.896,27.581 8.947,27.661 C9.002,27.743 9.075,27.858 9.169,27.999 C9.353,28.278 9.598,28.645 9.845,29.01 C10.221,29.569 10.603,30.113 10.764,30.338 C10.743,30.37 10.725,30.404 10.703,30.44 C10.427,30.418 9.765,30.362 9.094,30.317 C8.654,30.29 8.208,30.262 7.878,30.247 C7.552,30.235 7.333,30.229 7.333,30.229 C7.333,30.229 7.854,30.948 8.388,31.647 C8.792,32.183 9.201,32.704 9.375,32.921 C9.356,32.954 9.341,32.987 9.321,33.024 C9.045,33.014 8.378,32.996 7.699,32.987 C7.256,32.981 6.824,32.987 6.496,32.991 C6.158,32.994 5.938,33 5.938,33 C5.938,33 6.498,33.689 7.063,34.355 C7.501,34.872 7.936,35.368 8.12,35.573 C8.103,35.607 8.09,35.641 8.072,35.677 C7.974,35.679 7.836,35.682 7.66,35.685 C7.331,35.696 6.886,35.708 6.455,35.735 C5.586,35.778 4.708,35.839 4.708,35.839 C4.708,35.839 5.301,36.497 5.9,37.133 C6.369,37.628 6.832,38.1 7.016,38.29 C7.003,38.325 6.989,38.36 6.975,38.395 C6.878,38.402 6.738,38.412 6.56,38.423 C6.238,38.454 5.805,38.495 5.372,38.541 C4.505,38.632 3.63,38.745 3.63,38.745 C3.63,38.745 4.256,39.368 4.889,39.968 C5.206,40.27 5.523,40.565 5.763,40.784 C5.884,40.895 5.983,40.985 6.054,41.05 C6.059,41.054 6.061,41.056 6.065,41.061 C6.053,41.097 6.044,41.134 6.028,41.171 C5.757,41.209 5.103,41.3 4.447,41.407 C3.586,41.542 2.717,41.702 2.717,41.702 C2.717,41.702 3.374,42.292 4.037,42.854 C4.37,43.136 4.696,43.413 4.958,43.624 C5.092,43.73 5.2,43.817 5.273,43.879 C5.263,43.917 5.256,43.956 5.25,43.995 C4.977,44.048 4.332,44.175 3.681,44.315 C2.827,44.501 1.964,44.709 1.964,44.709 C1.964,44.709 2.65,45.261 3.342,45.786 C3.686,46.05 4.05,46.307 4.315,46.506 C4.457,46.607 4.568,46.689 4.646,46.741 C4.638,46.78 4.632,46.819 4.625,46.858 C4.354,46.924 3.716,47.087 3.069,47.264 C2.223,47.494 1.375,47.748 1.375,47.748 C1.375,47.748 1.554,47.875 1.819,48.064 C2.09,48.252 2.438,48.5 2.811,48.748 C3.373,49.121 3.932,49.482 4.168,49.633 C4.163,49.67 4.158,49.711 4.15,49.748 C3.884,49.83 3.254,50.029 2.62,50.242 C1.785,50.516 0.948,50.816 0.948,50.816 C0.948,50.816 1.135,50.932 1.41,51.109 C1.681,51.283 2.067,51.511 2.448,51.736 C3.028,52.082 3.605,52.41 3.848,52.547 C3.845,52.586 3.842,52.624 3.839,52.662 C3.579,52.76 2.957,52.992 2.331,53.238 C1.512,53.56 0.688,53.906 0.688,53.906 C0.688,53.906 0.88,54.01 1.168,54.17 C1.461,54.33 1.853,54.537 2.243,54.742 C2.842,55.054 3.434,55.353 3.683,55.475 C3.682,55.513 3.681,55.551 3.68,55.589 C3.426,55.698 2.816,55.964 2.202,56.245 C1.398,56.608 0.598,56.997 0.598,56.997 C0.598,56.997 1.401,57.386 2.202,57.748 C2.813,58.029 3.426,58.295 3.68,58.404 C3.681,58.443 3.682,58.482 3.683,58.519 C3.434,58.644 2.838,58.943 2.243,59.252 C1.849,59.455 1.461,59.664 1.168,59.821 C0.88,59.979 0.688,60.088 0.688,60.088 C0.688,60.088 1.509,60.435 2.331,60.754 C2.957,61.002 3.579,61.233 3.839,61.33 C3.842,61.369 3.844,61.406 3.848,61.444 C3.605,61.582 3.026,61.91 2.448,62.256 C2.067,62.482 1.682,62.711 1.412,62.885 C1.135,63.064 0.948,63.176 0.948,63.176 C0.948,63.176 1.785,63.48 2.62,63.752 C3.255,63.963 3.887,64.162 4.149,64.244 C4.156,64.283 4.162,64.321 4.167,64.36 C3.931,64.506 3.37,64.871 2.81,65.248 C2.436,65.492 2.089,65.737 1.818,65.933 C1.55,66.121 1.374,66.246 1.374,66.246 C1.374,66.246 2.225,66.5 3.068,66.727 C3.714,66.905 4.351,67.067 4.624,67.135 C4.631,67.172 4.637,67.213 4.645,67.25 C4.566,67.307 4.456,67.389 4.314,67.488 C4.05,67.681 3.685,67.941 3.341,68.205 C2.649,68.734 1.963,69.283 1.963,69.283 C1.963,69.283 2.822,69.49 3.68,69.674 C4.329,69.817 4.976,69.945 5.249,69.996 C5.259,70.035 5.266,70.074 5.273,70.111 C5.2,70.173 5.089,70.258 4.959,70.367 C4.695,70.578 4.37,70.853 4.037,71.138 C3.374,71.7 2.717,72.287 2.717,72.287 C2.717,72.287 3.587,72.447 4.447,72.584 C5.104,72.69 5.757,72.783 6.03,72.822 C6.043,72.856 6.053,72.891 6.065,72.928 C6.061,72.932 6.059,72.934 6.054,72.938 C5.984,73 5.885,73.092 5.764,73.205 C5.524,73.429 5.206,73.724 4.889,74.02 C4.256,74.623 3.63,75.246 3.63,75.246 C3.63,75.246 4.505,75.358 5.372,75.449 C5.806,75.494 6.236,75.535 6.56,75.565 C6.736,75.58 6.878,75.586 6.975,75.594 C6.99,75.627 7.003,75.662 7.017,75.698 C6.829,75.888 6.368,76.359 5.9,76.855 C5.298,77.491 4.708,78.148 4.708,78.148 C4.708,78.148 5.586,78.214 6.455,78.257 C6.886,78.277 7.331,78.29 7.66,78.302 C7.836,78.304 7.974,78.308 8.072,78.31 C8.09,78.345 8.103,78.38 8.12,78.414 C7.936,78.619 7.501,79.115 7.064,79.633 C6.498,80.302 5.938,80.987 5.938,80.987 C5.938,80.987 6.159,80.993 6.486,80.997 C6.816,81.001 7.247,81.009 7.69,81.001 C8.368,80.993 9.036,80.974 9.312,80.966 C9.333,80.999 9.347,81.034 9.366,81.068 C9.193,81.288 8.783,81.808 8.379,82.343 C7.846,83.04 7.324,83.763 7.324,83.763 C7.324,83.763 7.544,83.757 7.87,83.742 C8.2,83.725 8.642,83.699 9.085,83.672 C9.757,83.629 10.418,83.574 10.693,83.552 C10.714,83.584 10.732,83.617 10.755,83.654 C10.594,83.883 10.212,84.424 9.836,84.982 C9.589,85.345 9.344,85.713 9.16,85.994 C9.067,86.133 8.993,86.248 8.938,86.33 C8.887,86.41 8.857,86.459 8.857,86.459 C8.857,86.459 9.747,86.371 10.62,86.268 C11.284,86.19 11.937,86.1 12.218,86.061 C12.239,86.094 12.261,86.125 12.28,86.164 C12.132,86.399 11.777,86.963 11.431,87.537 C11.202,87.916 10.976,88.301 10.817,88.582 C10.657,88.867 10.548,89.061 10.548,89.061 C10.548,89.061 11.426,88.925 12.291,88.776 C12.947,88.665 13.595,88.538 13.87,88.483 C13.891,88.516 13.915,88.546 13.936,88.583 C13.798,88.829 13.476,89.409 13.165,90.003 C12.762,90.774 12.374,91.565 12.374,91.565 C12.374,91.565 13.24,91.382 14.096,91.19 C14.746,91.042 15.385,90.878 15.656,90.813 C15.679,90.843 15.705,90.875 15.727,90.907 C15.602,91.161 15.31,91.761 15.04,92.36 C14.679,93.155 14.332,93.964 14.332,93.964 C14.332,93.964 15.186,93.741 16.023,93.501 C16.667,93.317 17.294,93.124 17.558,93.042 C17.584,93.071 17.613,93.097 17.637,93.126 C17.533,93.38 17.282,93.989 17.036,94.612 C16.716,95.424 16.412,96.255 16.412,96.255 C16.412,96.255 17.252,95.987 18.076,95.704 C18.489,95.561 18.891,95.419 19.206,95.302 C19.371,95.24 19.503,95.193 19.593,95.156 C19.62,95.182 19.649,95.209 19.676,95.233 C19.584,95.496 19.364,96.121 19.155,96.754 C18.879,97.584 18.619,98.436 18.619,98.436 C18.619,98.436 19.438,98.124 20.246,97.795 C20.87,97.535 21.479,97.27 21.738,97.154 C21.765,97.181 21.797,97.207 21.826,97.23 C21.747,97.498 21.557,98.129 21.384,98.781 C21.151,99.625 20.935,100.488 20.935,100.488 C20.935,100.488 21.135,100.398 21.434,100.265 C21.731,100.129 22.135,99.945 22.535,99.75 C23.14,99.457 23.735,99.162 23.984,99.035 C24.015,99.057 24.046,99.084 24.08,99.106 C24.015,99.377 23.86,100.022 23.72,100.676 C23.532,101.537 23.362,102.41 23.362,102.41 C23.362,102.41 23.558,102.306 23.854,102.154 C24.148,101.998 24.542,101.791 24.926,101.578 C25.513,101.256 26.088,100.932 26.331,100.789 C26.36,100.812 26.393,100.838 26.428,100.859 C26.378,101.134 26.26,101.789 26.153,102.451 C26.086,102.887 26.012,103.328 25.968,103.65 C25.925,103.976 25.896,104.191 25.896,104.191 C25.896,104.191 26.666,103.744 27.412,103.281 C27.979,102.929 28.536,102.572 28.768,102.42 C28.801,102.441 28.834,102.463 28.87,102.484 C28.836,102.763 28.752,103.422 28.681,104.093 C28.635,104.531 28.598,104.957 28.57,105.287 C28.546,105.615 28.525,105.834 28.525,105.834 C28.525,105.834 29.266,105.347 29.985,104.847 C30.537,104.465 31.072,104.076 31.297,103.914 C31.33,103.935 31.361,103.953 31.398,103.974 C31.391,104.07 31.38,104.207 31.37,104.386 C31.356,104.549 31.347,104.74 31.332,104.947 C31.32,105.15 31.311,105.367 31.302,105.586 C31.261,106.455 31.24,107.336 31.24,107.336 C31.24,107.336 31.953,106.813 32.64,106.274 C33.17,105.863 33.684,105.449 33.897,105.276 C33.932,105.295 33.964,105.309 34.001,105.328 L34.001,105.338 C34,105.441 33.998,105.576 33.996,105.738 C33.993,106.061 33.992,106.498 33.996,106.932 C34.002,107.805 34.028,108.688 34.028,108.688 C34.028,108.688 34.711,108.126 35.366,107.553 C35.696,107.266 36.021,106.979 36.263,106.762 C36.393,106.643 36.495,106.547 36.568,106.483 C36.603,106.5 36.639,106.51 36.674,106.526 C36.685,106.797 36.714,107.461 36.757,108.13 C36.811,109.005 36.886,109.889 36.886,109.889 C36.886,109.889 37.532,109.29 38.157,108.688 C38.469,108.389 38.781,108.077 39.013,107.835 C39.139,107.708 39.234,107.607 39.301,107.54 C39.337,107.555 39.373,107.562 39.409,107.577 C39.434,107.849 39.502,108.514 39.579,109.18 C39.681,110.048 39.804,110.93 39.804,110.93 C39.804,110.93 39.955,110.772 40.184,110.534 C40.413,110.296 40.71,109.985 41.007,109.657 C41.464,109.159 41.903,108.657 42.089,108.448 C42.126,108.46 42.162,108.469 42.197,108.479 C42.238,108.75 42.342,109.407 42.455,110.069 C42.601,110.936 42.772,111.807 42.772,111.807 C42.772,111.807 42.918,111.643 43.129,111.395 C43.341,111.149 43.628,110.805 43.903,110.46 C44.332,109.939 44.742,109.417 44.917,109.193 C44.954,109.206 44.993,109.214 45.028,109.22 C45.087,109.491 45.22,110.142 45.373,110.794 C45.565,111.653 45.785,112.519 45.785,112.519 C45.785,112.519 45.92,112.349 46.12,112.081 C46.32,111.815 46.587,111.46 46.847,111.104 C47.245,110.559 47.629,110.016 47.787,109.79 C47.825,109.796 47.86,109.804 47.898,109.81 C47.968,110.081 48.14,110.722 48.328,111.372 C48.45,111.796 48.575,112.225 48.672,112.54 C48.719,112.7 48.762,112.831 48.791,112.923 C48.817,113.016 48.836,113.069 48.836,113.069 C48.836,113.069 49.339,112.335 49.816,111.596 C50.184,111.032 50.54,110.466 50.683,110.233 C50.721,110.239 50.759,110.243 50.797,110.247 C50.882,110.515 51.089,111.145 51.31,111.786 C51.456,112.204 51.602,112.626 51.717,112.931 C51.833,113.239 51.908,113.443 51.908,113.443 C51.908,113.443 52.371,112.683 52.806,111.922 C53.144,111.338 53.467,110.756 53.598,110.519 C53.635,110.523 53.673,110.525 53.711,110.527 C53.81,110.785 54.051,111.41 54.307,112.039 C54.473,112.455 54.645,112.848 54.776,113.152 C54.91,113.451 54.999,113.65 54.999,113.65 C54.999,113.65 55.419,112.869 55.813,112.086 C56.123,111.486 56.413,110.889 56.532,110.645 C56.568,110.645 56.605,110.647 56.642,110.647 C56.755,110.901 57.031,111.51 57.32,112.126 C57.695,112.909 58.093,113.689 58.093,113.689 C58.093,113.689 58.47,112.886 58.823,112.085 C59.095,111.472 59.353,110.86 59.462,110.608 C59.501,110.606 59.538,110.606 59.577,110.602 C59.62,110.69 59.681,110.815 59.765,110.971 C59.917,111.262 60.122,111.659 60.331,112.033 C60.747,112.797 61.185,113.557 61.185,113.557 C61.185,113.557 61.517,112.738 61.831,111.918 C62.066,111.295 62.294,110.674 62.386,110.412 C62.425,110.408 62.464,110.406 62.503,110.4 C62.552,110.486 62.624,110.607 62.71,110.754 C62.878,111.045 63.103,111.406 63.333,111.779 C63.79,112.518 64.271,113.258 64.271,113.258 C64.271,113.258 64.56,112.424 64.827,111.593 C65.03,110.959 65.22,110.33 65.3,110.064 C65.339,110.06 65.376,110.052 65.415,110.045 C65.419,110.049 65.419,110.052 65.423,110.058 C65.476,110.138 65.55,110.25 65.642,110.386 C65.825,110.656 66.068,111.013 66.318,111.371 C66.816,112.086 67.339,112.799 67.339,112.799 C67.339,112.799 67.583,111.947 67.802,111.109 C67.911,110.687 68.019,110.263 68.095,109.949 C68.138,109.781 68.169,109.644 68.191,109.553 C68.228,109.545 68.263,109.533 68.3,109.528 C68.464,109.748 68.861,110.276 69.275,110.803 C69.812,111.491 70.376,112.178 70.376,112.178 C70.376,112.178 70.57,111.319 70.745,110.465 C70.833,110.037 70.917,109.613 70.974,109.287 C71.005,109.111 71.032,108.975 71.046,108.877 C71.083,108.867 71.118,108.856 71.152,108.848 C71.329,109.057 71.756,109.565 72.195,110.072 C72.771,110.731 73.37,111.385 73.37,111.385 C73.37,111.385 73.517,110.518 73.644,109.656 C73.708,109.224 73.763,108.783 73.804,108.459 C73.825,108.281 73.841,108.145 73.851,108.047 C73.888,108.037 73.923,108.026 73.96,108.012 C74.142,108.209 74.595,108.694 75.068,109.18 C75.679,109.809 76.312,110.432 76.312,110.432 C76.312,110.432 76.337,110.213 76.374,109.887 C76.411,109.563 76.456,109.131 76.491,108.688 C76.55,108.01 76.595,107.342 76.612,107.067 C76.646,107.053 76.679,107.041 76.716,107.026 C76.911,107.214 77.39,107.672 77.892,108.133 C78.538,108.733 79.204,109.321 79.204,109.321 C79.204,109.321 79.216,109.1 79.232,108.774 C79.251,108.44 79.267,108 79.282,107.557 C79.303,106.877 79.31,106.211 79.312,105.938 C79.347,105.92 79.382,105.908 79.417,105.891 C79.624,106.071 80.13,106.504 80.65,106.936 C80.991,107.217 81.335,107.498 81.593,107.707 C81.722,107.811 81.829,107.895 81.905,107.957 C81.978,108.015 82.021,108.049 82.021,108.049 C82.021,108.049 82.021,107.158 82,106.278 C81.986,105.604 81.959,104.942 81.945,104.668 C81.977,104.647 82.012,104.631 82.049,104.612 C82.27,104.785 82.799,105.19 83.342,105.591 C83.52,105.727 83.697,105.858 83.865,105.979 C84.031,106.096 84.184,106.208 84.322,106.3 C84.59,106.489 84.766,106.612 84.766,106.612 C84.766,106.612 84.719,105.727 84.654,104.852 C84.6,104.184 84.541,103.528 84.51,103.248 C84.545,103.228 84.578,103.209 84.615,103.189 C84.693,103.244 84.805,103.324 84.949,103.418 C85.22,103.606 85.588,103.856 85.955,104.092 C86.682,104.57 87.432,105.03 87.432,105.03 C87.432,105.03 87.338,104.149 87.223,103.282 C87.137,102.622 87.039,101.973 86.998,101.694 C87.031,101.673 87.063,101.653 87.1,101.632 C87.182,101.685 87.301,101.755 87.449,101.845 C87.731,102.021 88.1,102.236 88.481,102.452 C89.236,102.89 90.008,103.309 90.008,103.309 C90.008,103.309 89.867,102.438 89.707,101.579 C89.627,101.147 89.543,100.725 89.477,100.405 C89.447,100.237 89.416,100.104 89.397,100.009 C89.426,99.988 89.459,99.96 89.49,99.939 C89.734,100.068 90.315,100.377 90.912,100.675 C91.688,101.07 92.488,101.45 92.488,101.45 C92.488,101.45 92.3,100.591 92.092,99.745 C91.99,99.321 91.885,98.901 91.799,98.579 C91.752,98.409 91.717,98.274 91.695,98.183 C91.721,98.161 91.752,98.13 91.783,98.109 C92.033,98.226 92.633,98.505 93.246,98.775 C94.045,99.129 94.865,99.466 94.865,99.466 C94.865,99.466 94.633,98.618 94.383,97.786 C94.184,97.136 93.975,96.499 93.889,96.235 C93.916,96.21 93.945,96.184 93.971,96.157 C94.225,96.261 94.842,96.507 95.473,96.745 C96.293,97.057 97.131,97.356 97.131,97.356 C97.131,97.356 97.061,97.145 96.957,96.835 C96.853,96.528 96.701,96.108 96.549,95.694 C96.32,95.059 96.076,94.436 95.975,94.173 C96.002,94.149 96.031,94.118 96.055,94.091 C96.318,94.182 96.949,94.397 97.588,94.602 C98.426,94.873 99.281,95.123 99.281,95.123 C99.281,95.123 98.949,94.297 98.598,93.487 C98.332,92.871 98.061,92.26 97.949,92.008 C97.971,91.979 98,91.947 98.025,91.918 C98.293,91.994 98.93,92.176 99.587,92.346 C100.444,92.576 101.294,92.768 101.294,92.768 C101.294,92.768 100.919,91.963 100.53,91.176 C100.235,90.572 99.929,89.987 99.802,89.738 C99.825,89.709 99.851,89.677 99.874,89.644 C100.146,89.706 100.796,89.855 101.458,89.992 C102.312,90.164 103.177,90.308 103.177,90.308 C103.177,90.308 102.761,89.527 102.331,88.763 C102.007,88.181 101.673,87.613 101.532,87.371 C101.553,87.338 101.579,87.308 101.597,87.272 C101.696,87.291 101.831,87.313 102.001,87.342 C102.329,87.397 102.757,87.459 103.189,87.522 C104.05,87.645 104.925,87.752 104.925,87.752 C104.925,87.752 104.47,86.992 104.001,86.256 C103.646,85.692 103.282,85.143 103.13,84.912 C103.151,84.879 103.171,84.848 103.192,84.814 L103.202,84.814 C103.296,84.826 103.431,84.836 103.593,84.855 C103.917,84.888 104.349,84.931 104.784,84.97 C105.653,85.045 106.536,85.103 106.536,85.103 C106.536,85.103 106.04,84.374 105.536,83.665 C105.282,83.309 105.03,82.958 104.833,82.693 C104.729,82.554 104.645,82.443 104.587,82.366 C104.608,82.333 104.622,82.298 104.64,82.262 C104.915,82.279 105.577,82.311 106.244,82.332 C107.119,82.363 108.004,82.373 108.004,82.373 C108.004,82.373 107.473,81.672 106.93,80.992 C106.662,80.652 106.373,80.308 106.164,80.054 C106.051,79.92 105.961,79.814 105.9,79.742 C105.916,79.707 105.928,79.672 105.947,79.637 C106.219,79.637 106.885,79.635 107.555,79.623 C108.43,79.605 109.32,79.568 109.32,79.568 C109.32,79.568 109.176,79.398 108.965,79.152 C108.752,78.904 108.469,78.574 108.168,78.248 C107.709,77.738 107.252,77.25 107.065,77.053 C107.08,77.018 107.09,76.983 107.109,76.949 C107.381,76.931 108.047,76.894 108.717,76.845 C109.594,76.783 110.484,76.699 110.484,76.699 C110.484,76.699 110.332,76.541 110.106,76.303 C109.873,76.065 109.561,75.748 109.25,75.438 C108.766,74.957 108.285,74.498 108.088,74.309 C108.1,74.272 108.113,74.238 108.125,74.201 C108.4,74.172 109.063,74.097 109.731,74.013 C110.169,73.956 110.606,73.898 110.938,73.851 C111.102,73.827 111.24,73.806 111.334,73.789 C111.43,73.774 111.484,73.768 111.484,73.768 C111.484,73.768 110.832,73.161 110.172,72.575 C109.67,72.128 109.166,71.692 108.955,71.513 C108.965,71.476 108.976,71.439 108.986,71.402 C109.258,71.357 109.918,71.253 110.584,71.13 C111.018,71.05 111.457,70.968 111.775,70.901 C112.092,70.837 112.307,70.792 112.307,70.792 C112.307,70.792 111.625,70.218 110.938,69.671 C110.416,69.251 109.889,68.849 109.668,68.679 C109.676,68.64 109.686,68.605 109.693,68.566 C109.964,68.507 110.617,68.363 111.275,68.206 C111.707,68.102 112.123,67.995 112.441,67.911 C112.756,67.822 112.969,67.765 112.969,67.765 C112.969,67.765 112.258,67.232 111.543,66.724 C110.998,66.332 110.453,65.957 110.227,65.803 C110.234,65.765 110.242,65.728 110.248,65.689 C110.34,65.666 110.477,65.627 110.644,65.582 C110.956,65.494 111.392,65.373 111.802,65.24 C112.632,64.986 113.468,64.711 113.468,64.711 C113.468,64.711 112.735,64.219 111.991,63.748 C111.427,63.389 110.862,63.043 110.626,62.9 C110.63,62.861 110.64,62.824 110.644,62.787 C110.737,62.758 110.87,62.711 111.036,62.654 C111.351,62.55 111.757,62.402 112.167,62.254 C112.985,61.953 113.804,61.631 113.804,61.631 C113.804,61.631 113.044,61.178 112.283,60.75 C111.699,60.422 111.115,60.107 110.875,59.979 C110.877,59.942 110.881,59.905 110.883,59.867 C110.996,59.842 111.125,59.789 111.289,59.725 Z M105.008,77.148 C102.401,83.31 98.67,88.842 93.916,93.597 C89.162,98.351 83.627,102.082 77.465,104.691 C71.086,107.388 64.307,108.756 57.319,108.756 C50.331,108.756 43.552,107.388 37.173,104.691 C31.011,102.086 25.476,98.349 20.723,93.597 C15.97,88.842 12.241,83.31 9.631,77.148 C6.933,70.765 5.564,63.99 5.564,57.002 C5.564,50.014 6.933,43.238 9.631,36.856 C12.237,30.696 15.97,25.161 20.723,20.407 C25.476,15.655 31.011,11.921 37.173,9.316 C43.553,6.616 50.331,5.249 57.319,5.249 C64.307,5.249 71.086,6.616 77.465,9.316 C83.629,11.92 89.162,15.655 93.916,20.407 C98.67,25.161 102.399,30.696 105.008,36.856 C107.707,43.239 109.074,50.013 109.074,57.002 C109.074,63.992 107.705,70.766 105.008,77.148 Z" id="Shape" fill="#231F20"></path>
                <g transform="translate(28.000000, 20.000000)" id="Shape" fill="#231F20">
                    <path d="M58.071,26.551 C55.742,21.545 48.758,19.471 46.465,18.791 L46.377,18.764 C46.727,18.348 47.182,17.859 47.662,17.336 C49.516,15.32 52.063,12.559 52.182,10.482 C52.252,9.254 51.744,6.812 47.551,4.264 C45.973,3.306 44.25,2.107 42.43,0.697 L42.389,0.666 L42.356,0.703 C41.867,1.25 41.198,1.918 40.424,2.689 C39.244,3.863 37.778,5.326 36.389,6.922 C34.41,9.203 34.397,10.611 34.383,12.947 C34.381,13.322 34.379,13.709 34.367,14.133 C34.328,15.775 34.483,19.26 34.637,22.631 C34.772,25.621 34.899,28.445 34.866,29.512 C34.849,29.965 34.845,30.399 34.843,30.815 C34.827,32.467 34.814,33.901 34.126,35.877 C33.3,38.242 29.259,41.648 27.543,42.839 C24.072,45.245 23.838,48.743 24.081,49.516 C24.093,49.557 24.13,49.673 24.213,49.673 C24.298,49.673 24.333,49.557 24.344,49.516 C25.266,46.423 26.781,44.921 28.969,44.921 C31.317,44.921 34.118,46.659 36.589,48.192 C37.577,48.805 38.509,49.385 39.376,49.838 C40.314,50.324 41.314,50.576 42.351,50.576 L42.353,50.576 C46.587,50.576 51.169,46.422 55.21,42.762 C57.786,40.428 59.267,37.711 59.613,34.694 C59.908,32.127 59.389,29.389 58.071,26.551 Z M39.899,7.735 C40.705,8.175 47.254,11.847 47.074,14.259 C46.879,16.847 44.344,19.337 40.219,23.173 L39.899,7.735 Z M40.567,25.43 C40.871,25.383 41.196,25.362 41.537,25.362 C43.854,25.362 46.77,26.432 49.141,28.157 C51.87,30.136 53.537,32.679 53.832,35.321 C54.254,39.026 53.522,42.33 51.887,44.168 C50.91,45.262 49.645,45.818 48.127,45.818 C47.127,45.818 46.014,45.572 44.815,45.086 C41.207,43.627 39.256,42.201 37.836,41.162 C36.367,40.09 35.387,39.373 33.627,39.289 C34.049,38.867 34.551,38.469 35.08,38.049 C37.573,36.063 40.674,33.594 40.567,25.43 Z"></path>
                    <path d="M37.156,0.264 C36.844,0.373 36.5,0.415 35.924,0.415 C35.537,0.415 35.049,0.396 34.43,0.373 C33.221,0.322 31.567,0.259 29.02,0.259 C24.325,0.259 22.93,2.748 21.811,4.746 C21.52,5.269 21.246,5.762 20.929,6.185 L20.867,6.27 L20.971,6.268 C21.288,6.262 21.666,6.252 22.104,6.244 C23.149,6.217 24.583,6.182 26.335,6.182 C27.89,6.182 29.411,6.209 30.979,6.264 C28.972,8.35 26.671,11.721 26.671,14.502 C26.671,17.435 27.02,40.044 27.024,40.273 L27.025,40.367 L27.105,40.316 C29.298,38.92 30.571,37.334 31.251,36.25 C32.025,35.014 32.464,33.746 32.423,32.857 C32.343,31.076 32.214,9.53 32.423,7.164 C32.573,5.473 34.505,3.38 35.915,1.852 C36.478,1.241 36.97,0.71 37.214,0.341 L37.304,0.208 L37.156,0.264 Z"></path>
                    <path d="M21.113,20.543 C17.215,23.465 14.265,28.049 12.786,31.447 C12.39,32.347 12.003,33.269 11.629,34.16 C11.04,35.562 10.431,37.01 9.784,38.415 C9.452,39.136 8.889,39.843 8.337,40.501 C7.558,41.421 6.575,41.889 5.417,41.889 C4.774,41.889 4.084,41.745 3.355,41.462 C3.054,41.348 2.751,41.236 2.457,41.134 C2.328,41.087 2.197,41.04 2.066,40.993 L1.574,40.814 L0.673,41.918 L1.163,42.394 C1.39,42.611 1.624,42.826 1.85,43.031 C2.344,43.486 2.811,43.914 3.2,44.375 C4.679,46.146 6.123,47.959 7.483,49.756 C7.795,50.166 8.222,50.584 9.062,50.584 C9.163,50.584 9.261,50.58 9.373,50.568 C12.308,50.287 14.531,49.088 15.984,47 C17.445,44.902 18.288,42.641 19.095,40.453 C19.324,39.84 19.558,39.205 19.803,38.59 C20.859,35.923 22.065,33.147 23.491,30.108 C23.79,29.465 24.248,28.856 24.73,28.208 C24.957,27.905 25.186,27.595 25.404,27.282 L26.172,26.218 L25.307,24.929 C25.161,24.706 25.016,24.493 24.873,24.283 C24.578,23.848 24.301,23.44 24.039,23.022 C20.306,17.046 16.609,11.121 12.516,4.55 C12.223,4.079 11.822,3.437 11.106,3.437 C10.575,3.437 10.17,3.802 9.772,4.212 C8.971,5.034 7.932,5.485 6.845,5.485 C5.818,5.485 4.829,5.093 3.986,4.36 C3.642,4.06 3.29,3.87 2.798,3.724 L1.63,3.374 L1.859,4.573 C1.89,4.735 1.921,4.899 1.944,5.065 C2.006,5.452 2.073,5.854 2.194,6.259 C2.878,8.561 4.015,10.343 5.683,11.712 C7.165,12.927 8.915,13.544 10.886,13.544 C11.82,13.544 12.824,13.466 13.865,13.128 C15.21,12.692 15.469,12.292 15.639,12.237 L21.113,20.543 Z"></path>
                </g>
                <path d="M20.604,77.465 L95.498,77.465" id="Shape" stroke="#231F20"></path>
                <polygon id="Shape" fill="#231F20" points="27.831 81.422 28.978 81.422 28.978 83.354 28.994 83.354 30.065 81.422 31.304 81.422 30.024 83.531 31.462 86.306 30.17 86.306 29.287 84.463 28.976 84.939 28.976 86.306 27.83 86.306"></polygon>
                <path d="M33.038,86.404 C31.523,86.404 31.319,85.42 31.319,83.867 C31.319,82.312 31.523,81.328 33.038,81.328 C34.666,81.328 34.755,82.512 34.755,83.867 C34.755,85.221 34.667,86.404 33.038,86.404 Z M33.031,85.639 C33.497,85.639 33.562,85.207 33.562,83.868 C33.562,82.525 33.497,82.097 33.031,82.097 C32.58,82.097 32.51,82.529 32.51,83.868 C32.511,85.207 32.58,85.639 33.031,85.639 Z" id="Shape" fill="#231F20"></path>
                <polygon id="Shape" fill="#231F20" points="35.151 81.422 36.301 81.422 36.301 85.377 37.964 85.377 37.964 86.311 35.152 86.311"></polygon>
                <polygon id="Shape" fill="#231F20" points="38.115 81.422 39.262 81.422 39.262 85.377 40.925 85.377 40.925 86.311 38.113 86.311"></polygon>
                <polygon id="Shape" fill="#231F20" points="41.078 81.422 43.903 81.422 43.903 82.356 42.226 82.356 42.226 83.335 43.8 83.335 43.8 84.268 42.226 84.268 42.226 85.38 43.978 85.38 43.978 86.315 41.078 86.315 41.078 81.422"></polygon>
                <polygon id="Shape" fill="#231F20" points="44.293 81.422 45.44 81.422 45.44 83.354 45.456 83.354 46.529 81.422 47.766 81.422 46.488 83.531 47.926 86.306 46.633 86.306 45.75 84.463 45.44 84.939 45.44 86.306 44.293 86.306 44.293 81.422"></polygon>
                <polygon id="Shape" fill="#231F20" points="48.726 82.354 47.702 82.354 47.702 81.422 50.903 81.422 50.903 82.354 49.878 82.354 49.878 86.309 48.729 86.309"></polygon>
                <polygon id="Shape" fill="#231F20" points="51.115 81.422 52.262 81.422 52.262 86.309 51.115 86.309"></polygon>
                <polygon id="Shape" fill="#231F20" points="52.449 81.422 53.678 81.422 54.26 85.201 54.274 85.201 54.864 81.422 56.093 81.422 54.987 86.309 53.521 86.309"></polygon>
                <path d="M56.26,81.422 L58.048,81.422 C58.882,81.422 59.437,81.815 59.437,82.627 C59.437,83.193 59.136,83.641 58.671,83.731 L58.671,83.748 C59.032,83.801 59.573,83.959 59.573,84.959 C59.573,85.53 59.32,86.313 57.958,86.313 L56.261,86.313 L56.26,81.422 L56.26,81.422 Z M57.41,83.373 L57.722,83.373 C58.119,83.373 58.285,83.146 58.285,82.797 C58.285,82.545 58.145,82.274 57.728,82.274 L57.409,82.274 L57.41,83.373 L57.41,83.373 Z M57.41,85.461 L57.759,85.461 C58.223,85.461 58.382,85.166 58.382,84.824 C58.382,84.345 58.136,84.138 57.781,84.138 L57.411,84.138 L57.41,85.461 L57.41,85.461 Z" id="Shape" fill="#231F20"></path>
                <path d="M59.84,81.422 L61.77,81.422 C62.749,81.422 63.082,82.026 63.082,82.695 C63.082,83.408 62.795,83.756 62.262,83.883 L62.262,83.898 C62.992,84.002 63.035,84.46 63.049,85.119 C63.07,86.084 63.104,86.18 63.268,86.248 L63.268,86.309 L62.033,86.309 C61.94,86.147 61.91,85.871 61.91,85.319 C61.91,84.467 61.793,84.295 61.43,84.295 L60.992,84.295 L60.992,86.316 L59.842,86.316 L59.84,81.422 L59.84,81.422 Z M60.99,83.482 L61.344,83.482 C61.809,83.482 61.932,83.131 61.932,82.847 C61.932,82.476 61.795,82.23 61.336,82.23 L60.987,82.23 L60.99,83.482 L60.99,83.482 Z" id="Shape" fill="#231F20"></path>
                <polygon id="Shape" fill="#231F20" points="64.26 84.387 63.022 81.422 64.293 81.422 64.84 83.236 64.854 83.236 65.416 81.422 66.645 81.422 65.41 84.387 65.41 86.309 64.26 86.309 64.26 84.387"></polygon>
                <path d="M68.602,82.908 C68.602,82.594 68.567,82.094 68.143,82.094 C67.67,82.094 67.619,82.574 67.619,83.873 C67.619,85.207 67.684,85.639 68.143,85.639 C68.537,85.639 68.67,85.285 68.67,84.614 L68.67,84.459 L68.129,84.459 L68.129,83.69 L69.735,83.69 L69.735,86.311 L68.951,86.311 L68.924,85.842 L68.91,85.842 C68.729,86.281 68.301,86.404 67.852,86.404 C66.627,86.404 66.422,85.496 66.422,83.966 C66.422,82.366 66.531,81.325 68.16,81.325 C69.641,81.325 69.707,82.349 69.707,82.904 L68.602,82.908 L68.602,82.908 Z" id="Shape" fill="#231F20"></path>
                <path d="M72.201,82.908 C72.201,82.594 72.166,82.094 71.742,82.094 C71.268,82.094 71.215,82.574 71.215,83.873 C71.215,85.207 71.283,85.639 71.742,85.639 C72.133,85.639 72.266,85.285 72.266,84.614 L72.266,84.459 L71.725,84.459 L71.725,83.69 L73.334,83.69 L73.334,86.311 L72.547,86.311 L72.52,85.842 L72.506,85.842 C72.328,86.281 71.897,86.404 71.451,86.404 C70.223,86.404 70.018,85.496 70.018,83.966 C70.018,82.366 70.129,81.325 71.756,81.325 C73.24,81.325 73.303,82.349 73.303,82.904 L72.201,82.908 L72.201,82.908 Z" id="Shape" fill="#231F20"></path>
                <polygon id="Shape" fill="#231F20" points="73.733 81.422 76.559 81.422 76.559 82.356 74.883 82.356 74.883 83.335 76.457 83.335 76.457 84.268 74.883 84.268 74.883 85.38 76.635 85.38 76.635 86.315 73.733 86.315 73.733 81.422"></polygon>
                <path d="M76.949,81.422 L78.879,81.422 C79.858,81.422 80.191,82.026 80.191,82.695 C80.191,83.408 79.906,83.756 79.372,83.883 L79.372,83.898 C80.101,84.002 80.143,84.46 80.159,85.119 C80.18,86.084 80.214,86.18 80.378,86.248 L80.378,86.309 L79.14,86.309 C79.052,86.147 79.017,85.871 79.017,85.319 C79.017,84.467 78.9,84.295 78.538,84.295 L78.099,84.295 L78.099,86.316 L76.952,86.316 L76.949,81.422 L76.949,81.422 Z M78.1,83.482 L78.455,83.482 C78.92,83.482 79.043,83.131 79.043,82.847 C79.043,82.476 78.906,82.23 78.446,82.23 L78.096,82.23 L78.1,83.482 L78.1,83.482 Z" id="Shape" fill="#231F20"></path>
                <polygon id="Shape" fill="#231F20" points="80.692 81.422 81.842 81.422 81.842 86.309 80.692 86.309"></polygon>
                <polygon id="Shape" fill="#231F20" points="82.369 81.422 85.194 81.422 85.194 82.356 83.516 82.356 83.516 83.335 85.09 83.335 85.09 84.268 83.516 84.268 83.516 85.38 85.266 85.38 85.266 86.315 82.369 86.315"></polygon>
                <polygon id="Shape" fill="#231F20" points="86.295 82.354 85.27 82.354 85.27 81.422 88.471 81.422 88.471 82.354 87.449 82.354 87.449 86.309 86.299 86.309"></polygon>
                <g transform="translate(38.000000, 90.000000)" id="Shape" fill="#000000">
                    <g>
                        <path d="M11.603,1.154 C13.809,0.922 15.511,2.662 15.191,4.82 C12.999,5.068 11.266,3.297 11.603,1.154 Z"></path>
                        <path d="M7.913,4.682 C7.461,7.11 5.902,8.194 3.684,7.668 C3.794,5.201 5.838,4.139 7.913,4.682 Z"></path>
                        <path d="M15.194,1.486 C17.417,1.252 18.992,2.832 18.862,5.117 C16.422,5.406 15.016,3.623 15.194,1.486 Z"></path>
                        <path d="M7.966,4.154 C5.763,4.455 4.217,2.924 4.257,0.513 C6.678,0.299 8.031,1.875 7.966,4.154 Z"></path>
                        <path d="M7.926,0.807 C10.315,0.742 11.708,2.149 11.59,4.465 C9.521,4.877 7.773,3.152 7.926,0.807 Z"></path>
                        <path d="M11.534,4.996 C11.271,7.31 9.563,8.519 7.346,8 C7.445,5.533 9.454,4.496 11.534,4.996 Z"></path>
                        <path d="M14.518,8.646 C14.937,6.209 16.751,4.976 18.793,5.708 C18.576,7.926 16.874,9.115 14.518,8.646 Z"></path>
                        <path d="M5.403,4.188 C3.768,5.785 1.627,5.606 0.251,3.766 C1.678,2.111 4.042,2.307 5.403,4.188 Z"></path>
                        <path d="M15.133,5.344 C15.144,7.469 13.281,8.817 10.997,8.332 C10.863,6.258 13.018,4.699 15.133,5.344 Z"></path>
                    </g>
                    <g transform="translate(20.000000, 0.000000)">
                        <path d="M7.946,8.297 C5.811,8.908 3.836,7.49 3.774,5.315 C5.891,4.688 7.906,6.131 7.946,8.297 Z"></path>
                        <path d="M10.969,4.186 C10.994,1.717 12.34,0.377 14.615,0.508 C14.934,2.955 13.106,4.357 10.969,4.186 Z"></path>
                        <path d="M4.354,8.596 C2.208,9.211 0.379,7.928 0.112,5.658 C2.463,4.949 4.158,6.461 4.354,8.596 Z"></path>
                        <path d="M11.008,4.711 C13.125,4.033 14.914,5.273 15.293,7.65 C12.946,8.285 11.34,6.969 11.008,4.711 Z"></path>
                        <path d="M11.629,8.004 C9.287,8.484 7.672,7.34 7.385,5.035 C9.35,4.27 11.371,5.666 11.629,8.004 Z"></path>
                        <path d="M7.348,4.502 C7.203,2.18 8.674,0.691 10.952,0.818 C11.281,3.262 9.483,4.633 7.348,4.502 Z"></path>
                        <path d="M3.774,1.426 C3.787,3.899 2.212,5.428 0.078,5.067 C-0.095,2.842 1.373,1.373 3.774,1.426 Z"></path>
                        <path d="M13.526,4.232 C14.858,2.379 17.002,2.179 18.674,3.753 C17.553,5.633 15.194,5.852 13.526,4.232 Z"></path>
                        <path d="M3.744,4.785 C3.362,2.693 4.965,1.047 7.297,1.125 C7.789,3.143 5.936,5.053 3.744,4.785 Z"></path>
                    </g>
                </g>
            </g>
        </g>
    </g>
</svg>