<?xml version="1.0" encoding="utf-8"?>
<!-- Generator: Adobe Illustrator 16.0.0, SVG Export Plug-In . SVG Version: 6.00 Build 0)  -->
<!DOCTYPE svg PUBLIC "-//W3C//DTD SVG 1.1//EN" "http://www.w3.org/Graphics/SVG/1.1/DTD/svg11.dtd">
<svg version="1.1" xmlns="http://www.w3.org/2000/svg" xmlns:xlink="http://www.w3.org/1999/xlink" x="0px" y="0px"
	 width="520.121px" height="118.199px" viewBox="0 0 520.121 118.199" enable-background="new 0 0 520.121 118.199"
	 xml:space="preserve">
<g id="Logotipo">
</g>
<g id="Isotipo">
	<g>
		<g>
			<path fill="#136BB0" d="M9.808,27.924l0.418-1.359c-0.234,0,1.841-3.188,1.608-3.188C-3.353,38.075-2.036,57.754,5.267,71.9
				c5.093,9.867,14.415,19.104,25.501,24.083c5.135,2.304,12.998,4.42,21.251,4.25c17.652-0.368,30.027-8.712,37.011-22.312
				l0.411-1.063c-6.163,6.212-16.207,10.526-24.084,11.333C32.581,91.549-1.137,62.188,9.808,27.924z"/>
			<path fill="#136BB0" d="M53.315,32.94c4.328,6.963,12.594,13.083,25.5,10.335c3.259-0.694,10.64-6.248,11.922-9.188
				c-11.064,7.53-17.929,5.008-21.18,4.052c-0.716-0.205-2.373-0.949-3.917-1.877c-3.428-2.062-5.122-3.004-7.792-6.885
				c-1.466-2.132-2.933-5.519-3.414-7.459c-0.794-3.209-0.574-8.146,0.935-12.396c-5.008,4.469-5.78,13.104-4.102,18.814
				C51.48,29.059,52.67,31.899,53.315,32.94z"/>
			<path fill="#136BB0" d="M56.857,69.773c17.326,2.317,30.247-4.965,34.709-16.291c-5.1,5.412-13.714,9.265-21.959,9.208
				c-18.438-0.121-39.158-16.64-36.834-39.668c0.198-1.983,0.991-5.093,3.116-9.124c-6.113,7.708-9.824,14.062-8.783,24.708
				C28.529,53.234,42.35,67.834,56.857,69.773z"/>
		</g>
		<g>
			<path d="M498.283,8.735l-31.289,43.331l-2.832-11.334h-20.543c0,0,2.039,10.314,3.541,15.584
				c1.488,5.206,4.137,10.391,4.25,15.584c0.129,5.941-2.982,17.1-2.982,17.1l19.984-0.1c0,0,2.152-10.704,4.25-15.584
				c0.828-1.941,2.465-3.506,3.541-4.958c3.314-4.483,43.918-59.502,43.918-59.502L498.283,8.735z"/>
			<path d="M456.93,20.338c-4.393-2.642-14.834-1.501-23.766-1.501H419.33c-8.664,0-13.793-0.574-14.67,2.769
				C401.953,31.935,390.492,88.9,390.492,88.9h18.418l12.041-52.418h9.918c11.475,0,32.562-0.312,32.562-0.312
				S460.959,22.769,456.93,20.338z"/>
			<path d="M386.418,25.913c-3.859-5.383-11.764-7.253-17-7.792c-13.904-1.423-25.479,2.296-31.875,7.084
				c-1.934,1.445-3.543,2.607-4.959,4.25c-0.51,0.595-1.062,1.261-1.537,1.948c-0.41,0.581-0.9,0.978-1.297,1.594
				c-0.588,0.892-1.211,2.579-1.947,4.073c-0.588,1.197-1.148,2.607-1.594,3.719c-3.84,9.591-7.756,27.491-4.25,36.834
				c0.518,1.382,1.672,3.131,2.068,3.662c0.496,0.666,0.949,1.438,1.473,2.004c1.92,2.069,4.762,3.528,7.793,4.25
				c15.35,3.662,46.043,2.125,46.043,2.125l3.762-16.659c0,0-21.721,0.978-32.096-0.341c-1.553-0.197-5.873-0.418-8.09-2.358
				c-1.928-1.687-4.201-5.674-2.535-8.267c1.182-1.849,5.941-1.297,9.916-1.416c12.785-0.391,36.125,0,36.125,0
				s4.471-19.877,2.125-28.334C387.963,30.206,387.453,27.351,386.418,25.913z M371.189,45.868L343.74,45.69
				c0,0-0.311-11.858,15.691-11.355c5.666,0.177,7.656,0.949,9.811,4.271C371.764,42.502,371.189,45.868,371.189,45.868z"/>
			<path d="M304.072,18.773L291.322,71.9c0,0-7.055,0.049-9.209,0c-6.799-0.156-9.031-0.383-10.625-3.543
				c-1.678-3.321-0.07-7.551,0.709-12.042c2.174-12.538,7.402-37.649,7.402-37.649l-18.502,0.17c0,0-3.522,16.129-5.193,24.02
				c-2.366,11.15-7.402,27.562-2.125,37.543c5.44,10.277,18.226,8.5,32.583,8.5h20.543c5.072-23.022,15.023-70.233,15.023-70.233
				L304.072,18.773z"/>
			<path d="M245.279,26.565c-1.09-7.919-6.254-16.526-11.921-20.131c-0.234-0.142-1.247-0.95-1.538-1.12
				c-4.193-2.429-10.908-4.477-15.583-4.958c-24.105-2.472-38.485,8.238-46.751,22.667c-3.252,5.667-5.405,11.858-7.084,18.418
				c-1.856,7.267-3.188,16.079-2.125,24.083c0.637,4.797,3.272,11.61,7.084,15.584c9.385,9.783,27.788,8.5,47.459,8.5
				c6.028,0,20.486-0.119,24.849-0.232c1.41-0.042,5.455-16.505,5.093-17.036c-0.347-0.411-5.164,0.163-10.66-0.333
				C239.492,57.768,247.32,41.398,245.279,26.565z M220.487,52.774c-1.785,6.326-3.542,12.722-5.667,18.417
				c-14.316-0.084-27.612,1.871-31.876-7.084c-2.408-5.064-1.325-11.921,0-18.417c1.778-8.749,3.478-15.103,8.501-20.543
				c3.881-4.2,13.649-9.35,24.084-5.666c3.463,1.225,8.833,7.055,9.208,13.458C225.084,38.926,222.357,46.13,220.487,52.774z"/>
			<path d="M134.775,35.774h19.834c1.254-5.355,2.444-11.497,3.634-16.916c-6.97,0-12.871-0.085-19.218-0.085
				C137.489,23.937,136.312,29.837,134.775,35.774z"/>
			<path d="M126.275,73.316c-2.925,13.756-3.308,28.037-18.417,26.209c-1.445,5.312-3.28,12.432-4.902,18.36
				c6.198,0.128,11.901,0.603,16.944,0.058c3.103-0.34,8.706-1.68,9.917-2.834c0.489-0.467,0.829-0.248,1.417-0.709
				c6.573-5.135,8.195-12.232,10.625-21.959c3.882-15.541,8.833-37.869,11.333-51.709h-19.125
				C133.098,43.92,127.968,65.369,126.275,73.316z"/>
		</g>
	</g>
</g>
</svg>
