<?xml version="1.0" encoding="UTF-8"?>
<svg width="139px" height="209px" viewBox="0 0 139 209" version="1.1" xmlns="http://www.w3.org/2000/svg" xmlns:xlink="http://www.w3.org/1999/xlink">
    <!-- Generator: Sketch 48.2 (47327) - http://www.bohemiancoding.com/sketch -->
    <title>Group</title>
    <desc>Created with Sketch.</desc>
    <defs></defs>
    <g id="Page-1" stroke="none" stroke-width="1" fill="none" fill-rule="evenodd">
        <g id="Group" fill="#404040" fill-rule="nonzero">
            <polygon id="Fill-244" points="69.459 0.0002 0 0.0002 0 70.2552 4.791 70.2552 4.791 4.7902 69.459 4.7902"></polygon>
            <polygon id="Fill-245" points="138.1172 139.3142 133.3262 139.3142 133.3262 203.5822 66.6642 203.5822 66.6642 208.3722 138.1172 208.3722"></polygon>
            <path d="M23.2617,38.6582 L25.8357,30.8582 L28.3377,38.6582 L23.2617,38.6582 Z M28.2227,26.3252 L23.5347,26.3252 L16.4577,46.1482 L20.7907,46.1482 L22.1357,42.0742 L29.4357,42.0742 L30.7437,46.1482 L35.2367,46.1482 L28.2227,26.3252 Z M26.0177,24.2152 C25.5757,24.2152 25.2007,24.0612 24.8867,23.7522 C24.5727,23.4452 24.4157,23.0722 24.4157,22.6332 C24.4157,22.1972 24.5727,21.8212 24.8867,21.5092 C25.2007,21.1972 25.5757,21.0402 26.0177,21.0402 C26.4547,21.0402 26.8317,21.1972 27.1387,21.5092 C27.4487,21.8212 27.6037,22.1972 27.6037,22.6332 C27.6037,23.0722 27.4487,23.4452 27.1387,23.7522 C26.8317,24.0612 26.4547,24.2152 26.0177,24.2152 Z M26.0237,19.7102 C25.2147,19.7102 24.5237,19.9962 23.9477,20.5692 C23.3707,21.1432 23.0837,21.8352 23.0837,22.6402 C23.0837,23.4472 23.3707,24.1372 23.9477,24.7122 C24.5237,25.2852 25.2147,25.5732 26.0237,25.5732 C26.8317,25.5732 27.5227,25.2852 28.0977,24.7122 C28.6737,24.1372 28.9607,23.4472 28.9607,22.6402 C28.9607,21.8352 28.6737,21.1432 28.0977,20.5692 C27.5227,19.9962 26.8317,19.7102 26.0237,19.7102 Z" id="Fill-246"></path>
            <path d="M45.4102,31.1411 C44.2612,31.1411 43.3302,31.4401 42.6112,32.0421 C42.1742,32.4001 41.6582,33.0681 41.0662,34.0451 L41.0662,31.4901 L37.4082,31.4901 L37.4082,46.1491 L41.2662,46.1491 L41.2662,39.1431 C41.2662,37.9681 41.4162,37.0981 41.7112,36.5341 C42.2402,35.5291 43.2772,35.0261 44.8182,35.0261 C44.9332,35.0261 45.0882,35.0311 45.2752,35.0421 C45.4632,35.0491 45.6792,35.0671 45.9202,35.0941 L45.9202,31.1671 C45.7522,31.1591 45.6402,31.1511 45.5922,31.1471 L45.4102,31.1411 Z" id="Fill-248"></path>
            <path d="M50.9648,37.3682 C51.1048,36.4142 51.4438,35.6572 51.9838,35.0972 C52.5268,34.5402 53.2888,34.2612 54.2738,34.2612 C55.1778,34.2612 55.9358,34.5242 56.5468,35.0512 C57.1578,35.5782 57.4978,36.3502 57.5688,37.3682 L50.9648,37.3682 Z M54.2718,31.1002 C52.1228,31.1002 50.3748,31.7772 49.0288,33.1322 C47.6838,34.4872 47.0098,36.4342 47.0098,38.9752 C47.0098,41.6842 47.7558,43.6412 49.2478,44.8432 C50.7378,46.0462 52.4598,46.6472 54.4098,46.6472 C56.7738,46.6472 58.6128,45.9342 59.9258,44.5092 C60.7698,43.6122 61.2438,42.7282 61.3488,41.8592 L57.4338,41.8592 C57.2048,42.2902 56.9418,42.6262 56.6448,42.8682 C56.0998,43.3162 55.3878,43.5402 54.5178,43.5402 C53.6938,43.5402 52.9878,43.3562 52.4018,42.9892 C51.4418,42.3972 50.9298,41.3662 50.8708,39.8962 L61.5468,39.8962 C61.5648,38.6302 61.5238,37.6602 61.4198,36.9862 C61.2418,35.8372 60.8538,34.8272 60.2518,33.9562 C59.5878,32.9672 58.7418,32.2442 57.7188,31.7882 C56.6968,31.3292 55.5458,31.1002 54.2718,31.1002 Z" id="Fill-250"></path>
            <path d="M67.8145,27.5359 L64.0235,27.5359 L64.0235,31.6259 L61.9795,31.6259 L61.9795,34.3549 L64.0235,34.3549 L64.0235,43.3789 C64.0235,44.2939 64.2385,44.9719 64.6695,45.4099 C65.2775,46.0429 66.3685,46.3589 67.9415,46.3589 C68.0845,46.3589 68.2305,46.3569 68.3805,46.3519 L70.1955,46.2839 L70.1955,43.4189 C70.0705,43.4279 69.9435,43.4359 69.8125,43.4389 C69.6835,43.4449 69.5585,43.4469 69.4435,43.4469 C68.6635,43.4469 68.1975,43.3719 68.0445,43.2259 C67.8905,43.0759 67.8145,42.7019 67.8145,42.1019 L67.8145,34.3549 L70.1955,34.3549 L70.1955,31.6259 L67.8145,31.6259 L67.8145,27.5359 Z" id="Fill-252"></path>
            <path d="M78.2793,31.0728 C76.3473,31.0728 74.8473,31.5598 73.7833,32.5328 C72.7183,33.5058 72.1853,34.6688 72.1853,36.0218 C72.1853,37.1698 72.5273,38.0488 73.2093,38.6578 C73.8883,39.2778 75.0643,39.7928 76.7283,40.2058 C79.0433,40.7528 80.3813,41.1378 80.7403,41.3628 C81.0973,41.5848 81.2793,41.9128 81.2793,42.3438 C81.2793,42.7928 81.0543,43.1278 80.6093,43.3518 C80.1643,43.5758 79.5623,43.6888 78.8043,43.6888 C77.5163,43.6888 76.6333,43.4318 76.1563,42.9228 C75.8863,42.6348 75.7113,42.1508 75.6293,41.4698 L71.7423,41.4698 C71.7423,42.9758 72.2933,44.2148 73.3943,45.1878 C74.4943,46.1598 76.1993,46.6468 78.5083,46.6468 C80.7713,46.6468 82.4453,46.1878 83.5273,45.2698 C84.6093,44.3498 85.1523,43.1638 85.1523,41.7108 C85.1523,40.6088 84.7753,39.6888 84.0213,38.9538 C83.2593,38.2288 82.1153,37.6868 80.5883,37.3278 C78.2973,36.8258 76.9633,36.4708 76.5863,36.2648 C76.2093,36.0678 76.0193,35.7488 76.0193,35.3098 C76.0193,34.9598 76.1973,34.6558 76.5523,34.3958 C76.9063,34.1358 77.5023,34.0048 78.3403,34.0048 C79.3553,34.0048 80.0743,34.2648 80.4963,34.7848 C80.7203,35.0718 80.8623,35.4618 80.9143,35.9558 L84.7483,35.9558 C84.5763,34.1618 83.9143,32.8998 82.7593,32.1688 C81.6053,31.4388 80.1113,31.0728 78.2793,31.0728" id="Fill-254"></path>
            <polygon id="Fill-257" points="30.7031 62.6267 26.5881 62.6267 23.4691 73.4387 20.4141 62.6267 16.1101 62.6267 21.3691 77.2857 25.4081 77.2857"></polygon>
            <path d="M37.6123,74.9585 C37.0823,74.9585 36.6353,74.8145 36.2653,74.5225 C35.8963,74.2295 35.7133,73.7575 35.7133,73.1035 C35.7133,72.3675 36.0133,71.8245 36.6193,71.4755 C36.9743,71.2705 37.5623,71.0935 38.3813,70.9515 L39.2543,70.7895 C39.6893,70.7085 40.0313,70.6225 40.2813,70.5265 C40.5333,70.4335 40.7793,70.3105 41.0253,70.1565 L41.0253,71.5825 C40.9983,72.8645 40.6333,73.7495 39.9253,74.2325 C39.2203,74.7165 38.4493,74.9585 37.6123,74.9585 M38.6723,62.2775 C36.1953,62.2775 34.4493,62.9235 33.4313,64.2135 C32.7933,65.0375 32.4313,66.0905 32.3513,67.3745 L36.0493,67.3745 C36.1403,66.8105 36.3223,66.3605 36.5953,66.0285 C36.9763,65.5805 37.6273,65.3565 38.5453,65.3565 C39.3613,65.3565 39.9823,65.4705 40.4043,65.6995 C40.8283,65.9275 41.0393,66.3435 41.0393,66.9435 C41.0393,67.4355 40.7643,67.7995 40.2133,68.0335 C39.9043,68.1665 39.3943,68.2795 38.6803,68.3695 L37.3673,68.5315 C35.8763,68.7185 34.7483,69.0325 33.9803,69.4715 C32.5803,70.2785 31.8813,71.5825 31.8813,73.3855 C31.8813,74.7755 32.3133,75.8475 33.1853,76.6065 C34.0563,77.3635 35.1583,77.7435 36.4943,77.7435 C37.5393,77.7435 38.4763,77.5045 39.3063,77.0315 C40.0023,76.6265 40.6153,76.1375 41.1463,75.5645 C41.1753,75.8965 41.2093,76.1925 41.2543,76.4525 C41.2983,76.7105 41.3793,76.9905 41.4963,77.2855 L45.6663,77.2855 L45.6663,76.7215 C45.4143,76.6035 45.2263,76.4565 45.0993,76.2785 C44.9743,76.0965 44.8983,75.7565 44.8733,75.2545 C44.8533,74.5905 44.8453,74.0275 44.8453,73.5595 L44.8453,66.8355 C44.8453,65.0685 44.2183,63.8685 42.9663,63.2295 C41.7153,62.5955 40.2833,62.2775 38.6723,62.2775" id="Fill-258"></path>
            <polygon id="Fill-260" points="51.918 57.5286 48.152 57.5286 48.152 77.2856 51.918 77.2856 51.918 72.6726 53.508 71.0216 57.059 77.2856 61.723 77.2856 56.266 68.1546 61.52 62.6926 56.754 62.6926 51.918 68.2236"></polygon>
            <path d="M71.4746,62.2771 C70.3266,62.2771 69.3946,62.5771 68.6756,63.1771 C68.2386,63.5361 67.7206,64.2041 67.1286,65.1811 L67.1286,62.6271 L63.4706,62.6271 L63.4706,77.2861 L67.3316,77.2861 L67.3316,70.2781 C67.3316,69.1041 67.4806,68.2331 67.7756,67.6701 C68.3046,66.6661 69.3396,66.1641 70.8826,66.1641 C70.9976,66.1641 71.1496,66.1661 71.3386,66.1781 C71.5276,66.1861 71.7426,66.2031 71.9846,66.2301 L71.9846,62.3041 C71.8156,62.2941 71.7046,62.2881 71.6576,62.2831 L71.4746,62.2771 Z" id="Fill-261"></path>
            <path d="M77.0273,68.5032 C77.1683,67.5482 77.5073,66.7932 78.0483,66.2342 C78.5893,65.6772 79.3533,65.3962 80.3383,65.3962 C81.2423,65.3962 82.0003,65.6602 82.6113,66.1882 C83.2213,66.7132 83.5623,67.4862 83.6313,68.5032 L77.0273,68.5032 Z M80.3363,62.2362 C78.1873,62.2362 76.4393,62.9132 75.0933,64.2702 C73.7483,65.6232 73.0753,67.5712 73.0753,70.1102 C73.0753,72.8202 73.8203,74.7762 75.3133,75.9802 C76.8023,77.1812 78.5233,77.7832 80.4743,77.7832 C82.8383,77.7832 84.6773,77.0712 85.9903,75.6462 C86.8343,74.7482 87.3083,73.8652 87.4123,72.9962 L83.4983,72.9962 C83.2693,73.4272 83.0063,73.7622 82.7093,74.0042 C82.1623,74.4522 81.4533,74.6772 80.5803,74.6772 C79.7583,74.6772 79.0523,74.4932 78.4663,74.1262 C77.5063,73.5342 76.9943,72.5022 76.9333,71.0312 L87.6113,71.0312 C87.6293,69.7662 87.5883,68.7962 87.4843,68.1222 C87.3063,66.9722 86.9183,65.9622 86.3163,65.0922 C85.6493,64.1042 84.8063,63.3822 83.7833,62.9232 C82.7613,62.4642 81.6113,62.2362 80.3363,62.2362 Z" id="Fill-263"></path>
            <path d="M95.1689,62.2097 C93.2379,62.2097 91.7399,62.6947 90.6759,63.6687 C89.6109,64.6417 89.0779,65.8057 89.0779,67.1577 C89.0779,68.3057 89.4199,69.1837 90.1019,69.7937 C90.7809,70.4137 91.9539,70.9277 93.6209,71.3407 C95.9359,71.8887 97.2729,72.2727 97.6319,72.4987 C97.9899,72.7217 98.1699,73.0507 98.1699,73.4797 C98.1699,73.9287 97.9469,74.2637 97.4999,74.4877 C97.0549,74.7127 96.4549,74.8247 95.6969,74.8247 C94.4079,74.8247 93.5249,74.5677 93.0489,74.0577 C92.7789,73.7707 92.6039,73.2877 92.5219,72.6047 L88.6349,72.6047 C88.6349,74.1117 89.1859,75.3517 90.2839,76.3247 C91.3849,77.2967 93.0929,77.7827 95.3999,77.7827 C97.6639,77.7827 99.3379,77.3247 100.4199,76.4047 C101.5019,75.4847 102.0419,74.2997 102.0419,72.8467 C102.0419,71.7457 101.6679,70.8247 100.9139,70.0907 C100.1529,69.3637 99.0079,68.8227 97.4809,68.4637 C95.1899,67.9617 93.8559,67.6067 93.4789,67.4007 C93.0999,67.2037 92.9119,66.8857 92.9119,66.4457 C92.9119,66.0947 93.0889,65.7907 93.4429,65.5317 C93.7989,65.2727 94.3949,65.1417 95.2309,65.1417 C96.2459,65.1417 96.9659,65.4007 97.3889,65.9197 C97.6129,66.2077 97.7519,66.5977 97.8069,67.0917 L101.6409,67.0917 C101.4689,65.2987 100.8069,64.0367 99.6519,63.3057 C98.4979,62.5757 97.0039,62.2097 95.1689,62.2097" id="Fill-265"></path>
            <path d="M109.1973,58.6729 L105.4063,58.6729 L105.4063,62.7609 L103.3613,62.7609 L103.3613,65.4899 L105.4063,65.4899 L105.4063,74.5149 C105.4063,75.4299 105.6213,76.1069 106.0513,76.5459 C106.6593,77.1779 107.7453,77.4949 109.3133,77.4949 C109.4593,77.4949 109.6093,77.4919 109.7633,77.4869 L111.5783,77.4199 L111.5783,74.5559 C111.4533,74.5649 111.3263,74.5709 111.1953,74.5759 C111.0663,74.5809 110.9413,74.5819 110.8263,74.5819 C110.0453,74.5819 109.5803,74.5079 109.4263,74.3609 C109.2733,74.2119 109.1973,73.8379 109.1973,73.2369 L109.1973,65.4899 L111.5783,65.4899 L111.5783,62.7609 L109.1973,62.7609 L109.1973,58.6729 Z" id="Fill-267"></path>
            <path d="M116.8379,68.5032 C116.9769,67.5482 117.3169,66.7932 117.8579,66.2342 C118.3999,65.6772 119.1619,65.3962 120.1469,65.3962 C121.0499,65.3962 121.8099,65.6602 122.4199,66.1882 C123.0289,66.7132 123.3709,67.4862 123.4419,68.5032 L116.8379,68.5032 Z M120.1469,62.2362 C117.9959,62.2362 116.2479,62.9132 114.9019,64.2702 C113.5569,65.6232 112.8829,67.5712 112.8829,70.1102 C112.8829,72.8202 113.6289,74.7762 115.1209,75.9802 C116.6109,77.1812 118.3319,77.7832 120.2829,77.7832 C122.6489,77.7832 124.4839,77.0712 125.7989,75.6462 C126.6429,74.7482 127.1169,73.8652 127.2209,72.9962 L123.3069,72.9962 C123.0779,73.4272 122.8159,73.7622 122.5179,74.0042 C121.9709,74.4522 121.2619,74.6772 120.3879,74.6772 C119.5669,74.6772 118.8609,74.4932 118.2749,74.1262 C117.3149,73.5342 116.8029,72.5022 116.7419,71.0312 L127.4209,71.0312 C127.4379,69.7662 127.3969,68.7962 127.2939,68.1222 C127.1149,66.9722 126.7279,65.9622 126.1279,65.0922 C125.4589,64.1042 124.6149,63.3822 123.5919,62.9232 C122.5699,62.4642 121.4199,62.2362 120.1469,62.2362 Z" id="Fill-269"></path>
            <path d="M21.8867,104.9785 L21.8867,99.6935 L26.7657,99.6935 C27.6157,99.7015 28.2777,99.8145 28.7477,100.0295 C29.5897,100.4145 30.0117,101.1225 30.0117,102.1555 C30.0117,103.3745 29.5757,104.1985 28.7087,104.6295 C28.2287,104.8625 27.5607,104.9785 26.7007,104.9785 L21.8867,104.9785 Z M21.8867,96.4115 L21.8867,92.0415 L26.1987,92.0415 C27.1487,92.0415 27.9297,92.1435 28.5427,92.3525 C29.2517,92.6445 29.6077,93.2555 29.6077,94.1795 C29.6077,95.0135 29.3377,95.5935 28.8027,95.9215 C28.2657,96.2485 27.5667,96.4115 26.7057,96.4115 L21.8867,96.4115 Z M27.5137,88.5985 L17.9337,88.5985 L17.9337,108.4225 L26.8667,108.4225 C27.8727,108.4225 28.8067,108.3305 29.6687,108.1525 C30.5277,107.9735 31.2727,107.6415 31.9077,107.1575 C32.4687,106.7365 32.9357,106.2155 33.3107,105.5975 C33.9007,104.6665 34.1937,103.6115 34.1937,102.4355 C34.1937,101.2985 33.9377,100.3295 33.4217,99.5315 C32.9067,98.7335 32.1427,98.1515 31.1307,97.7835 C31.7967,97.4425 32.3007,97.0665 32.6447,96.6555 C33.2557,95.9185 33.5607,94.9455 33.5607,93.7355 C33.5607,92.5615 33.2577,91.5515 32.6527,90.7105 C31.6427,89.3395 29.9297,88.6355 27.5137,88.5985 Z" id="Fill-271"></path>
            <path d="M44.1406,105.7458 C43.5116,105.7458 42.9906,105.6368 42.5786,105.4198 C42.3266,105.2838 42.0116,105.0318 41.6346,104.6598 L47.1996,98.7808 C47.3246,99.3718 47.4066,99.8078 47.4486,100.0888 C47.4886,100.3718 47.5066,100.7348 47.5066,101.1828 C47.5066,102.5078 47.2226,103.5998 46.6526,104.4578 C46.0816,105.3148 45.2446,105.7458 44.1406,105.7458 Z M40.9416,103.4748 C40.7886,103.1618 40.6836,102.7878 40.6206,102.3478 C40.5586,101.9098 40.5276,101.4708 40.5276,101.0318 C40.5276,99.6348 40.8356,98.5368 41.4526,97.7348 C42.0706,96.9338 42.9136,96.5328 43.9846,96.5328 C44.3546,96.5328 44.7326,96.5878 45.1196,96.6968 C45.7496,96.8808 46.2266,97.1758 46.5506,97.5788 L40.9416,103.4748 Z M50.9046,93.0028 L49.0486,94.9538 C48.3766,94.3958 47.6446,93.9788 46.8556,93.7028 C46.0666,93.4288 45.0356,93.2908 43.7596,93.2908 C41.5706,93.2908 39.8206,94.0378 38.5116,95.5308 C37.2036,97.0228 36.5466,98.8918 36.5466,101.1328 C36.5466,101.9388 36.6566,102.8248 36.8766,103.7878 C37.0956,104.7518 37.5146,105.6508 38.1326,106.4848 L36.2306,108.4268 L37.2206,109.2558 L39.0366,107.3478 C39.6386,107.8128 40.1986,108.1578 40.7186,108.3828 C41.6406,108.7768 42.6956,108.9738 43.8786,108.9738 C46.2616,108.9738 48.1346,108.2348 49.4926,106.7608 C50.8486,105.2878 51.5296,103.3688 51.5296,101.0018 C51.5296,100.1508 51.4116,99.2838 51.1736,98.4008 C50.9376,97.5178 50.5256,96.6878 49.9346,95.9088 L51.8516,93.8968 L50.9046,93.0028 Z" id="Fill-273"></path>
            <polygon id="Fill-276" points="57.998 88.6638 54.232 88.6638 54.232 108.4228 57.998 108.4228 57.998 103.8098 59.586 102.1578 63.137 108.4228 67.803 108.4228 62.346 99.2908 67.6 93.8288 62.832 93.8288 57.998 99.3588"></polygon>
            <path d="M72.3887,99.6392 C72.5277,98.6842 72.8677,97.9292 73.4097,97.3702 C73.9507,96.8122 74.7117,96.5332 75.6977,96.5332 C76.6017,96.5332 77.3597,96.7962 77.9707,97.3242 C78.5817,97.8492 78.9217,98.6222 78.9927,99.6392 L72.3887,99.6392 Z M75.6977,93.3722 C73.5477,93.3722 71.8007,94.0512 70.4547,95.4052 C69.1077,96.7592 68.4357,98.7062 68.4357,101.2462 C68.4357,103.9552 69.1797,105.9122 70.6717,107.1152 C72.1617,108.3172 73.8847,108.9192 75.8337,108.9192 C78.1997,108.9192 80.0367,108.2072 81.3497,106.7812 C82.1957,105.8842 82.6677,105.0012 82.7717,104.1332 L78.8577,104.1332 C78.6287,104.5632 78.3677,104.8972 78.0707,105.1392 C77.5237,105.5872 76.8147,105.8122 75.9407,105.8122 C75.1177,105.8122 74.4117,105.6292 73.8277,105.2622 C72.8657,104.6702 72.3537,103.6382 72.2947,102.1672 L82.9697,102.1672 C82.9907,100.9032 82.9497,99.9332 82.8447,99.2592 C82.6657,98.1082 82.2767,97.0992 81.6757,96.2282 C81.0117,95.2412 80.1647,94.5182 79.1447,94.0602 C78.1207,93.6002 76.9727,93.3722 75.6977,93.3722 Z" id="Fill-277"></path>
            <path d="M92.8721,93.4121 C91.7231,93.4121 90.7921,93.7131 90.0741,94.3131 C89.6351,94.6731 89.1201,95.3391 88.5271,96.3191 L88.5271,93.7621 L84.8691,93.7621 L84.8691,108.4221 L88.7281,108.4221 L88.7281,101.4141 C88.7281,100.2411 88.8771,99.3691 89.1721,98.8061 C89.7011,97.8011 90.7381,97.2991 92.2791,97.2991 C92.3951,97.2991 92.5471,97.3031 92.7361,97.3131 C92.9261,97.3221 93.1411,97.3391 93.3831,97.3661 L93.3831,93.4401 C93.2131,93.4301 93.1011,93.4231 93.0531,93.4201 L92.8721,93.4121 Z" id="Fill-279"></path>
            <path d="M23.1992,142.7148 C20.5862,142.7148 18.7692,143.6878 17.7462,145.6328 C17.2072,146.6548 16.9062,147.9958 16.8442,149.6548 L20.5702,149.6548 C20.6152,148.5598 20.7582,147.7638 21.0012,147.2618 C21.4222,146.3908 22.2152,145.9558 23.3812,145.9558 C24.2322,145.9558 24.8862,146.2298 25.3442,146.7768 C25.8012,147.3228 26.0312,148.0088 26.0312,148.8338 C26.0312,149.8478 25.6302,150.7798 24.8322,151.6308 C24.3122,152.1778 23.1702,153.0828 21.4042,154.3478 C19.3672,155.8018 18.0782,157.1768 17.5292,158.4768 C16.9662,159.6348 16.6642,160.9118 16.6292,162.3098 L29.9842,162.3098 L29.9842,158.9338 L21.4702,158.9338 C21.7132,158.5318 22.0122,158.1768 22.3652,157.8718 C22.7202,157.5668 23.3772,157.0748 24.3382,156.3928 L25.8732,155.3028 C27.1682,154.3888 28.0972,153.5598 28.6642,152.8148 C29.5252,151.6938 29.9572,150.4118 29.9572,148.9688 C29.9572,147.0848 29.3452,145.5738 28.1272,144.4288 C26.9062,143.2858 25.2622,142.7148 23.1992,142.7148" id="Fill-281"></path>
            <path d="M38.6719,159.6748 C37.5329,159.6748 36.7789,159.0798 36.4109,157.8908 C36.0449,156.7038 35.8609,154.9888 35.8609,152.7478 C35.8609,150.3988 36.0449,148.6598 36.4109,147.5298 C36.7789,146.3998 37.5329,145.8338 38.6719,145.8338 C39.8109,145.8338 40.5569,146.3998 40.9119,147.5298 C41.2659,148.6598 41.4429,150.3988 41.4429,152.7478 C41.4429,154.9888 41.2659,156.7038 40.9119,157.8908 C40.5569,159.0798 39.8109,159.6748 38.6719,159.6748 M38.6719,142.6748 C36.1899,142.6748 34.4469,143.5488 33.4469,145.2968 C32.4469,147.0448 31.9469,149.5278 31.9469,152.7478 C31.9469,155.9668 32.4469,158.4458 33.4469,160.1848 C34.4469,161.9248 36.1899,162.7938 38.6719,162.7938 C41.1559,162.7938 42.8969,161.9248 43.8969,160.1848 C44.8969,158.4458 45.3959,155.9668 45.3959,152.7478 C45.3959,149.5278 44.8969,147.0448 43.8969,145.2968 C42.8969,143.5488 41.1559,142.6748 38.6719,142.6748" id="Fill-283"></path>
            <path d="M56.8281,142.8086 L53.6271,142.8086 C53.6271,142.9776 53.5781,143.2386 53.4801,143.5896 C53.3071,144.1726 53.0581,144.6386 52.7281,144.9876 C52.2441,145.4986 51.6191,145.8396 50.8491,146.0106 C50.3671,146.1176 49.5231,146.1976 48.3141,146.2526 L48.3141,148.8606 L52.9011,148.8606 L52.9011,162.3096 L56.8281,162.3096 L56.8281,142.8086 Z" id="Fill-285"></path>
            <path d="M75.1582,143.0645 L64.4292,143.0645 L63.0602,153.8375 L66.4962,153.9985 C66.8002,153.4145 67.2542,153.0165 67.8512,152.8015 C68.1912,152.6865 68.5962,152.6265 69.0602,152.6265 C70.0432,152.6265 70.7672,152.9695 71.2342,153.6555 C71.6992,154.3415 71.9312,155.1825 71.9312,156.1775 C71.9312,157.1905 71.6832,158.0315 71.1852,158.6985 C70.6892,159.3675 69.9672,159.7015 69.0192,159.7015 C68.1972,159.7015 67.5702,159.4735 67.1402,159.0225 C66.7112,158.5685 66.4202,157.9265 66.2692,157.0915 L62.4492,157.0915 C62.5842,158.9195 63.2482,160.3345 64.4382,161.3285 C65.6292,162.3235 67.1522,162.8205 69.0062,162.8205 C71.3072,162.8205 73.0372,162.1125 74.1932,160.6965 C75.3472,159.2785 75.9262,157.6705 75.9262,155.8675 C75.9262,153.7965 75.3262,152.2195 74.1252,151.1335 C72.9262,150.0495 71.5192,149.5065 69.9082,149.5065 C69.1112,149.5065 68.4352,149.6085 67.8812,149.8155 C67.5492,149.9415 67.0882,150.1965 66.4962,150.5835 L67.1952,146.3195 L75.1582,146.3195 L75.1582,143.0645 Z" id="Fill-287"></path>
        </g>
    </g>
</svg>