<?xml version="1.0" encoding="UTF-8"?>
<svg width="154px" height="154px" viewBox="0 0 154 154" version="1.1" xmlns="http://www.w3.org/2000/svg" xmlns:xlink="http://www.w3.org/1999/xlink">
    <!-- Generator: Sketch 48.2 (47327) - http://www.bohemiancoding.com/sketch -->
    <title>Group</title>
    <desc>Created with Sketch.</desc>
    <defs></defs>
    <g id="Page-1" stroke="none" stroke-width="1" fill="none" fill-rule="evenodd">
        <g id="Group" fill-rule="nonzero">
            <path d="M153.674,76.837 C153.674,119.271 119.271,153.673 76.837,153.673 C34.402,153.673 0,119.271 0,76.837 C0,34.401 34.402,0 76.837,0 C119.271,0 153.674,34.401 153.674,76.837 Z" id="Fill-1-Copy" fill="#FFFFFF"></path>
            <path d="M121.874758,139.09578 C121.415942,137.973349 120.945553,136.857569 120.094993,135.48267 C118.381993,132.71467 117.321993,128.39867 115.613993,125.35567 C113.900993,122.31267 113.253993,119.81367 111.030993,118.06467 C108.803993,116.32067 107.949993,112.96767 105.964993,111.08367 C103.977993,109.19967 102.815993,106.70267 101.413993,105.81267 C100.011993,104.91967 98.6089926,101.98367 97.7189926,101.01867 C96.8239926,100.06567 96.4489926,97.9756697 96.1409926,98.0086697 C95.8329926,98.0426697 95.8999926,97.0156697 96.3809926,97.0156697 C96.8549926,97.0156697 97.2349926,96.4336697 97.2349926,96.4336697 C97.2349926,96.4336697 96.3449926,94.2776697 96.0059926,93.6596697 C95.6879926,93.0956697 95.3179926,91.4396697 95.5199926,90.0626697 C95.8669926,90.0346697 96.0789926,89.8976697 96.2439926,89.6906697 C96.2779926,89.8326697 96.4799926,89.9076697 96.5649926,89.7476697 C96.9009926,89.1006697 97.0669926,88.3786697 97.1269926,87.6486697 C97.4419926,87.1286697 97.6669926,86.8236697 97.8949926,86.5186697 C97.8739926,86.7356697 97.8479926,86.9526697 97.8329926,87.1726697 C97.8019926,87.4446697 97.7939926,87.5246697 97.7889926,87.6046697 C98.1019926,87.4336697 98.1539926,87.2216697 98.2059926,87.0146697 C98.6559926,86.5696697 99.0339926,86.0986697 99.3849926,85.5916697 C99.6239926,85.3586697 99.6439926,85.2556697 99.6679926,85.1576697 C99.8019926,84.9456697 99.9289926,84.7226697 100.057993,84.5056697 C100.246993,84.4586697 100.360993,84.3916697 100.464993,84.3266697 C101.434993,85.1316697 102.200993,84.2226697 102.722993,82.8126697 C103.097993,83.2996697 103.082993,82.9166697 103.009993,82.5206697 C103.726993,81.8036697 103.972993,80.8156697 104.226993,79.8146697 C104.101993,80.3856697 103.858993,81.2706697 103.587993,82.0726697 C103.499993,82.3416697 103.907993,82.4536697 104.003993,82.1946697 C104.094993,81.9696697 104.179993,81.7416697 104.280993,81.5196697 C104.202993,81.7986697 104.601993,81.9016697 104.684993,81.6436697 C104.911993,80.9506697 105.074993,80.1896697 105.186993,79.4186697 C105.263993,79.2296697 105.346993,79.0306697 105.426993,78.8286697 C105.281993,79.6046697 105.087993,80.3756697 104.932993,81.1566697 C105.134993,81.0976697 105.155993,80.9966697 105.180993,80.8956697 C104.984993,81.4416697 104.759993,81.9586697 104.611993,82.5186697 C105.532993,81.6076697 106.207993,80.4426697 106.715993,79.2316697 C106.888993,79.0326697 107.033993,78.6856697 107.136993,78.2276697 C107.838993,77.0856697 107.620993,75.2656697 107.556993,74.0596697 C107.685993,73.5186697 107.830993,73.0276697 107.977993,72.5196697 C108.011993,73.4926697 107.957993,74.4516697 107.680993,75.4116697 C108.479993,74.8156697 108.399993,73.3716697 108.404993,72.5096697 C108.410993,72.0216697 108.397993,71.5316697 108.363993,71.0426697 C108.467993,70.5956697 108.570993,70.1436697 108.674993,69.6856697 C108.811993,70.8226697 108.906993,71.9666697 109.051993,73.1066697 C109.087993,73.3636697 109.460993,73.3786697 109.470993,73.1066697 C109.525993,71.2596697 109.424993,69.4026697 109.082993,67.5946697 C109.119993,67.4096697 109.144993,67.2156697 109.181993,67.0306697 C109.509993,67.9136697 109.807993,68.8086697 110.141993,69.6826697 C110.262993,69.9876697 110.749993,69.8686697 110.640993,69.5446697 C110.226993,68.2846697 109.838993,67.0226697 109.357993,65.7876697 C109.460993,65.0616697 109.532993,64.3386697 109.594993,63.6256697 C109.628993,63.8026697 109.651993,63.9866697 109.657993,64.1746697 C109.672993,64.4576697 110.102993,64.4606697 110.097993,64.1746697 C110.081993,63.5116697 109.928993,62.8996697 109.672993,62.3306697 C110.151993,61.2386697 110.314993,60.1206697 110.487993,59.1026697 C110.813993,59.8766697 111.095993,60.6646697 111.359993,61.4456697 C111.426993,61.6436697 111.727993,61.5676697 111.675993,61.3576697 C111.416993,60.2716697 111.080993,59.2066697 110.645993,58.1866697 C110.863993,56.4706697 110.645993,54.7796697 110.200993,53.1056697 C109.988993,52.2836697 109.750993,51.4456697 109.393993,50.6586697 C109.261993,49.6656697 109.015993,48.6886697 108.710993,47.7946697 C108.327993,46.6506697 107.773993,45.5906697 107.105993,44.6106697 C107.491993,44.9726697 107.840993,45.3816697 108.135993,45.8076697 C108.490993,46.3306697 108.658993,46.9266697 109.072993,47.4196697 C108.852993,46.5346697 108.668993,45.7336697 108.200993,45.0236697 C107.848993,43.6986697 107.074993,42.4826697 106.513993,41.2536697 C105.835993,39.7726697 104.999993,38.3736697 103.887993,37.1786697 C103.783993,37.0726697 103.675993,36.9666697 103.561993,36.8626697 C103.064993,35.8026697 102.523993,34.9896697 101.739993,34.2156697 C102.544993,34.6246697 103.299993,35.1256697 104.001993,35.7606697 C105.527993,37.1386697 106.521993,39.0006697 107.328993,40.8646697 C107.424993,41.0866697 107.799993,40.9226697 107.714993,40.6996697 C106.627993,37.7556697 104.927993,35.3126697 102.327993,33.6996697 C103.504993,34.0006697 104.394993,34.5616697 105.408993,34.9916697 C104.596993,34.2106697 103.964993,33.6256697 102.924993,33.2516697 C101.793993,32.8546697 100.606993,32.6526697 99.4399926,32.3906697 C99.2359926,32.3246697 99.0309926,32.2636697 98.8209926,32.2026697 C98.3039926,31.9026697 97.7759926,31.5986697 97.2739926,31.2906697 C95.8279926,29.2326697 93.6779926,27.5456697 91.2949926,26.9466697 C91.0489926,26.8856697 90.7999926,26.8376697 90.5519926,26.8026697 C90.8209926,26.7666697 91.2869926,26.8406697 91.7319926,26.9246697 C92.9119926,27.1446697 94.0499926,27.5156697 95.1709926,27.9446697 C95.2919926,28.0826697 95.4109926,28.2236697 95.5299926,28.3686697 C96.5029926,29.5716697 97.4419926,30.8426697 98.9409926,31.4106697 C99.1939926,31.5056697 99.2919926,31.1056697 99.0489926,31.0096697 C97.7729926,30.4986697 96.9529926,29.4236697 96.1669926,28.3476697 C97.0489926,28.7106697 97.9159926,29.1006697 98.7849926,29.4726697 C97.7809926,28.7416697 96.7209926,28.1116697 95.6159926,27.5896697 C94.2989926,25.9176697 93.0099926,25.0586697 91.2579926,24.6356697 C90.5879926,24.4766697 89.9159926,24.4106697 89.2429926,24.4006697 C87.1159926,23.0566697 84.6729926,22.4846697 82.1089926,23.0756697 C81.2579926,22.7756697 80.3779926,22.5316697 79.5299926,22.3576697 C79.3869926,22.2666697 79.2529926,22.1816697 79.1049926,22.0976697 C78.2029926,21.5696697 77.2529926,21.3926697 76.2899926,21.4356697 C75.2519926,20.9606697 74.0269926,21.0796697 72.9149926,21.0186697 C72.0649926,20.9726697 71.2199926,21.0136697 70.3789926,21.1196697 C69.0309926,21.0296697 67.5919926,21.0846697 66.2779926,21.3746697 C64.9269926,21.6676697 63.6889926,22.3376697 62.5389926,23.1146697 C60.9629926,22.9976697 59.3659926,23.2156697 57.7989926,23.6296697 C56.5969926,23.9406697 55.6189926,24.5926697 54.7209926,25.3646697 C53.7509926,25.6236697 52.8029926,25.9636697 51.9809926,26.5726697 C51.1539926,26.8236697 50.4839926,27.5556697 49.8639926,28.1276697 C49.0589926,28.8826697 48.3699926,29.6516697 47.7919926,30.5996697 C46.8359926,32.1706697 46.3589926,34.3516697 46.9099926,36.1446697 C46.3479926,38.2196697 46.2929926,40.6166697 47.5749926,42.4016697 C47.0839926,43.4736697 46.5759926,44.6086697 46.3159926,45.3516697 C45.8019926,46.8286697 46.1809926,48.3646697 46.6919926,49.5966697 C47.2059926,50.8256697 46.6609926,52.7796697 44.9499926,54.8376697 C43.2409926,56.8876697 42.9629926,57.2676697 41.4919926,58.6656697 C40.0209926,60.0706697 38.0679926,61.5436697 38.0019926,62.8096697 C37.9329926,64.0756697 39.6739926,65.2396697 40.4319926,65.6836697 C41.1809926,66.1306697 42.8979926,66.6776697 42.9989926,66.9826697 C43.1019926,67.2936697 43.2719926,68.3876697 43.1369926,69.1046697 C42.9989926,69.8236697 42.3489926,70.2016697 42.0399926,70.9226697 C41.7299926,71.6406697 42.5489926,72.5626697 42.9959926,72.9416697 C43.4389926,73.3156697 44.3659926,73.5916697 44.2649926,73.8976697 C44.1619926,74.2056697 43.1369926,74.7166697 42.8269926,75.5386697 C42.5199926,76.3626697 43.1349926,77.0426697 43.6809926,77.8006697 C44.2289926,78.5546697 44.4319926,78.7606697 44.2979926,79.7186697 C44.1589926,80.6756697 43.8149926,81.1156697 43.3729926,82.4866697 C42.9299926,83.8606697 43.2689926,84.9526697 44.3379926,86.6266697 C45.3969926,88.3056697 48.1999926,88.7146697 50.2899926,89.2976697 C52.3779926,89.8766697 55.6619926,90.7336697 56.8579926,91.5536697 C58.0589926,92.3786697 57.8519926,94.3946697 58.2629926,96.0066697 C58.6729926,97.6186697 59.7329926,98.5416697 60.0409926,99.3256697 C60.3539926,100.10967 61.1429926,101.27667 61.1429926,101.27667 C61.1429926,101.27667 58.1299926,103.29267 56.7609926,104.25267 C56.6229926,104.85567 57.8209926,106.42567 58.9309926,107.79167 C58.2939926,108.46767 57.8659926,109.26467 57.9219926,110.20867 C58.0609926,111.30067 58.8799926,112.12367 59.4259926,113.08067 C59.8439926,113.91167 59.9449926,114.67267 59.9699926,115.46867 C59.0099926,117.08367 57.2089926,118.86867 56.3819926,121.05567 C55.4219926,123.58567 52.3089926,129.30467 51.8269926,130.46867 C51.3489926,131.62767 49.6729926,136.18367 49.5329926,137.48067 C49.3999926,138.77967 47.6879926,143.91767 47.5849926,144.04967 C47.5471475,144.101518 47.1114229,145.579888 46.5641769,147.479248 C19.1806365,135.728793 0,108.521994 0,76.837 C0,34.401 34.402,0 76.837,0 C119.271,0 153.674,34.401 153.674,76.837 C153.674,102.448525 141.141456,125.134102 121.874758,139.09578 Z" id="Combined-Shape" fill="#333333"></path>
        </g>
    </g>
</svg>