<?xml version="1.0" encoding="UTF-8"?>
<svg width="160px" height="154px" viewBox="0 0 160 154" version="1.1" xmlns="http://www.w3.org/2000/svg" xmlns:xlink="http://www.w3.org/1999/xlink">
    <!-- Generator: Sketch 48.2 (47327) - http://www.bohemiancoding.com/sketch -->
    <title>Combined-Shape</title>
    <desc>Created with Sketch.</desc>
    <defs></defs>
    <g id="Page-1" stroke="none" stroke-width="1" fill="none" fill-rule="evenodd">
        <path d="M126.89174,144.821667 C126.414037,143.653031 125.924284,142.49132 125.038711,141.059823 C123.255195,138.177878 122.15156,133.684209 120.37325,130.515944 C118.589735,127.347679 117.916101,124.745807 115.601591,122.92481 C113.282916,121.109018 112.393761,117.617991 110.327049,115.656436 C108.258254,113.694881 107.04842,111.095092 105.588706,110.168455 C104.128993,109.238695 102.668238,106.181834 101.741601,105.17711 C100.809758,104.18488 100.419322,102.008844 100.098643,102.043203 C99.7779638,102.078602 99.8477219,101.009326 100.348522,101.009326 C100.842035,101.009326 101.237677,100.403368 101.237677,100.403368 C101.237677,100.403368 100.31104,98.158616 99.9580854,97.515176 C99.6269949,96.9279589 99.2417638,95.2037895 99.4520792,93.7701052 C99.8133635,93.7409526 100.03409,93.598313 100.205883,93.3827918 C100.241282,93.5306373 100.451598,93.6087247 100.540097,93.4421382 C100.889928,92.7685044 101.062762,92.0167833 101.125231,91.2567328 C101.453198,90.7153269 101.687461,90.3977716 101.924846,90.0802162 C101.902982,90.3061491 101.875911,90.5320819 101.860294,90.7611382 C101.828018,91.0443351 101.819689,91.1276283 101.814483,91.2109215 C102.140367,91.0328823 102.194508,90.8121553 102.248649,90.5966341 C102.717173,90.1333157 103.110733,89.6429269 103.476182,89.1150562 C103.725021,88.8724648 103.745844,88.7652248 103.770832,88.6631906 C103.910348,88.4424636 104.042576,88.2102838 104.176887,87.984351 C104.373667,87.9354162 104.49236,87.8656582 104.600641,87.7979824 C105.610571,88.6361203 106.408103,87.6897013 106.951592,86.2216585 C107.342028,86.7287059 107.326411,86.3299397 107.250406,85.9176383 C107.996921,85.171123 108.253048,84.1424519 108.517504,83.1002457 C108.387358,83.6947509 108.134355,84.616182 107.852199,85.4511964 C107.760577,85.7312698 108.185372,85.8478803 108.285324,85.5782185 C108.38007,85.3439564 108.468569,85.1065707 108.573727,84.8754321 C108.492516,85.1659171 108.907941,85.2731572 108.994357,85.0045366 C109.230702,84.2830092 109.400412,83.4906826 109.517022,82.6879443 C109.597192,82.4911641 109.683609,82.2839723 109.766902,82.0736569 C109.615933,82.881601 109.413947,83.6843393 109.252566,84.4974892 C109.462882,84.4360604 109.484746,84.3309028 109.510775,84.2257451 C109.306707,84.7942212 109.072445,85.3325036 108.918352,85.915556 C109.877265,84.9670546 110.580052,83.7540973 111.108964,82.4932464 C111.289085,82.2860546 111.440054,81.9247703 111.547294,81.4479167 C112.278192,80.2589062 112.051218,78.3639858 111.984583,77.1083407 C112.118894,76.5450704 112.269863,76.0338584 112.422914,75.5049465 C112.458314,76.5180001 112.402091,77.5164774 112.113688,78.5159959 C112.945579,77.8954615 112.862286,76.3920192 112.867491,75.4945349 C112.873738,74.9864463 112.860203,74.4762754 112.824804,73.9671457 C112.933085,73.5017449 113.040325,73.0311383 113.148606,72.5542847 C113.291246,73.7380894 113.390156,74.9291822 113.541125,76.1161104 C113.578607,76.3836898 113.966962,76.3993073 113.977373,76.1161104 C114.034637,74.1930785 113.92948,72.259635 113.573401,70.3772086 C113.611924,70.184593 113.637954,69.982607 113.676477,69.7899915 C114.017979,70.7093402 114.328246,71.641183 114.675995,72.5511612 C114.801976,72.8687166 115.309024,72.7448179 115.195537,72.4074805 C114.764494,71.0956125 114.360522,69.7816622 113.859722,68.4958233 C113.966962,67.7399375 114.041926,66.9871751 114.106478,66.2448244 C114.141877,66.4291107 114.165824,66.620685 114.172071,66.8164241 C114.187689,67.1110738 114.63539,67.1141973 114.630184,66.8164241 C114.613525,66.1261316 114.454227,65.4889386 114.187689,64.8965157 C114.686407,63.7595634 114.856117,62.5955409 115.036238,61.5356349 C115.375658,62.3414966 115.669267,63.1619347 115.944134,63.9750846 C116.013892,64.1812353 116.327283,64.1021067 116.273142,63.8834621 C116.003481,62.7527568 115.653649,61.643916 115.200742,60.5819277 C115.427716,58.7952884 115.200742,57.0346783 114.737424,55.291768 C114.516697,54.4359303 114.2689,53.563434 113.897204,52.7440371 C113.75977,51.7101602 113.503643,50.6929419 113.186088,49.7621403 C112.787322,48.5710475 112.210516,47.4674125 111.515018,46.4470708 C111.916908,46.8239725 112.280274,47.249809 112.587418,47.6933453 C112.957032,48.2378747 113.131947,48.858409 113.56299,49.3717034 C113.333933,48.4502723 113.142359,47.6162991 112.655094,46.8770719 C112.288604,45.4975282 111.482742,44.2314715 110.898648,42.9518796 C110.192738,41.4099142 109.322324,39.9533243 108.164549,38.709132 C108.056268,38.5987685 107.943822,38.488405 107.825129,38.3801238 C107.30767,37.2764889 106.7444,36.4300217 105.928126,35.6241599 C106.766264,36.0499964 107.552344,36.5716201 108.283242,37.2327599 C109.87206,38.6674854 110.906978,40.6061348 111.747198,42.5468664 C111.84715,42.7780051 112.237587,42.607254 112.149088,42.3750742 C111.017341,39.3098842 109.247361,36.766318 106.540331,35.0869188 C107.765783,35.4003094 108.69242,35.984403 109.748161,36.432104 C108.902735,35.6189541 108.244719,35.0098725 107.161907,34.6204768 C105.984349,34.2071343 104.748486,33.9968189 103.533446,33.7240337 C103.321049,33.6553168 103.10761,33.5918057 102.888965,33.5282946 C102.350683,33.2159451 101.800948,32.899431 101.278283,32.5787521 C99.772758,30.4360344 97.5342531,28.6795889 95.0531568,28.0559311 C94.7970302,27.99242 94.5377801,27.9424441 94.2795711,27.9060033 C94.5596445,27.8685214 95.0448275,27.9455676 95.5081459,28.0330254 C96.7367207,28.2620818 97.9215665,28.648354 99.0887126,29.0950138 C99.2146935,29.2386946 99.3385922,29.3854989 99.4624908,29.5364678 C100.475544,30.7889894 101.453198,32.1123102 103.013905,32.7036919 C103.27732,32.8026026 103.379354,32.3861366 103.126351,32.2861847 C101.797824,31.7541494 100.944069,30.6348969 100.125713,29.5146033 C101.044021,29.8925462 101.946711,30.2986006 102.851483,30.685914 C101.806153,29.9248224 100.702518,29.2688884 99.552031,28.7254002 C98.1808166,26.9845722 96.8387549,26.0902114 95.0146337,25.6497986 C94.3170531,25.4842534 93.6173902,25.4155365 92.9166861,25.4051248 C90.702128,24.005799 88.1585617,23.4102526 85.4890145,24.0255811 C84.602983,23.7132316 83.6867578,23.4591873 82.8038498,23.2780246 C82.6549632,23.1832786 82.5154471,23.0947795 82.3613547,23.0073217 C81.4222238,22.4575865 80.433117,22.2733003 79.430475,22.3180704 C78.3497457,21.823517 77.0743185,21.9474156 75.9165429,21.8839046 C75.0315526,21.836011 74.1517681,21.8786988 73.2761483,21.9890622 C71.8726578,21.8953574 70.3744213,21.9526215 69.0063304,22.2545593 C67.5997164,22.5596207 66.310754,23.2572013 65.1134142,24.0661866 C63.4725381,23.9443702 61.8097975,24.1713442 60.1782918,24.6023866 C58.9268114,24.9261889 57.908552,25.6050285 56.9735857,26.4088079 C55.9636556,26.6784697 54.9766312,27.0324658 54.1207935,27.6665353 C53.25975,27.9278678 52.5621694,28.6900006 51.916647,29.285547 C51.0785092,30.0716266 50.3611464,30.8722826 49.759353,31.8593071 C48.7639992,33.4949774 48.2673635,35.7657584 48.8410454,37.6325673 C48.2559107,39.7929848 48.1986466,42.2886575 49.5334202,44.1471371 C49.0222082,45.2632661 48.4932963,46.4449884 48.2225934,47.2185741 C47.6874345,48.7563749 48.0820361,50.3556044 48.6140714,51.6383198 C49.1492303,52.9179116 48.5817953,54.9523482 46.8003619,57.0950659 C45.0210108,59.2294542 44.7315669,59.625097 43.2000131,61.0806457 C41.6684593,62.5434826 39.6350639,64.0771188 39.566347,65.3952338 C39.4945067,66.7133487 41.307175,67.9252649 42.0963782,68.3875421 C42.8762108,68.8529429 44.6638912,69.4224602 44.7690489,69.7400156 C44.8762889,70.0638179 45.0532869,71.2028525 44.9127296,71.9493678 C44.7690489,72.6979655 44.0922916,73.0915259 43.7705716,73.8422059 C43.4478104,74.5897624 44.3005246,75.5497166 44.7659254,75.9443182 C45.2271615,76.3337139 46.1923215,76.6210755 46.0871638,76.939672 C45.9799238,77.2603508 44.9127296,77.7923862 44.5899685,78.6482239 C44.2703308,79.5061439 44.9106473,80.2141361 45.4791234,81.0033392 C46.0496819,81.7883777 46.2610384,82.0028577 46.1215223,83.0002938 C45.9768003,83.9966888 45.6186396,84.4548014 45.1584446,85.8822387 C44.6972085,87.3127995 45.0501634,88.4497518 46.1631689,90.1926621 C47.2657627,91.9407782 50.1841484,92.3666147 52.3601833,92.973614 C54.534136,93.5764485 57.9533221,94.468727 59.1985555,95.3224823 C60.4489947,96.1814435 60.2334736,98.2804323 60.6613924,99.9587904 C61.0882701,101.637148 62.191905,102.598144 62.5125839,103.414417 C62.8384686,104.230691 63.6599478,105.445731 63.6599478,105.445731 C63.6599478,105.445731 60.5229174,107.544719 59.0975625,108.544238 C58.9538817,109.17206 60.2011974,110.806689 61.3568907,112.228921 C60.6936685,112.932749 60.2480499,113.762557 60.3063551,114.745417 C60.4510771,115.882369 61.3037912,116.739248 61.8722674,117.735643 C62.3074744,118.600851 62.412632,119.393178 62.4386612,120.221945 C61.4391427,121.903427 59.5640044,123.761906 58.7029609,126.038934 C57.7034425,128.673082 54.4622956,134.627505 53.9604541,135.839421 C53.4627772,137.046131 51.7177845,141.789679 51.5720214,143.140071 C51.4335464,144.492544 49.6510719,149.84205 49.5438319,149.979484 C49.5044289,150.033466 49.0507676,151.572693 48.4809942,153.550241 C19.9702086,141.316077 0,112.989309 0,80 C0,35.8171194 35.8181605,0 80,0 C124.180798,0 160,35.8171194 160,80 C160,106.665825 146.951553,130.285255 126.89174,144.821667 Z" id="Combined-Shape" fill="#333333" fill-rule="nonzero"></path>
    </g>
</svg>