<?xml version="1.0" encoding="UTF-8"?>
<svg width="52px" height="52px" viewBox="0 0 52 52" version="1.1" xmlns="http://www.w3.org/2000/svg" xmlns:xlink="http://www.w3.org/1999/xlink">
    <!-- Generator: Sketch 48.2 (47327) - http://www.bohemiancoding.com/sketch -->
    <title>Fill 304</title>
    <desc>Created with Sketch.</desc>
    <defs></defs>
    <g id="Page-7" stroke="none" stroke-width="1" fill="none" fill-rule="evenodd">
        <g id="cv-christoffer_bogsti" transform="translate(-69.000000, -912.000000)" fill="#FFFFFF">
            <path d="M88.0750452,946.748 C88.0750452,946.748 76.8170452,954.319 76.0400452,954.511 C75.8460452,954.511 80.8920452,959.753 81.2820452,959.753 C81.6690452,959.753 88.0750452,946.748 88.0750452,946.748 Z M101.468045,946.748 C101.274045,946.748 105.933045,961.113 105.933045,961.113 C106.128045,961.113 111.951045,957.619 111.757045,957.619 C111.562045,957.424 101.468045,946.748 101.468045,946.748 Z M93.7040452,961.499 C91.9570452,961.499 89.8220452,961.113 89.4340452,960.53 C89.0460452,959.753 88.8520452,959.17 89.0460452,958.395 C89.6270452,956.841 92.5390452,947.718 93.7040452,946.165 C94.4810452,945.195 94.4810452,945 95.2570452,945 C95.6450452,945 95.8390452,945.195 96.2280452,946.165 C97.5860452,949.271 99.1400452,955.872 99.3330452,958.589 C99.5280452,959.753 98.9450452,960.917 98.3630452,961.307 C97.1990452,961.499 95.2570452,961.499 93.7040452,961.499 Z M95.4510452,941.895 C93.3160452,941.895 92.7340452,944.224 92.3450452,945 C90.5980452,948.301 87.8810452,954.901 86.1340452,958.783 C85.7460452,959.947 85.9400452,961.307 86.9100452,961.695 C88.0750452,962.858 90.5980452,963.441 93.3160452,963.441 C94.0950452,963.487 94.8200452,963.511 95.4910452,963.511 C97.6620452,963.511 99.2660452,963.258 100.304045,962.665 C101.662045,962.081 101.662045,959.56 101.662045,959.56 C100.693045,954.123 99.5280452,949.271 97.7810452,943.836 C97.5860452,943.254 97.3920452,942.478 96.8100452,942.089 C96.6160452,941.895 95.8390452,941.895 95.4510452,941.895 Z M113.889045,950.876 C113.349045,950.876 112.974045,950.56 112.339045,950.242 C110.786045,949.465 104.575045,943.642 103.410045,942.089 C102.633045,941.12 102.051045,940.536 102.245045,940.147 C102.328045,939.898 102.624045,939.827 103.012045,939.827 C103.531045,939.827 104.213045,939.955 104.769045,939.955 C107.875045,939.955 113.697045,940.73 116.221045,941.312 C117.386045,941.505 117.774045,942.089 117.968045,942.866 C117.774045,943.836 117.580045,945.389 116.998045,946.941 C116.415045,948.688 115.056045,950.63 114.280045,950.826 C114.138045,950.86 114.010045,950.876 113.889045,950.876 Z M104.769045,938.013 C102.633045,938.013 100.693045,938.206 100.110045,938.595 C99.9150452,938.79 99.5280452,939.177 99.3330452,939.372 C98.7510452,940.536 100.886045,942.478 101.468045,943.06 C103.798045,945.971 108.846045,950.436 111.951045,952.766 C112.497045,953.313 113.106045,953.551 113.672045,953.551 C114.111045,953.551 114.523045,953.408 114.863045,953.153 C116.415045,952.184 118.163045,950.242 119.133045,947.718 C120.492045,944.613 120.492045,942.866 120.492045,941.312 C120.492045,940.147 118.163045,939.565 118.163045,939.565 C112.532045,938.595 110.398045,938.206 104.769045,938.013 Z M74.3810452,948.166 C73.7990452,948.166 73.2620452,948.046 72.9340452,947.718 C72.5470452,946.748 71.7700452,945.971 71.3820452,944.417 C70.9930452,942.671 70.6050452,940.73 70.9930452,939.955 C71.3820452,939.372 72.9340452,938.984 73.7110452,938.984 C75.4230452,938.713 77.6800452,938.568 79.8970452,938.568 C82.4550452,938.568 84.9620452,938.761 86.5210452,939.177 C87.6870452,939.372 87.8810452,939.76 87.8810452,939.955 C87.6870452,940.147 87.6870452,940.342 87.1050452,941.12 C85.5520452,942.478 79.1460452,946.36 76.6230452,947.718 C76.0620452,947.942 75.1780452,948.166 74.3810452,948.166 Z M73.9430452,936.603 C73.0660452,936.603 72.2630452,936.619 71.5750452,936.653 C70.2170452,936.653 69.4410452,937.431 69.0520452,938.4 C68.8570452,940.147 69.2450452,943.254 69.6350452,945 C70.2170452,947.524 71.5750452,949.465 72.7410452,950.436 C73.0320452,950.786 73.4450452,950.908 73.8810452,950.908 C74.8990452,950.908 76.0400452,950.242 76.0400452,950.242 C80.8920452,947.524 84.9690452,945.195 89.2390452,941.505 C89.6270452,941.12 90.2110452,940.73 90.4050452,940.147 L90.4050452,939.177 C90.2110452,937.819 87.6870452,937.431 86.7160452,937.431 C83.6810452,936.951 78.0170452,936.603 73.9430452,936.603 Z M94.8690452,935.295 C93.5100452,935.295 92.5390452,936.459 92.5390452,937.623 C92.5390452,939.177 93.5100452,940.342 95.0630452,940.342 C96.2280452,940.342 97.1990452,939.177 97.1990452,937.819 C97.1990452,936.071 96.2280452,935.295 94.8690452,935.295 Z M119.715045,929.861 C118.938045,930.443 106.903045,935.295 107.098045,935.295 L120.492045,935.876 L119.715045,929.861 Z M72.9340452,925.396 C71.3820452,928.696 70.2170452,931.219 70.4110452,931.219 L84.3870452,933.936 C84.3870452,933.936 73.5170452,925.978 72.9340452,925.396 Z M99.7520452,933.362 C99.5450452,933.362 99.4020452,933.297 99.3330452,933.159 C99.1400452,932.772 99.3330452,932.188 99.7220452,931.607 C100.693045,929.277 104.769045,922.678 107.487045,919.573 C107.875045,919.183 108.456045,918.602 108.846045,918.602 C109.234045,918.602 111.174045,919.96 111.757045,920.737 C111.951045,921.124 114.086045,923.842 114.086045,924.814 C114.086045,925.589 113.697045,925.783 112.727045,926.365 C111.368045,927.336 103.021045,931.996 101.468045,932.772 C100.718045,933.148 100.128045,933.362 99.7520452,933.362 Z M108.255045,916.066 C106.787045,916.066 105.544045,918.019 105.544045,918.019 C102.245045,922.29 99.5280452,926.172 97.3920452,931.996 C97.1990452,932.578 97.0040452,933.936 97.1990452,934.519 C97.1990452,934.712 97.3920452,935.102 97.5860452,935.295 C97.9010452,935.61 98.2980452,935.741 98.7570452,935.741 C99.7110452,935.741 100.934045,935.174 102.245045,934.519 C105.933045,932.965 112.532045,929.665 115.639045,927.725 C116.804045,926.949 117.192045,925.783 116.804045,925.007 C116.221045,922.484 115.250045,921.124 113.697045,919.183 C112.339045,917.436 110.010045,916.272 108.456045,916.078 C108.389045,916.07 108.322045,916.066 108.255045,916.066 Z M90.9870452,932.578 C90.7930452,932.578 90.5980452,932.578 89.8220452,931.996 C88.2680452,930.831 81.8640452,924.038 79.9230452,922.096 C79.3400452,921.124 79.3400452,920.543 79.7280452,919.96 C80.3110452,919.183 81.6690452,917.825 83.0280452,916.854 C84.3700452,916.016 86.2930452,915.032 87.4170452,915.031 C87.5930452,915.031 87.7490452,915.055 87.8810452,915.108 C88.4640452,915.301 89.0460452,915.688 89.4340452,916.662 C90.0160452,918.407 91.7630452,929.082 91.7630452,930.637 C91.7630452,931.801 91.3750452,932.578 90.9870452,932.578 Z M89.0460452,912.583 C87.1050452,912.973 84.5810452,913.555 82.0570452,915.108 C79.1460452,916.854 77.5930452,918.989 76.8170452,920.155 C76.2340452,921.513 77.9810452,923.26 77.9810452,923.26 C81.8640452,927.336 85.3570452,930.831 90.0160452,934.325 C90.4050452,934.712 90.9870452,935.102 91.5700452,935.102 C91.9570452,935.102 92.3450452,935.102 92.5390452,934.907 C93.7040452,934.325 93.5100452,931.414 93.5100452,930.443 C93.3160452,926.754 92.3450452,918.602 91.3750452,914.525 C90.9870452,913.165 90.2110452,912.583 89.0460452,912.583 Z M95.8390452,912.002 C95.8490452,912.097 96.0380452,915.689 96.2270452,919.282 C96.4190452,922.921 96.6110452,926.562 96.6160452,926.562 L96.6160452,926.56 C96.6160452,926.56 102.439045,913.165 102.245045,913.165 L95.8390452,912.002 Z M95.8390452,912 L95.8390452,912.002 C95.8390452,912.001 95.8390452,912 95.8390452,912 Z" id="Fill-304"></path>
        </g>
    </g>
</svg>