<?xml version="1.0" encoding="UTF-8"?>
<svg width="52px" height="52px" viewBox="0 0 52 52" version="1.1" xmlns="http://www.w3.org/2000/svg" xmlns:xlink="http://www.w3.org/1999/xlink">
    <!-- Generator: Sketch 48.2 (47327) - http://www.bohemiancoding.com/sketch -->
    <title>Fill-304</title>
    <desc>Created with Sketch.</desc>
    <defs></defs>
    <g id="Page-1" stroke="none" stroke-width="1" fill="none" fill-rule="evenodd">
        <g id="cada-black-logo" fill="#494949" fill-rule="nonzero">
            <path d="M19.0750452,34.748 C19.0750452,34.748 7.8170452,42.319 7.0400452,42.511 C6.8460452,42.511 11.8920452,47.753 12.2820452,47.753 C12.6690452,47.753 19.0750452,34.748 19.0750452,34.748 Z M32.468045,34.748 C32.274045,34.748 36.933045,49.113 36.933045,49.113 C37.128045,49.113 42.951045,45.619 42.757045,45.619 C42.562045,45.424 32.468045,34.748 32.468045,34.748 Z M24.7040452,49.499 C22.9570452,49.499 20.8220452,49.113 20.4340452,48.53 C20.0460452,47.753 19.8520452,47.17 20.0460452,46.395 C20.6270452,44.841 23.5390452,35.718 24.7040452,34.165 C25.4810452,33.195 25.4810452,33 26.2570452,33 C26.6450452,33 26.8390452,33.195 27.2280452,34.165 C28.5860452,37.271 30.1400452,43.872 30.3330452,46.589 C30.5280452,47.753 29.9450452,48.917 29.3630452,49.307 C28.1990452,49.499 26.2570452,49.499 24.7040452,49.499 Z M26.4510452,29.895 C24.3160452,29.895 23.7340452,32.224 23.3450452,33 C21.5980452,36.301 18.8810452,42.901 17.1340452,46.783 C16.7460452,47.947 16.9400452,49.307 17.9100452,49.695 C19.0750452,50.858 21.5980452,51.441 24.3160452,51.441 C25.0950452,51.487 25.8200452,51.511 26.4910452,51.511 C28.6620452,51.511 30.2660452,51.258 31.304045,50.665 C32.662045,50.081 32.662045,47.56 32.662045,47.56 C31.693045,42.123 30.5280452,37.271 28.7810452,31.836 C28.5860452,31.254 28.3920452,30.478 27.8100452,30.089 C27.6160452,29.895 26.8390452,29.895 26.4510452,29.895 Z M44.889045,38.876 C44.349045,38.876 43.974045,38.56 43.339045,38.242 C41.786045,37.465 35.575045,31.642 34.410045,30.089 C33.633045,29.12 33.051045,28.536 33.245045,28.147 C33.328045,27.898 33.624045,27.827 34.012045,27.827 C34.531045,27.827 35.213045,27.955 35.769045,27.955 C38.875045,27.955 44.697045,28.73 47.221045,29.312 C48.386045,29.505 48.774045,30.089 48.968045,30.866 C48.774045,31.836 48.580045,33.389 47.998045,34.941 C47.415045,36.688 46.056045,38.63 45.280045,38.826 C45.138045,38.86 45.010045,38.876 44.889045,38.876 Z M35.769045,26.013 C33.633045,26.013 31.693045,26.206 31.110045,26.595 C30.9150452,26.79 30.5280452,27.177 30.3330452,27.372 C29.7510452,28.536 31.886045,30.478 32.468045,31.06 C34.798045,33.971 39.846045,38.436 42.951045,40.766 C43.497045,41.313 44.106045,41.551 44.672045,41.551 C45.111045,41.551 45.523045,41.408 45.863045,41.153 C47.415045,40.184 49.163045,38.242 50.133045,35.718 C51.492045,32.613 51.492045,30.866 51.492045,29.312 C51.492045,28.147 49.163045,27.565 49.163045,27.565 C43.532045,26.595 41.398045,26.206 35.769045,26.013 Z M5.3810452,36.166 C4.7990452,36.166 4.2620452,36.046 3.9340452,35.718 C3.5470452,34.748 2.7700452,33.971 2.3820452,32.417 C1.9930452,30.671 1.6050452,28.73 1.9930452,27.955 C2.3820452,27.372 3.9340452,26.984 4.7110452,26.984 C6.4230452,26.713 8.6800452,26.568 10.8970452,26.568 C13.4550452,26.568 15.9620452,26.761 17.5210452,27.177 C18.6870452,27.372 18.8810452,27.76 18.8810452,27.955 C18.6870452,28.147 18.6870452,28.342 18.1050452,29.12 C16.5520452,30.478 10.1460452,34.36 7.6230452,35.718 C7.0620452,35.942 6.1780452,36.166 5.3810452,36.166 Z M4.9430452,24.603 C4.0660452,24.603 3.2630452,24.619 2.5750452,24.653 C1.2170452,24.653 0.4410452,25.431 0.0520452,26.4 C-0.1429548,28.147 0.2450452,31.254 0.6350452,33 C1.2170452,35.524 2.5750452,37.465 3.7410452,38.436 C4.0320452,38.786 4.4450452,38.908 4.8810452,38.908 C5.8990452,38.908 7.0400452,38.242 7.0400452,38.242 C11.8920452,35.524 15.9690452,33.195 20.2390452,29.505 C20.6270452,29.12 21.2110452,28.73 21.4050452,28.147 L21.4050452,27.177 C21.2110452,25.819 18.6870452,25.431 17.7160452,25.431 C14.6810452,24.951 9.0170452,24.603 4.9430452,24.603 Z M25.8690452,23.295 C24.5100452,23.295 23.5390452,24.459 23.5390452,25.623 C23.5390452,27.177 24.5100452,28.342 26.0630452,28.342 C27.2280452,28.342 28.1990452,27.177 28.1990452,25.819 C28.1990452,24.071 27.2280452,23.295 25.8690452,23.295 Z M50.715045,17.861 C49.938045,18.443 37.903045,23.295 38.098045,23.295 L51.492045,23.876 L50.715045,17.861 Z M3.9340452,13.396 C2.3820452,16.696 1.2170452,19.219 1.4110452,19.219 L15.3870452,21.936 C15.3870452,21.936 4.5170452,13.978 3.9340452,13.396 Z M30.7520452,21.362 C30.5450452,21.362 30.4020452,21.297 30.3330452,21.159 C30.1400452,20.772 30.3330452,20.188 30.7220452,19.607 C31.693045,17.277 35.769045,10.678 38.487045,7.573 C38.875045,7.183 39.456045,6.602 39.846045,6.602 C40.234045,6.602 42.174045,7.96 42.757045,8.737 C42.951045,9.124 45.086045,11.842 45.086045,12.814 C45.086045,13.589 44.697045,13.783 43.727045,14.365 C42.368045,15.336 34.021045,19.996 32.468045,20.772 C31.718045,21.148 31.128045,21.362 30.7520452,21.362 Z M39.255045,4.066 C37.787045,4.066 36.544045,6.019 36.544045,6.019 C33.245045,10.29 30.5280452,14.172 28.3920452,19.996 C28.1990452,20.578 28.0040452,21.936 28.1990452,22.519 C28.1990452,22.712 28.3920452,23.102 28.5860452,23.295 C28.9010452,23.61 29.2980452,23.741 29.7570452,23.741 C30.7110452,23.741 31.934045,23.174 33.245045,22.519 C36.933045,20.965 43.532045,17.665 46.639045,15.725 C47.804045,14.949 48.192045,13.783 47.804045,13.007 C47.221045,10.484 46.250045,9.124 44.697045,7.183 C43.339045,5.436 41.010045,4.272 39.456045,4.078 C39.389045,4.07 39.322045,4.066 39.255045,4.066 Z M21.9870452,20.578 C21.7930452,20.578 21.5980452,20.578 20.8220452,19.996 C19.2680452,18.831 12.8640452,12.038 10.9230452,10.096 C10.3400452,9.124 10.3400452,8.543 10.7280452,7.96 C11.3110452,7.183 12.6690452,5.825 14.0280452,4.854 C15.3700452,4.016 17.2930452,3.032 18.4170452,3.031 C18.5930452,3.031 18.7490452,3.055 18.8810452,3.108 C19.4640452,3.301 20.0460452,3.688 20.4340452,4.662 C21.0160452,6.407 22.7630452,17.082 22.7630452,18.637 C22.7630452,19.801 22.3750452,20.578 21.9870452,20.578 Z M20.0460452,0.583 C18.1050452,0.973 15.5810452,1.555 13.0570452,3.108 C10.1460452,4.854 8.5930452,6.989 7.8170452,8.155 C7.2340452,9.513 8.9810452,11.26 8.9810452,11.26 C12.8640452,15.336 16.3570452,18.831 21.0160452,22.325 C21.4050452,22.712 21.9870452,23.102 22.5700452,23.102 C22.9570452,23.102 23.3450452,23.102 23.5390452,22.907 C24.7040452,22.325 24.5100452,19.414 24.5100452,18.443 C24.3160452,14.754 23.3450452,6.602 22.3750452,2.525 C21.9870452,1.165 21.2110452,0.583 20.0460452,0.583 Z M26.8390452,0.002 C26.8490452,0.097 27.0380452,3.689 27.2270452,7.282 C27.4190452,10.921 27.6110452,14.562 27.6160452,14.562 L27.6160452,14.56 C27.6160452,14.56 33.439045,1.165 33.245045,1.165 L26.8390452,0.002 Z M26.8390452,0 L26.8390452,0.002 C26.8390452,0.001 26.8390452,0 26.8390452,0 Z" id="Fill-304"></path>
        </g>
    </g>
</svg>