<?xml version="1.0" encoding="UTF-8"?>
<svg width="157px" height="46px" viewBox="0 0 157 46" version="1.1" xmlns="http://www.w3.org/2000/svg" xmlns:xlink="http://www.w3.org/1999/xlink">
    <!-- Generator: Sketch 48.2 (47327) - http://www.bohemiancoding.com/sketch -->
    <title>Fill 291</title>
    <desc>Created with Sketch.</desc>
    <defs></defs>
    <g id="Page-6" stroke="none" stroke-width="1" fill="none" fill-rule="evenodd">
        <g id="Group-295" transform="translate(-87.000000, -4.000000)" fill="#4D4D4D">
            <path d="M163.9841,46.645 C162.1681,46.645 160.8141,45.571 160.8141,43.295 C160.8141,38.286 166.7471,37.058 168.9191,35.42 L168.9441,42.887 C168.9441,44.524 165.7491,46.645 163.9841,46.645 M167.2321,22.764 C164.5211,22.764 162.3991,23.352 159.8421,24.887 C157.3621,26.344 155.6741,28.645 155.6741,30.589 C155.6741,31.995 156.1611,32.533 157.1321,32.533 C159.6121,32.533 160.3271,31.202 160.3271,29.105 C160.3271,28.006 159.7901,27.111 160.6341,26.319 C161.4791,25.551 163.3441,25.065 164.5711,25.065 C166.3361,25.065 167.5381,25.603 168.2031,26.396 C168.8671,27.163 168.9191,28.749 169.0461,29.795 L169.0461,33.682 C168.0751,34.527 164.9301,35.983 162.2191,37.21 C157.4391,39.333 156.1611,41.737 156.1611,44.549 C156.1611,48.359 158.3341,49.56 159.7901,49.56 C161.1211,49.56 162.2191,49.56 163.3701,49.203 C166.0801,48.308 168.0751,47.03 169.3791,45.494 L169.5071,45.494 C170.0441,47.974 171.6291,49.56 173.8031,49.56 C176.8961,49.56 178.0471,47.49 178.5321,46.593 C178.8141,45.903 178.6861,45.598 178.5071,45.418 L177.9191,44.932 C177.8461,44.875 177.7831,44.849 177.7241,44.849 C177.5971,44.849 177.4881,44.97 177.3321,45.163 C177.0241,45.571 176.1801,46.058 175.2081,46.058 C174.1341,46.058 173.3931,44.958 173.3931,41.531 L173.3931,28.697 C173.3931,27.061 173.3411,25.679 172.0641,24.4 C171.2211,23.635 170.0691,22.764 167.2321,22.764 M150.3311,22.408 C147.7231,22.408 144.8851,24.887 143.0691,27.672 L142.8131,27.672 L142.5071,23.506 C142.5071,23.149 142.4561,22.791 142.0981,22.791 C141.8681,22.791 141.6121,22.841 141.2281,23.02 L135.2201,26.089 C134.8621,26.266 134.7341,26.396 134.7341,26.626 L134.7341,26.984 C134.7341,27.213 134.8621,27.291 135.2201,27.394 L136.3711,27.981 C138.0581,28.901 138.5441,29.489 138.5441,32.582 L138.5441,38.259 C138.5441,41.43 138.5441,43.527 138.4921,45.521 C138.4921,46.288 138.0841,46.67 137.1631,46.67 L134.8111,46.67 C134.2741,46.67 134.1201,46.799 134.1201,47.208 L134.1201,48.23 C134.1201,48.717 134.2491,48.819 134.4791,48.819 C134.8371,48.819 137.3681,48.64 141.1261,48.64 C144.4001,48.64 147.1861,48.819 147.5441,48.819 C147.8001,48.819 147.8761,48.64 147.8761,48.282 L147.8761,47.208 C147.8761,46.85 147.8261,46.67 147.4671,46.67 L144.6291,46.67 C143.3501,46.67 142.9411,46.083 142.9411,44.192 L142.9411,31.483 C142.9411,31.305 143.1721,30.23 143.5561,29.541 C144.5781,27.598 146.1641,27.009 147.1091,27.009 C147.9021,27.009 148.6171,27.188 149.1021,27.495 C149.6151,27.724 150.2031,27.981 150.8681,27.981 C151.9671,27.981 153.3981,26.78 153.3981,25.015 C153.3981,23.686 152.4011,22.408 150.3311,22.408 M222.3051,4.994 C221.9471,4.994 221.5891,5.122 221.0531,5.48 C218.8031,6.937 216.0671,8.011 213.9701,9.009 C213.6131,9.137 213.4331,9.238 213.4331,9.419 L213.4331,9.904 C213.4331,10.031 213.4841,10.082 213.7911,10.21 L215.0191,10.62 C216.9621,11.208 217.9071,12.179 218.0351,14.251 C218.1631,15.836 218.2141,21.333 218.2141,25.627 L218.2141,29.437 C218.2141,32.966 218.2141,43.372 218.1631,45.239 C218.1121,46.34 217.4981,46.748 216.8351,46.748 L213.9441,46.748 C213.2801,46.748 213.1781,46.875 213.1781,47.284 L213.1781,48.308 C213.1781,48.666 213.3061,48.895 213.5871,48.895 C214.1241,48.895 216.5521,48.717 220.4131,48.717 C224.1721,48.717 226.8311,48.895 227.2401,48.895 C227.4701,48.895 227.5971,48.666 227.5971,48.308 L227.5971,47.284 C227.5971,46.952 227.4701,46.774 226.9341,46.774 L224.1971,46.774 C222.9191,46.774 222.6891,45.93 222.6381,44.908 C222.5611,43.041 222.5611,33.887 222.5611,30.744 L222.5611,25.348 C222.5611,22.024 222.7401,9.444 222.7921,6.094 C222.8421,5.328 222.7401,4.994 222.3051,4.994 M238.4911,4.994 C238.1321,4.994 237.7741,5.122 237.2121,5.48 C234.9621,6.937 232.2251,8.011 230.1291,9.009 C229.7711,9.137 229.5921,9.238 229.5921,9.419 L229.5921,9.904 C229.5921,10.031 229.6431,10.082 229.9501,10.21 L231.1771,10.62 C233.1211,11.208 234.0661,12.179 234.1951,14.251 C234.3231,15.836 234.3741,21.333 234.3741,25.627 L234.3741,29.437 C234.3741,32.966 234.3741,43.372 234.3231,45.239 C234.2711,46.34 233.6321,46.748 232.9931,46.748 L230.0791,46.748 C229.4131,46.748 229.2851,46.875 229.2851,47.284 L229.2851,48.308 C229.2851,48.666 229.4131,48.895 229.6951,48.895 C230.2311,48.895 232.6601,48.717 236.5211,48.717 C240.2801,48.717 242.9391,48.895 243.3481,48.895 C243.5781,48.895 243.7061,48.666 243.7061,48.308 L243.7061,47.284 C243.7571,46.952 243.6551,46.774 243.0921,46.774 L240.3571,46.774 C239.0781,46.774 238.8491,45.93 238.7971,44.908 C238.7461,43.041 238.7461,33.887 238.7461,30.744 L238.7461,25.348 C238.7461,22.024 238.8991,9.444 238.9761,6.094 C239.0261,5.328 238.9241,4.994 238.4911,4.994 M200.5981,4.969 C197.5801,4.969 192.9021,6.376 189.6551,9.98 C187.0461,12.819 185.1301,16.45 185.1301,22.459 L185.1301,23.48 L181.6261,23.48 C181.1401,23.48 180.9611,23.531 180.9101,23.89 L180.6801,25.755 C180.6301,26.114 180.8081,26.344 181.0891,26.344 L185.1551,26.344 L185.1551,44.575 C185.1041,46.083 184.8481,46.697 183.9271,46.697 L180.7821,46.697 C180.2961,46.697 180.1691,46.826 180.1691,47.106 L180.1691,48.436 C180.1431,48.819 180.2711,48.947 180.6041,48.947 C181.0891,48.947 183.4421,48.769 187.5071,48.769 C191.4441,48.769 193.2601,48.947 193.6181,48.947 C193.8471,48.947 193.9751,48.717 193.9751,48.359 L193.9751,47.284 C193.9751,46.927 193.8471,46.799 193.3881,46.799 L190.6771,46.799 C189.7051,46.799 189.6031,46.083 189.6031,45.215 C189.4761,44.549 189.4761,38.975 189.4761,31.817 L189.4761,26.421 L196.8391,26.421 C201.1341,26.421 201.9271,27.394 201.9271,30.946 L201.9271,45.368 C201.8761,46.441 201.5441,46.774 200.9561,46.774 L198.5271,46.774 C198.1171,46.774 197.9391,46.901 197.9391,47.259 L197.9391,48.461 C197.9391,48.819 198.1171,48.947 198.4241,48.947 C199.0121,48.947 200.7761,48.769 204.3561,48.769 C208.1671,48.769 209.6741,48.947 210.1601,48.947 C210.5181,48.947 210.6461,48.769 210.6461,48.41 L210.6461,47.336 C210.6461,46.978 210.5181,46.799 210.1091,46.799 L207.5021,46.799 C206.6061,46.799 206.3511,46.312 206.3511,45.215 C206.3001,44.549 206.3001,42.35 206.3001,39.998 L206.3001,33.401 C206.3001,27.955 206.3001,24.121 206.4791,23.098 C206.5301,22.688 206.5301,22.381 206.1211,22.381 C205.7631,22.381 205.4561,22.509 204.8931,22.612 C202.7711,23.098 200.5471,23.506 198.2451,23.506 L189.4761,23.506 L189.4761,22.305 C189.4761,18.188 189.6031,13.228 192.4421,10.134 C193.7201,8.677 195.4071,8.011 197.0441,8.011 C198.5011,8.011 199.3451,8.729 200.1121,9.827 C201.3901,11.463 202.4131,12.179 203.8191,12.179 C205.1491,12.179 206.7081,11.208 206.6581,9.213 C206.6581,7.041 203.9471,4.969 200.5981,4.969 M111.5951,4.944 C104.3341,4.944 98.8871,7.014 94.5921,10.697 C90.1181,14.686 87.7651,20.565 87.7651,26.062 C87.7651,33.376 89.6311,38.541 93.3141,42.708 C97.4811,47.668 104.8711,49.662 110.2651,49.662 C117.0421,49.662 121.9001,48.256 126.8081,45.777 C127.3971,45.545 127.7801,45.291 127.7801,44.804 C127.7801,44.319 127.5251,43.73 127.5251,42.862 L127.5251,34.859 C127.5251,32.993 128.3161,32.558 129.3901,32.558 L131.7431,32.558 C132.1011,32.558 132.1521,32.328 132.1521,32.071 L132.1521,30.614 C132.1521,30.385 132.1011,30.206 131.6661,30.206 C130.8221,30.206 128.8791,30.385 124.5321,30.385 C120.4161,30.385 117.7051,30.206 116.8371,30.206 C116.5301,30.206 116.4781,30.333 116.4781,30.691 L116.4781,32.2 C116.4781,32.43 116.6071,32.558 116.8881,32.558 L119.4181,32.558 C121.2341,32.558 121.9001,33.145 121.9001,35.345 L121.9001,39.82 C121.9001,42.963 121.6701,44.293 120.2631,45.138 C118.1401,46.364 115.1751,47.208 110.3421,47.208 C106.4051,47.208 102.6971,45.802 99.6801,42.912 C95.9221,39.333 93.9271,33.094 93.9271,25.96 C93.9271,20.515 95.9981,15.478 99.2711,12.027 C102.8771,8.139 106.6351,7.116 110.8541,7.116 C116.2981,7.116 120.0581,9.827 121.8741,12.078 C123.9961,14.686 125.0181,17.522 125.4791,19.211 C125.5301,19.518 125.7091,19.697 125.9641,19.697 L127.0641,19.569 C127.2941,19.569 127.3711,19.338 127.3711,19.031 L127.2181,7.475 C127.2181,7.067 127.0901,6.759 126.6801,6.759 C126.3211,6.759 126.0671,7.067 125.8361,7.295 L124.9421,8.395 C124.7361,8.657 124.5371,8.807 124.2941,8.807 C124.0851,8.807 123.8431,8.695 123.5351,8.446 C121.4631,6.886 116.8111,4.944 111.5951,4.944" id="Fill-291"></path>
        </g>
    </g>
</svg>