<?xml version="1.0" encoding="UTF-8"?>
<svg width="131px" height="52px" viewBox="0 0 131 52" version="1.1" xmlns="http://www.w3.org/2000/svg" xmlns:xlink="http://www.w3.org/1999/xlink">
    <!-- Generator: Sketch 48.2 (47327) - http://www.bohemiancoding.com/sketch -->
    <title>Group 224</title>
    <desc>Created with Sketch.</desc>
    <defs></defs>
    <g id="Page-5" stroke="none" stroke-width="1" fill="none" fill-rule="evenodd">
        <g id="cv-christoffer_bogsti" transform="translate(-6.000000, -719.000000)">
            <g id="Group-224" transform="translate(6.000000, 719.000000)">
                <path d="M104.5261,25.9712 C104.5261,25.0582 104.8501,24.2222 105.3891,23.5712 L123.4681,2.0342 C123.5091,1.9812 123.5531,1.9312 123.5981,1.8802 L123.6571,1.8082 L123.6591,1.8102 C124.3481,1.0662 125.3311,0.5962 126.4251,0.5962 C128.5061,0.5962 130.1931,2.2832 130.1931,4.3642 C130.1931,5.2952 129.8531,6.1472 129.2931,6.8052 L129.2981,6.8082 L113.2041,25.9612 L129.2221,45.0562 C129.2861,45.1262 129.3461,45.1982 129.4041,45.2732 L129.4511,45.3292 L129.4481,45.3322 C129.9151,45.9592 130.1941,46.7342 130.1941,47.5762 C130.1941,49.6572 128.5071,51.3442 126.4261,51.3442 C125.2631,51.3442 124.2241,50.8162 123.5321,49.9882 L123.5271,49.9932 L105.3901,28.3702 C104.8501,27.7192 104.5261,26.8822 104.5261,25.9712" id="Fill-216" fill="#3B3B3D"></path>
                <path d="M112.1023,25.9712 C112.1023,25.0582 111.7783,24.2222 111.2393,23.5712 L93.1603,2.0342 C93.1183,1.9812 93.0743,1.9312 93.0313,1.8802 L92.9713,1.8082 L92.9693,1.8102 C92.2803,1.0662 91.2973,0.5962 90.2033,0.5962 C88.1223,0.5962 86.4353,2.2832 86.4353,4.3642 C86.4353,5.2952 86.7753,6.1472 87.3353,6.8052 L87.3303,6.8082 L103.4243,25.9612 L87.4063,45.0562 C87.3433,45.1262 87.2823,45.1982 87.2253,45.2732 L87.1773,45.3292 L87.1803,45.3322 C86.7143,45.9592 86.4353,46.7342 86.4353,47.5762 C86.4353,49.6572 88.1223,51.3442 90.2033,51.3442 C91.3663,51.3442 92.4053,50.8162 93.0973,49.9882 L93.1023,49.9932 L111.2393,28.3702 C111.7783,27.7192 112.1023,26.8822 112.1023,25.9712" id="Fill-218" fill="#69F0AD"></path>
                <path d="M69.2285,2.3436 C69.2285,1.3196 68.4575,0.5476 67.4335,0.5476 C66.3465,0.5476 65.5565,1.3026 65.5565,2.3436 L65.5565,30.2366 C65.5565,41.9466 59.1055,48.9366 48.3015,48.9366 C37.4475,48.9366 30.9675,41.7956 30.9675,29.8336 L30.9675,2.3436 C30.9675,1.3196 30.1945,0.5476 29.1715,0.5476 C28.0845,0.5476 27.2945,1.3026 27.2945,2.3436 L27.2945,30.2366 C27.2945,44.1976 34.6985,51.8866 48.1415,51.8866 C61.7385,51.8866 69.2275,44.0256 69.2275,29.7536 L69.2275,2.3436 L69.2285,2.3436 Z" id="Fill-220" fill="#3B3B3D"></path>
                <path d="M1.8754,51.4034 C2.8994,51.4034 3.6724,50.6314 3.6724,49.6084 L3.6724,2.3434 C3.6724,1.3194 2.8994,0.5474 1.8754,0.5474 C0.7884,0.5474 0.0004,1.3024 0.0004,2.3434 L0.0004,49.6084 C0.0004,50.6484 0.7884,51.4034 1.8754,51.4034" id="Fill-222" fill="#3B3B3D"></path>
            </g>
        </g>
    </g>
</svg>