<?xml version="1.0" encoding="UTF-8"?>
<svg width="15px" height="15px" viewBox="0 0 15 15" version="1.1" xmlns="http://www.w3.org/2000/svg" xmlns:xlink="http://www.w3.org/1999/xlink">
    <!-- Generator: Sketch 48.2 (47327) - http://www.bohemiancoding.com/sketch -->
    <title>bogsti-logo-fill</title>
    <desc>Created with Sketch.</desc>
    <defs></defs>
    <g id="Page-1" stroke="none" stroke-width="1" fill="none" fill-rule="evenodd">
        <g id="bogsti-logo-fill" fill-rule="nonzero">
            <path d="M14.9682468,7.48412338 C14.9682468,11.6173052 11.6173052,14.9681494 7.48412338,14.9681494 C3.35084416,14.9681494 0,11.6173052 0,7.48412338 C0,3.35074675 3.35084416,0 7.48412338,0 C11.6173052,0 14.9682468,3.35074675 14.9682468,7.48412338 Z" id="Fill-1-Copy" fill="#FFFFFF"></path>
            <path d="M11.870918,13.5482903 C11.8262281,13.4389626 11.780411,13.3302827 11.6975643,13.196364 C11.5307136,12.9267536 11.4274669,12.506364 11.2611032,12.2099679 C11.0942526,11.9135718 11.0312331,11.6701627 10.8147071,11.4998055 C10.5977915,11.3299354 10.5146097,11.0033445 10.3212656,10.819838 C10.1277266,10.6363315 10.0145448,10.3931172 9.87798633,10.3064289 C9.74142789,10.2194484 9.60477201,9.93347435 9.51808369,9.83948084 C9.43090837,9.74665617 9.3943824,9.54308471 9.3643824,9.546299 C9.3343824,9.54961069 9.34090837,9.44957822 9.38775902,9.44957822 C9.43392785,9.44957822 9.47094084,9.39288991 9.47094084,9.39288991 C9.47094084,9.39288991 9.38425253,9.18288991 9.35123305,9.1226951 C9.32025902,9.06776004 9.28422006,8.90646133 9.30389538,8.77233796 C9.33769408,8.76961069 9.35834344,8.75626653 9.37441486,8.73610419 C9.37772655,8.74993536 9.39740188,8.75724056 9.4056811,8.74165614 C9.43840837,8.67863666 9.4545772,8.60831198 9.46042136,8.53720809 C9.49110318,8.48655874 9.51301876,8.45685094 9.53522655,8.42714315 C9.5331811,8.44827952 9.53064863,8.46941588 9.52918759,8.49084445 C9.52616811,8.51733796 9.52538889,8.52513017 9.52490188,8.53292237 C9.55538889,8.51626653 9.56045382,8.49561718 9.56551876,8.47545484 C9.60934993,8.43211069 9.64616811,8.38623406 9.68035642,8.33685094 C9.70363564,8.31415614 9.70558369,8.30412367 9.70792136,8.29457822 C9.72097331,8.27392887 9.73334344,8.25220809 9.74590841,8.23107172 C9.7643175,8.2264938 9.7754214,8.21996783 9.78555127,8.21363666 C9.88003179,8.29204575 9.95464218,8.20350679 10.0054863,8.06616913 C10.0420123,8.11360419 10.0405513,8.076299 10.0334409,8.03772757 C10.1032785,7.96788991 10.1272396,7.87165614 10.1519798,7.77415614 C10.1398045,7.82977302 10.1161357,7.91597432 10.0897396,7.9940912 C10.0811681,8.0202925 10.1209084,8.03120159 10.1302591,8.00597432 C10.1391227,7.98405874 10.1474019,7.96185094 10.1572396,7.94022757 C10.1496422,7.96740289 10.1885058,7.97743536 10.1965902,7.95230549 C10.2187006,7.88480549 10.2345772,7.81068211 10.2454863,7.73558471 C10.2529863,7.71717562 10.2610707,7.6977925 10.268863,7.67811718 C10.2547396,7.75370159 10.2358435,7.828799 10.2207461,7.90487043 C10.2404214,7.89912367 10.2424669,7.88928601 10.2449019,7.87944835 C10.225811,7.93263017 10.2038954,7.98298731 10.1894798,8.03753276 C10.2791876,7.948799 10.3449344,7.83532497 10.3944149,7.71737043 C10.4112656,7.69798731 10.4253889,7.66418861 10.4354214,7.61957822 C10.503798,7.50834445 10.4825643,7.33107172 10.4763305,7.21360419 C10.4888954,7.16090939 10.5030188,7.11308471 10.517337,7.06360419 C10.5206487,7.15837692 10.5153889,7.25178601 10.4884084,7.3452925 C10.5662331,7.28724056 10.5584409,7.1465912 10.5589279,7.06263017 C10.5595123,7.0150977 10.5582461,6.96737043 10.5549344,6.91974056 C10.5650643,6.87620159 10.5750967,6.83217562 10.5852266,6.78756523 C10.5985707,6.89831198 10.607824,7.00974056 10.6219474,7.12077952 C10.6254539,7.14581198 10.661785,7.14727302 10.6627591,7.12077952 C10.6681162,6.94087692 10.6582785,6.7600003 10.6249669,6.5838964 C10.6285707,6.56587692 10.6310058,6.54698081 10.6346097,6.52896133 C10.6665578,6.61496783 10.6955837,6.70214315 10.7281162,6.78727302 C10.7399019,6.81698081 10.787337,6.80538991 10.7767201,6.77383146 C10.7363954,6.65110419 10.6986032,6.52818211 10.6517526,6.40788991 C10.661785,6.33717562 10.668798,6.26675354 10.674837,6.19730549 C10.6781487,6.21454575 10.6803889,6.23246783 10.6809733,6.25077952 C10.6824344,6.27834445 10.7243175,6.27863666 10.7238305,6.25077952 C10.722272,6.18620159 10.7073694,6.1265912 10.6824344,6.07116913 C10.7290902,5.96480549 10.7449669,5.85590939 10.7618175,5.75675354 C10.7935707,5.83214315 10.8210383,5.9088964 10.8467526,5.98496783 C10.8532785,6.00425354 10.8825967,5.99685094 10.8775318,5.9763964 C10.8523045,5.87061718 10.8195772,5.76688341 10.7772071,5.66753276 C10.7984409,5.50038991 10.7772071,5.33568211 10.733863,5.17263017 C10.7132136,5.09256523 10.6900318,5.01094185 10.6552591,4.93428601 C10.6424019,4.83756523 10.6184409,4.74240289 10.5887331,4.65532497 C10.5514279,4.5438964 10.4974669,4.44064965 10.4324019,4.3451951 C10.4699993,4.38045484 10.5039928,4.4202925 10.5327266,4.46178601 C10.5673045,4.51272757 10.5836681,4.57077952 10.6239928,4.618799 C10.6025643,4.5325977 10.5846422,4.45457822 10.5390578,4.38542237 C10.504772,4.25636393 10.4293824,4.13792237 10.3747396,4.01821458 C10.3087006,3.87396133 10.227272,3.7376951 10.1189604,3.621299 C10.1088305,3.61097432 10.098311,3.60064965 10.0872071,3.59051978 C10.038798,3.48727302 9.98610321,3.40808471 9.90973958,3.3326951 C9.98814867,3.37253276 10.0616876,3.42133146 10.1300643,3.48318211 C10.2787006,3.61740289 10.3755188,3.79876653 10.4541227,3.98032497 C10.4634733,4.00194835 10.4999993,3.98597432 10.4917201,3.96425354 C10.3858435,3.6775003 10.2202591,3.43954575 9.96701231,3.28243536 C10.0816552,3.31175354 10.1683435,3.3663964 10.2671097,3.40827952 C10.1880188,3.33220809 10.1264604,3.27522757 10.0251617,3.238799 C9.91499932,3.20013017 9.79938244,3.18045484 9.68571356,3.15493536 C9.66584344,3.14850679 9.6458759,3.14256523 9.62542136,3.13662367 C9.57506421,3.10740289 9.52363564,3.0777925 9.47473954,3.0477925 C9.33389538,2.84733796 9.1244798,2.68301978 8.89236941,2.62467562 C8.86840837,2.61873406 8.84415512,2.61405874 8.81999928,2.61064965 C8.84620058,2.60714315 8.89159019,2.61435094 8.93493434,2.62253276 C9.04986941,2.64396133 9.16071356,2.6800977 9.26990188,2.72188341 C9.28168759,2.73532497 9.2932785,2.74905874 9.30486941,2.76318211 C9.39964214,2.88035744 9.49110318,3.00415614 9.63710967,3.05948081 C9.66175253,3.06873406 9.67129798,3.02977302 9.64762915,3.02042237 C9.52334344,2.97064965 9.44347331,2.86594185 9.36691486,2.76113666 C9.45282395,2.7964938 9.53727201,2.83448081 9.62191486,2.87071458 C9.52412266,2.79951328 9.4208759,2.73814965 9.31324603,2.68730549 C9.18496681,2.52444835 9.05941486,2.44077952 8.88876551,2.39957822 C8.82350577,2.3840912 8.75805123,2.37766263 8.69249928,2.37668861 C8.48532395,2.24577952 8.24736941,2.19006523 7.99762915,2.24763017 C7.91473954,2.21840939 7.82902525,2.19464315 7.74642785,2.1776951 C7.73249928,2.16883146 7.71944733,2.16055224 7.70503175,2.15237043 C7.6171746,2.10094185 7.52464214,2.08370159 7.43084344,2.08788991 C7.32973954,2.04162367 7.21042136,2.05321458 7.10210967,2.04727302 C7.01931746,2.0427925 6.93701227,2.04678601 6.85509668,2.05711069 C6.72379798,2.04834445 6.58363564,2.05370159 6.45564863,2.08194835 C6.32405772,2.11048731 6.20347331,2.17574705 6.09146032,2.25142887 C5.93795382,2.24003276 5.78240188,2.26126653 5.62977201,2.3015912 C5.51269408,2.33188341 5.41743434,2.39538991 5.32996681,2.47058471 C5.23548629,2.49581198 5.14314863,2.52892887 5.06308369,2.58824705 C4.98253175,2.6126951 4.91727201,2.6839938 4.8568824,2.73970809 C4.77847331,2.81324705 4.71136292,2.88814965 4.65506421,2.98048731 C4.56194733,3.13350679 4.51548629,3.34594185 4.56915512,3.52058471 C4.51441486,3.7226951 4.50905772,3.95616913 4.63392785,4.13003276 C4.58610318,4.23444835 4.53662266,4.3450003 4.51129798,4.41737043 C4.46123305,4.56123406 4.49814863,4.71084445 4.54792136,4.83084445 C4.59798629,4.95055224 4.54490188,5.14087692 4.37824603,5.34133146 C4.21178499,5.54100679 4.18470707,5.57801978 4.04142785,5.71418861 C3.89814863,5.85103926 3.70792136,5.99451328 3.70149279,6.11782497 C3.69477201,6.24113666 3.86434993,6.35451328 3.9381811,6.39776004 C4.01113564,6.441299 4.1783759,6.49457822 4.18821356,6.52428601 C4.19824603,6.55457822 4.21480447,6.66113666 4.20165512,6.73097432 C4.18821356,6.80100679 4.12490188,6.83782497 4.09480447,6.90805224 C4.06460967,6.97798731 4.1443824,7.0677925 4.18792136,7.10470809 C4.23107071,7.14113666 4.32136292,7.16801978 4.31152525,7.19782497 C4.30149279,7.22782497 4.20165512,7.2775977 4.17146032,7.35766263 C4.14155772,7.43792237 4.20146032,7.50415614 4.25464214,7.57798731 C4.30801876,7.65142887 4.32779149,7.6714938 4.31473954,7.76480549 C4.30120058,7.85801978 4.26769408,7.90087692 4.22464214,8.03441588 C4.18149279,8.16824705 4.21451227,8.27461069 4.31863564,8.43766263 C4.42178499,8.60120159 4.69480447,8.64103926 4.8983759,8.69782497 C5.10175253,8.75422107 5.42162266,8.8376951 5.53811616,8.91756523 C5.65509668,8.99792237 5.63493434,9.19428601 5.67496681,9.351299 C5.71490188,9.50831198 5.81814863,9.59821458 5.84814863,9.67457822 C5.87863564,9.75094188 5.95548629,9.86461071 5.95548629,9.86461071 C5.95548629,9.86461071 5.66201227,10.0609744 5.52866811,10.1544808 C5.51522655,10.2132146 5.63191486,10.3661367 5.74003175,10.4991886 C5.67798629,10.5650328 5.63629798,10.6426627 5.64175253,10.7346107 C5.65529149,10.8409744 5.73506421,10.9211367 5.78824603,11.014351 C5.82896032,11.0952925 5.83879798,11.1694159 5.84123305,11.2469484 C5.74772655,11.4042536 5.57230447,11.5781172 5.49175253,11.7911367 C5.39824603,12.0375653 5.09503175,12.5946107 5.04808369,12.7079873 C5.00152525,12.8208769 4.8382785,13.2646432 4.82464214,13.3909744 C4.81168759,13.5175003 4.64493434,14.0179549 4.63490188,14.030812 C4.63121567,14.0358621 4.58877496,14.1798592 4.53547178,14.3648618 C1.86824381,13.220337 0,10.5703241 0,7.48412338 C0,3.35074675 3.35084416,0 7.48412338,0 C11.6173052,0 14.9682468,3.35074675 14.9682468,7.48412338 C14.9682468,9.97875244 13.7475444,12.1883866 11.870918,13.5482903 Z" id="Combined-Shape" fill="#333333"></path>
        </g>
    </g>
</svg>