<?xml version="1.0" encoding="UTF-8"?>
<svg width="1076px" height="217px" viewBox="0 0 1076 217" version="1.1" xmlns="http://www.w3.org/2000/svg" xmlns:xlink="http://www.w3.org/1999/xlink">
    <!-- Generator: Sketch 48.2 (47327) - http://www.bohemiancoding.com/sketch -->
    <title>id-clas</title>
    <desc>Created with Sketch.</desc>
    <defs></defs>
    <g id="Page-1" stroke="none" stroke-width="1" fill="none" fill-rule="evenodd">
        <g id="id-clas" fill="#59ACCF">
            <path d="M167.718,78.938 C167.718,52.913 167.718,26.943 167.718,0 C179.905,0 191.8,0 204.059,0 C204.059,70.693 204.059,141.938 204.059,214.044 C194.933,214.044 185.858,214.127 176.791,213.903 C175.971,213.883 174.789,211.999 174.479,210.799 C173.406,206.635 172.645,202.392 171.68,197.775 C170.83,198.249 170.197,198.418 169.839,198.828 C156.288,214.348 138.741,218.441 119.163,216.353 C89.289,213.167 70.372,192.977 63.996,165.49 C57.812,138.832 59.335,112.799 73.345,88.537 C90.536,58.765 131.528,49.901 157.843,70.141 C161.216,72.734 164.223,75.803 167.718,78.938 Z M97.003,138.472 C97.096,150.012 98.062,161.422 102.469,172.255 C107.547,184.735 116.327,192.363 130.25,193.052 C144.321,193.749 154.195,187.214 160.37,174.958 C167.907,159.998 168.467,143.907 167.077,127.653 C166.188,117.264 163.601,107.309 157.734,98.486 C150.682,87.882 141.135,81.647 127.997,82.943 C115.354,84.19 107.814,92.217 103.039,103.296 C98.202,114.518 97.072,126.41 97.003,138.472 Z" id="Shape"></path>
            <path d="M431.332,213.558 C419.007,213.558 407.265,213.558 395.178,213.558 C395.178,163.314 395.178,113.238 395.178,62.345 C404.338,62.345 413.438,62.222 422.523,62.524 C423.491,62.556 424.876,64.955 425.209,66.447 C426.275,71.237 426.939,76.116 427.654,80.338 C434.783,75.272 441.273,69.387 448.809,65.56 C466.611,56.521 498.191,55.491 515.258,78.975 C523.617,90.476 527.102,103.621 527.261,117.487 C527.618,148.644 527.407,179.808 527.409,210.97 C527.409,211.761 527.216,212.553 527.081,213.58 C515.091,213.58 503.349,213.58 490.97,213.58 C490.97,211.241 490.977,209.12 490.969,206.998 C490.867,177.339 491.001,147.675 490.461,118.024 C490.353,112.066 488.659,105.674 486.017,100.31 C477.817,83.664 458.957,80.896 444.494,93.768 C436.553,100.835 431.715,109.743 431.6,120.427 C431.289,149.418 431.393,178.413 431.332,207.407 C431.328,209.361 431.332,211.315 431.332,213.558 Z" id="Shape"></path>
            <path d="M976.085,140.303 C961.966,141.235 948.872,142.579 935.756,142.856 C915.275,143.286 894.778,143.097 874.29,142.919 C870.019,142.882 868.908,144.216 869.26,148.373 C870.11,158.403 871.479,168.23 876.489,177.185 C883.53,189.771 894.712,194.096 908.458,192.92 C921.121,191.836 929.699,185.081 934.475,173.379 C934.915,172.301 935.333,171.213 935.808,170.15 C935.933,169.87 936.232,169.667 936.756,169.096 C947.352,170.518 958.194,171.974 970.321,173.601 C967.764,178.653 965.867,183.354 963.175,187.545 C953.978,201.866 940.623,210.621 924.204,214.168 C900.07,219.381 877.1,217.106 857.067,200.993 C846.864,192.786 840.521,181.853 836.899,169.493 C830.606,148.012 830.563,126.405 837.661,105.082 C846.76,77.746 868.609,61.436 897.385,59.944 C915.815,58.989 933.37,61.614 948.475,73.164 C964.541,85.449 971.83,102.624 974.549,122.073 C975.35,127.8 975.54,133.61 976.085,140.303 Z M937.552,121.657 C938.175,98.883 922.489,82.079 901.704,82.809 C880.95,83.538 870.365,105.114 870.876,121.657 C893.102,121.657 915.332,121.657 937.552,121.657 Z" id="Shape"></path>
            <path d="M372.431,139.764 C336.222,144.71 301.059,142.266 265.391,143.182 C265.907,158.643 267.457,173.188 278.472,184.784 C290.229,197.16 321.405,198.15 330.794,173.342 C331.313,171.972 331.901,170.629 332.557,169.029 C343.643,170.525 354.474,171.986 367.018,173.678 C363.288,180.141 360.507,186.101 356.703,191.314 C348.68,202.305 337.643,209.266 324.637,213.068 C306.128,218.479 287.739,217.993 269.787,210.922 C251.563,203.743 239.749,190.086 233.954,171.724 C225.86,146.078 226.149,120.437 237.816,95.777 C247.642,75.007 264.806,63.818 287.302,60.707 C302.367,58.624 317.268,59.423 331.439,65.519 C353.786,75.133 365.22,93.262 369.786,116.262 C371.291,123.851 371.559,131.687 372.431,139.764 Z M334.458,121.701 C332.539,107.427 329.017,94.342 315.909,86.804 C304.97,80.514 293.365,80.8 282.842,87.933 C271.144,95.862 268.039,108.324 266.384,121.702 C289.33,121.701 311.546,121.701 334.458,121.701 Z" id="Shape"></path>
            <path d="M544.132,62.307 C553.34,62.307 561.627,62.307 570.718,62.307 C570.718,54.297 570.718,46.701 570.718,39.104 C570.718,28.049 570.718,28.049 581.64,28.049 C589.775,28.049 597.91,28.049 606.79,28.049 C606.79,39.498 606.79,50.535 606.79,62.288 C615.458,62.288 623.409,62.583 631.326,62.18 C636.276,61.928 637.662,63.659 637.329,68.385 C636.936,73.973 637.237,79.611 637.237,85.696 C626.956,85.696 617.354,85.696 607.299,85.696 C607.183,87.768 607.014,89.383 607.013,90.997 C606.999,118.648 607.005,146.301 607.009,173.952 C607.009,174.785 607.02,175.618 607.048,176.45 C607.491,189.596 610.879,192.896 623.932,192.903 C628.084,192.905 632.237,192.904 637.178,192.904 C637.178,200.117 637.245,207.044 637.082,213.966 C637.064,214.725 635.717,216.112 635.005,216.1 C621.57,215.879 607.917,218.013 594.82,213.597 C579.113,208.3 570.86,196.345 570.768,178.892 C570.62,150.742 570.72,122.589 570.716,94.438 C570.715,85.762 570.713,85.782 562.308,84.543 C557.534,83.84 552.787,82.92 547.996,82.367 C545.137,82.037 543.953,80.92 544.074,77.934 C544.278,72.977 544.132,68.005 544.132,62.307 Z" id="Shape"></path>
            <path d="M1045.001,62.288 C1053.684,62.288 1061.658,62.509 1069.612,62.198 C1073.857,62.033 1075.655,63.051 1075.335,67.669 C1074.936,73.435 1075.239,79.249 1075.239,85.569 C1065.112,85.569 1055.536,85.569 1045.402,85.569 C1045.246,87.798 1045.018,89.538 1045.017,91.279 C1044.996,118.598 1045.003,145.917 1045.005,173.235 C1045.005,173.735 1045.007,174.235 1045.014,174.734 C1045.227,189.755 1048.378,192.901 1063.216,192.903 C1067.007,192.903 1070.798,192.903 1074.906,192.903 C1074.906,200.812 1074.906,208.213 1074.906,216.357 C1059.73,215.486 1044.642,218.536 1030.225,212.608 C1018.128,207.634 1011.156,198.477 1009.248,185.574 C1008.764,182.298 1008.742,178.933 1008.738,175.608 C1008.7,147.457 1008.596,119.304 1008.834,91.155 C1008.873,86.524 1007.249,85.147 1003.013,84.762 C997.222,84.236 991.498,83.008 985.718,82.307 C983.031,81.981 982.003,80.863 982.087,78.15 C982.241,73.181 982.131,68.206 982.131,62.443 C991.068,62.443 999.586,62.443 1008.716,62.443 C1008.716,52.547 1009.003,43.422 1008.603,34.327 C1008.383,29.314 1009.742,27.627 1014.932,27.926 C1023.068,28.394 1031.259,28.28 1039.409,27.956 C1043.717,27.785 1045.268,28.933 1045.102,33.465 C1044.762,42.758 1045.001,52.071 1045.001,62.288 Z" id="Shape"></path>
            <path d="M721.764,62.437 C730.735,62.437 739.163,62.437 748.313,62.437 C748.313,50.822 748.313,39.772 748.313,28.396 C760.62,28.396 772.198,28.396 784.517,28.396 C784.517,39.505 784.517,50.548 784.517,62.289 C793.18,62.289 801.134,62.535 809.063,62.193 C813.6,61.998 815.318,63.29 814.988,68.005 C814.593,73.626 814.895,79.295 814.895,85.652 C804.753,85.652 795.033,85.652 784.966,85.652 C784.84,87.957 784.676,89.573 784.675,91.189 C784.66,118.688 784.667,146.188 784.669,173.687 C784.669,174.187 784.664,174.687 784.679,175.187 C785.177,192.481 791.26,193.461 802.442,192.932 C806.387,192.745 810.349,192.903 814.834,192.903 C814.834,200.293 814.901,207.081 814.742,213.863 C814.723,214.65 813.435,216.089 812.754,216.078 C799.152,215.869 785.325,218.065 772.083,213.413 C756.813,208.047 748.586,196.201 748.487,179.353 C748.319,150.521 748.429,121.688 748.424,92.855 C748.422,85.58 748.414,85.632 741.418,84.682 C736.139,83.965 730.897,82.959 725.608,82.339 C722.738,82.002 721.58,80.879 721.707,77.893 C721.917,72.943 721.764,67.978 721.764,62.437 Z" id="Shape"></path>
            <path d="M36.338,62.623 C36.338,113.232 36.338,163.147 36.338,213.457 C24.263,213.457 12.376,213.457 0.11,213.457 C0.11,163.313 0.11,113.137 0.11,62.623 C12.095,62.623 23.989,62.623 36.338,62.623 Z" id="Shape"></path>
            <path d="M666.167,62.309 C677.557,62.309 688.519,62.217 699.473,62.458 C700.514,62.48 701.776,64.449 702.437,65.765 C702.905,66.697 702.535,68.05 702.535,69.215 C702.535,115.158 702.535,161.102 702.535,207.045 C702.535,209.027 702.535,211.01 702.535,213.42 C690.344,213.42 678.461,213.42 666.168,213.42 C666.167,163.376 666.167,113.213 666.167,62.309 Z" id="Shape"></path>
            <path d="M0,41.365 C0,31.25 0,21.333 0,11.013 C12.044,11.013 23.919,11.013 36.166,11.013 C36.166,21.042 36.166,30.96 36.166,41.366 C24.368,41.365 12.488,41.365 0,41.365 Z" id="Shape"></path>
            <path d="M702.132,41.545 C689.881,41.545 678.133,41.545 666.074,41.545 C666.074,31.34 666.074,21.433 666.074,11.066 C678.002,11.066 689.863,11.066 702.132,11.066 C702.132,21.081 702.132,31.113 702.132,41.545 Z" id="Shape"></path>
        </g>
    </g>
</svg>