<?xml version="1.0" encoding="UTF-8"?>
<svg width="1075px" height="348px" viewBox="0 0 1075 348" version="1.1" xmlns="http://www.w3.org/2000/svg" xmlns:xlink="http://www.w3.org/1999/xlink">
    <!-- Generator: Sketch 48.2 (47327) - http://www.bohemiancoding.com/sketch -->
    <title>id-cola</title>
    <desc>Created with Sketch.</desc>
    <defs></defs>
    <g id="Page-1" stroke="none" stroke-width="1" fill="none" fill-rule="evenodd">
        <g id="id-cola" transform="translate(0.000000, -1.000000)" fill="#FAFAFA">
            <path d="M457.762,269.946 C461.365,262.025 464.635,254.835 467.905,247.644 C467.712,247.423 467.518,247.203 467.324,246.982 C464.428,248.934 461.554,250.921 458.632,252.835 C443.085,263.007 426.556,270.602 407.624,271.3 C395.442,271.75 384.027,269.491 377.581,257.69 C374.858,252.707 373.756,246.838 371.81,241.052 C369.187,244.058 366.413,247.445 363.42,250.627 C355.227,259.343 346.225,266.872 334.266,269.947 C317.581,274.236 308,268.143 304.72,251.066 C304.292,248.841 304.025,246.586 303.543,243.427 C300.116,247.376 297.395,250.845 294.335,253.984 C280.72,267.947 264.544,274.343 245,270.008 C234.598,267.7 228.656,260.836 226.585,250.608 C223.782,236.769 226.621,223.423 230.754,210.297 C241.669,175.633 259.644,145.162 286.36,120.404 C293.671,113.629 302.631,108.269 311.595,103.782 C316.785,101.183 323.469,101.138 329.529,100.811 C337.07,100.403 342.647,104.446 346.571,110.988 C346.929,110.781 347.288,110.574 347.646,110.367 C346.932,106.773 346.208,103.181 345.507,99.585 C340.29,72.805 341.808,46.737 355.229,22.447 C364.333,5.973 378.492,-0.773 395.412,1.392 C413.625,3.723 420.353,15.524 419.456,32.601 C418.493,50.918 410.48,66.901 402.31,82.771 C385.918,114.611 369.727,146.567 357.388,180.238 C352.594,193.32 349.195,206.937 345.69,220.449 C344.92,223.415 346.405,226.966 346.852,230.247 C350.199,229.128 354.256,228.855 356.77,226.744 C368.604,216.802 376.658,203.925 382.609,189.859 C393.314,164.556 407.493,141.634 427.369,122.507 C438.13,112.153 449.687,103.009 464.819,99.632 C489.422,94.142 502.959,107.517 497.572,132.145 C493.39,151.263 482.214,166.333 469.191,180.125 C454.929,195.229 438.906,208.168 420.058,217.34 C418.586,218.056 417.198,220.048 416.801,221.695 C412.941,237.721 420.683,245.291 436.659,240.877 C450.915,236.939 461.721,227.547 472.231,217.64 C489.139,201.702 499.183,181.547 508.478,160.774 C516.977,141.778 526.071,123.048 534.722,104.119 C536.03,101.258 537.575,100.174 540.701,100.223 C551.509,100.392 562.319,100.288 573.955,100.288 C572.898,103.252 572.057,105.612 571.382,107.505 C579.407,104.836 587.321,101.404 595.591,99.71 C601.971,98.402 608.94,98.364 615.396,99.37 C628.03,101.338 634.31,110.097 633.157,122.881 C631.91,136.708 626.541,149.319 620.805,161.73 C612.143,180.472 603.16,199.065 594.525,217.819 C593.455,220.144 593.671,223.061 593.291,225.704 C596.121,225.287 599.377,225.63 601.708,224.323 C612.695,218.168 620.622,208.654 628.026,198.75 C639.441,183.48 647.606,166.398 655.312,149.067 C658.762,141.309 662.474,133.667 666.034,125.957 C666.568,124.802 666.919,123.562 667.555,121.81 C662.067,121.81 657.12,121.81 651.037,121.81 C654.234,114.776 656.956,108.427 660.081,102.285 C660.57,101.325 663.036,100.661 664.354,100.945 C674.729,103.183 679.621,98.144 682.653,88.82 C685.007,81.583 688.71,74.762 692.108,67.903 C692.837,66.431 694.817,64.632 696.251,64.605 C708.91,64.374 721.576,64.503 734.24,64.556 C734.696,64.558 735.151,64.861 736.194,65.233 C731.124,76.83 726.092,88.336 720.682,100.709 C726.973,100.709 732.485,100.709 739.04,100.709 C735.915,107.864 733.317,114.119 730.378,120.21 C729.942,121.113 727.766,121.864 726.612,121.626 C714.422,119.107 709.141,125.165 704.661,135.953 C693.749,162.231 681.377,187.903 669.592,213.819 C669.523,213.971 669.41,214.12 669.396,214.277 C669.05,217.916 668.715,221.555 668.378,225.194 C672.07,224.836 676.13,225.344 679.388,223.962 C690.787,219.122 698.588,209.935 706.024,200.415 C717.052,186.296 722.88,169.487 730.378,153.553 C737.891,137.583 745.136,121.486 752.344,105.375 C753.677,102.395 755.298,101.136 758.71,101.193 C771.328,101.405 783.953,101.278 797.694,101.278 C795.61,105.977 793.927,109.843 792.186,113.683 C777.267,146.59 762.321,179.485 747.438,212.408 C745.932,215.739 744.69,219.2 743.508,222.663 C742.277,226.267 744.034,228.324 747.403,227.031 C752.418,225.104 757.693,222.973 761.742,219.593 C771.21,211.688 777.695,201.21 783.002,190.245 C793.519,168.515 803.496,146.523 813.673,124.629 C814.002,123.921 814.07,123.093 814.383,121.826 C809.08,121.826 804.139,121.826 798.032,121.826 C801.231,114.783 803.948,108.442 807.069,102.306 C807.559,101.341 810.014,100.664 811.329,100.945 C821.673,103.153 826.622,98.208 829.645,88.842 C831.984,81.602 835.753,74.812 839.062,67.905 C839.699,66.575 841.133,64.679 842.228,64.662 C855.677,64.438 869.131,64.516 883.504,64.516 C878.129,76.809 873.099,88.316 867.692,100.682 C873.963,100.682 879.475,100.682 886.046,100.682 C882.923,107.841 880.327,114.096 877.393,120.187 C876.955,121.093 874.787,121.859 873.638,121.623 C861.472,119.126 856.154,125.11 851.668,135.927 C840.768,162.21 828.27,187.827 816.747,213.86 C815.275,217.184 815.775,221.381 815.362,225.173 C819.364,224.708 823.797,225.189 827.287,223.599 C837.685,218.864 845.693,210.847 851.931,201.511 C857.158,193.689 861.327,185.119 865.544,176.671 C877.517,152.688 892.846,131.341 913.69,114.229 C924.479,105.371 936.362,98.967 950.701,98.528 C967.667,98.009 976.327,107.257 975.48,124.189 C974.648,140.835 966.922,154.502 957.162,167.147 C940.974,188.118 921.295,205.064 897.528,217.111 C895.809,217.983 894.516,220.269 893.704,222.185 C892.957,223.948 892.972,226.095 892.915,228.081 C892.632,237.995 897.326,242.514 907.266,241.985 C916.263,241.506 924.048,237.603 931.123,232.569 C949.702,219.349 965.09,203.191 975.083,182.399 C984.02,163.807 992.886,145.182 1001.764,126.562 C1002.387,125.254 1002.846,123.869 1003.621,121.916 C998.155,121.916 993.242,121.916 987.017,121.916 C990.305,114.683 993.044,108.218 996.275,102.007 C996.784,101.028 999.622,100.63 1001.195,100.935 C1010.548,102.749 1015.373,98.692 1018.231,89.903 C1020.687,82.348 1024.56,75.242 1028.023,68.041 C1028.709,66.615 1030.355,64.665 1031.589,64.643 C1044.884,64.398 1058.186,64.49 1072.517,64.49 C1067.109,76.867 1062.039,88.471 1056.654,100.799 C1063.042,100.799 1068.477,100.799 1075.002,100.799 C1071.973,107.753 1069.387,113.992 1066.467,120.071 C1066.021,121.001 1063.889,121.858 1062.78,121.619 C1050.252,118.913 1045.052,125.342 1040.523,136.259 C1029.618,162.54 1017.131,188.162 1005.595,214.189 C1004.179,217.382 1004.669,221.42 1004.277,225.068 C1008.108,224.714 1012.313,225.252 1015.701,223.835 C1025.465,219.753 1032.743,212.272 1039.096,204.043 C1043.563,198.257 1047.892,192.254 1051.367,185.851 C1053.78,181.406 1056.415,179.252 1061.445,180.045 C1063.379,180.35 1065.401,180.095 1068.521,180.095 C1066.773,185.721 1065.486,190.783 1063.645,195.635 C1052.625,224.677 1034.72,247.918 1006.724,262.538 C995.277,268.517 982.987,271.214 970.167,271.46 C958.805,271.678 952.002,265.454 951.051,254.103 C950.725,250.215 950.999,246.277 950.999,241.375 C948.145,243.609 946.002,245.35 943.795,247.003 C926.179,260.196 907.23,270.298 884.664,271.283 C872.71,271.805 861.377,269.679 854.896,258.131 C852.365,253.619 851.529,248.149 849.99,243.094 C849.627,241.9 849.545,240.619 849.267,238.992 C843.885,243.673 839.079,248.225 833.892,252.291 C818.782,264.136 801.704,270.788 782.361,271.478 C769.717,271.928 763.735,266.445 761.486,250.99 C759.822,252.284 758.461,253.291 757.153,254.364 C745.057,264.301 731.817,271.49 715.719,272.227 C699.868,272.953 693.246,267.323 691.901,251.656 C691.848,251.045 691.688,250.443 691.478,249.287 C687.049,252.309 683.026,255.146 678.913,257.847 C665.474,266.665 650.642,271.039 634.624,271.483 C623.05,271.804 616.093,265.598 614.999,254.065 C614.827,252.26 614.733,250.448 614.526,247.565 C612.613,249.072 611.272,250.079 609.985,251.15 C597.089,261.887 583.124,270.089 565.804,271.357 C549.421,272.557 538.733,262.085 542.794,246.062 C546.32,232.156 552.114,218.712 557.951,205.527 C568.328,182.087 579.502,159 590.319,135.755 C590.949,134.401 591.772,132.97 591.822,131.551 C591.917,128.867 592.494,125.172 591.048,123.747 C589.554,122.275 585.358,121.938 583.284,122.978 C578.021,125.62 572.62,128.633 568.463,132.709 C556.794,144.15 548.604,158.217 541.575,172.782 C527.176,202.622 513.168,232.654 499.432,262.804 C496.903,268.355 494.109,270.474 487.984,270.106 C478.229,269.516 468.412,269.946 457.762,269.946 Z M270.713,228.199 C271.301,229.312 272.031,232.874 273.901,233.637 C275.899,234.45 279.71,233.407 281.431,231.79 C285.632,227.845 289.978,223.586 292.682,218.596 C305.03,195.802 317.02,172.809 328.694,149.662 C331.492,144.114 333.1,137.808 334.304,131.665 C335.349,126.341 331.975,123.869 327.129,126.328 C323.377,128.232 319.806,131.029 317.01,134.187 C301.044,152.218 290.52,173.586 280.525,195.209 C275.92,205.175 271.757,215.358 270.713,228.199 Z M422.346,196.127 C422.859,196.477 423.371,196.827 423.883,197.177 C424.501,196.966 425.197,196.874 425.727,196.528 C448.253,181.785 466.665,163.02 480.048,139.635 C482.506,135.34 483.552,129.925 484.057,124.907 C484.621,119.29 481.392,117.11 476.154,119.299 C472.712,120.737 469.042,122.797 466.754,125.616 C458.91,135.281 450.857,144.926 444.336,155.475 C436.248,168.559 429.609,182.537 422.346,196.127 Z M899.601,196.332 C899.965,196.605 900.33,196.879 900.694,197.152 C901.548,196.826 902.494,196.641 903.241,196.153 C925.494,181.596 943.605,162.97 956.874,139.95 C959.562,135.288 960.41,129.277 960.978,123.771 C961.427,119.413 958.608,117.432 954.486,119.014 C950.566,120.518 946.666,122.83 943.61,125.697 C932.182,136.42 924.046,149.667 916.561,163.251 C910.583,174.099 905.23,185.292 899.601,196.332 Z M355.888,90.443 C356.994,89.785 357.384,89.693 357.508,89.46 C366.518,72.609 375.606,55.801 384.436,38.857 C387.191,33.571 389.67,28.056 391.504,22.397 C393.587,15.968 390.423,13.067 383.928,14.987 C377.246,16.962 373.103,21.953 369.929,27.758 C359.355,47.1 356.297,68.135 355.888,90.443 Z" id="Shape"></path>
            <path d="M238.467,43.328 C207.476,72.496 192.238,110.391 175.614,147.404 C170.989,157.702 167.223,168.386 163.064,178.894 C163.454,179.406 163.845,179.917 164.235,180.429 C168.432,178.211 173.032,176.521 176.753,173.679 C188.879,164.413 195.931,152.085 196.69,136.68 C196.898,132.461 198.299,130.752 202.43,129.801 C216.993,126.45 227.559,117.355 235.894,105.339 C236.888,103.905 237.886,102.475 238.883,101.043 C239.518,101.209 240.153,101.374 240.787,101.54 C239.559,111.471 238.907,121.515 236.983,131.309 C232.934,151.923 223.885,170.003 207.878,184.145 C193.548,196.805 176.691,203.83 157.84,205.841 C152.676,206.392 150.34,208.16 148.386,213.088 C137.713,239.995 127.297,267.056 115.224,293.342 C106.28,312.817 92.51,329.04 73.393,339.812 C58.314,348.308 42.229,350.386 25.613,345.447 C12.395,341.517 5.221,331.753 1.986,318.732 C-3.14,298.105 2.274,279.129 11.223,260.784 C18.068,246.753 26.717,233.889 38.469,223.507 C43.363,219.183 49.27,216.005 55.67,211.657 C55.67,214.297 55.847,215.381 55.643,216.388 C52.339,232.688 52.651,248.836 57.716,264.758 C58.518,267.28 57.776,268.496 55.683,270.048 C41.205,280.788 34.064,295.955 31.214,313.192 C29.68,322.465 35.926,326.424 44.618,322.371 C51.139,319.329 55.328,313.904 58.274,307.629 C62.941,297.688 67.585,287.707 71.601,277.493 C80.984,253.635 89.989,229.629 99.138,205.679 C99.422,204.936 99.598,204.151 99.94,202.998 C97.982,202.129 96.21,201.288 94.397,200.546 C68.972,190.131 56.05,170.817 53.977,143.781 C52.039,118.496 57.325,95.095 72.419,74.365 C86.667,54.797 105.706,41.494 128.008,32.651 C150.739,23.637 174.425,19.64 198.825,19.693 C200.23,19.696 202.091,19.907 202.967,20.788 C213.021,30.908 225.38,37.383 238.467,43.328 Z M186.191,54.921 C155.535,58.807 129.396,68.908 109.223,91.357 C94.305,107.958 88.231,127.435 91.89,149.588 C93.849,161.451 99.381,171.085 111.098,177.111 C128.082,131.713 149.18,89.184 186.191,54.921 Z" id="Shape"></path>
            <path d="M132.326,294.306 C149.067,306.927 167.883,308.727 187.672,306.415 C189.057,306.253 191.233,307.34 192.026,308.524 C198.168,317.709 207.114,322.286 217.481,324.777 C231.695,328.191 245.665,326.824 259.305,322.19 C285.304,313.358 311.335,304.593 337.118,295.16 C383.139,278.323 429.359,277.387 475.565,293.392 C501.724,302.454 522.002,319.569 537.639,344.148 C534.896,343.493 533.249,343.174 531.647,342.707 C504.457,334.767 476.81,331.463 448.695,335.921 C439.905,337.315 431.407,340.648 422.844,343.312 C420.441,344.059 418.709,344.693 416.845,342.151 C399.479,318.468 374.8,312.289 347.387,314.692 C326.878,316.491 307.547,323.833 288.201,330.55 C264.254,338.865 240.202,346.838 214.638,348.217 C191.319,349.475 169.368,345.593 151.664,328.672 C141.824,319.267 135.699,307.621 132.326,294.306 Z" id="Shape"></path>
            <path d="M816.133,63.593 C816.403,85.084 789.764,99.107 771.852,91.735 C763.983,88.497 760.754,78.15 764.022,67.898 C769.073,52.051 788.564,41.52 804.495,46.031 C812.273,48.233 816.274,54.27 816.133,63.593 Z" id="Shape"></path>
        </g>
    </g>
</svg>