<?xml version="1.0" encoding="UTF-8"?>
<svg width="984px" height="297px" viewBox="0 0 984 297" version="1.1" xmlns="http://www.w3.org/2000/svg" xmlns:xlink="http://www.w3.org/1999/xlink">
    <!-- Generator: Sketch 48.2 (47327) - http://www.bohemiancoding.com/sketch -->
    <title>id-disney</title>
    <desc>Created with Sketch.</desc>
    <defs></defs>
    <g id="Page-1" stroke="none" stroke-width="1" fill="none" fill-rule="evenodd">
        <g id="id-disney" fill="#FFFFFF" fill-rule="nonzero">
            <path d="M68.106,235.463 C75.011,234.894 81.785,234.529 88.503,233.707 C92.345,233.237 94.588,234.592 94.541,238.285 C94.453,245.084 94.057,251.896 93.32,258.653 C93.181,259.925 90.906,261.893 89.543,261.958 C78.284,262.489 67.004,262.583 55.735,262.938 C46.436,263.232 37.093,264.44 27.865,263.825 C21.938,263.429 15.824,261.182 10.429,258.494 C0.66,253.626 -1.274,237.182 6.562,229.606 C13.854,234.681 21.755,238.177 30.76,239.002 C33.689,239.271 35.061,238.589 35.323,235.497 C36.545,221.064 38.81,206.657 39.035,192.215 C39.786,143.903 40.16,95.576 36.301,47.34 C35.742,40.357 35.868,40.347 28.855,40.447 C15.389,40.642 4.823,34.85 1.397,24.656 C0.118,20.848 -0.154,16.495 0.071,12.444 C0.346,7.525 3.603,4.505 8.28,2.799 C24.297,-3.046 38.76,0.686 52.115,10.082 C54.797,11.969 57.039,12.645 59.853,11.524 C66.029,9.063 72.07,6.237 78.33,4.022 C82.985,2.375 87.839,0.797 92.707,0.376 C98.422,-0.117 99.97,2.654 97.415,7.676 C91.316,19.655 82.41,28.885 69.821,33.95 C66.395,35.329 65.747,37.021 66.175,40.279 C70.395,72.396 71.768,104.665 70.699,137.021 C70.231,151.166 68.809,165.28 68.365,179.424 C67.8,197.401 67.783,215.394 67.561,233.38 C67.553,233.996 67.875,234.615 68.106,235.463 Z" id="Shape"></path>
            <path d="M103.876,159.208 C94.654,152.976 97.39,142.646 103.309,139.357 C107.862,136.829 113.011,134.26 118.052,133.899 C155.153,131.238 186.747,142.786 210.381,172.335 C222.695,187.731 228.454,205.248 220.431,224.532 C214.296,239.277 201.976,248.233 187.834,254.703 C177.439,259.459 166.501,262.096 155.019,262.573 C153.179,262.649 151.327,264.117 149.611,265.159 C146.287,267.178 143.278,270.559 139.741,271.208 C132.217,272.588 127.036,267.852 126.444,259.908 C126.207,256.727 124.82,255.032 122.538,253.013 C116.723,247.869 110.919,242.577 105.97,236.629 C101.201,230.898 100.081,219.38 106.689,211.385 C109.183,213.522 111.565,215.814 114.207,217.753 C116.722,219.599 119.508,221.075 123.331,223.424 C123.331,220.641 123.196,218.928 123.353,217.243 C124.334,206.67 124.82,196.008 126.602,185.569 C127.8,178.551 131.61,172.446 139.221,170.105 C144.453,168.496 146.114,169.237 146.3,174.588 C146.87,190.889 147.089,207.203 147.284,223.515 C147.426,235.387 147.432,235.863 159.612,235.364 C168.026,235.02 176.649,234.421 184.716,232.232 C196.047,229.158 200.267,220.288 197.463,208.86 C190.322,179.76 161.253,153.787 131.485,149.906 C130.494,149.777 129.504,149.642 128.516,149.493 C118.513,147.979 108.177,145.523 103.876,159.208 Z" id="Shape"></path>
            <path d="M370.645,186.438 C370.17,189.283 369.321,192.123 369.287,194.973 C369.126,208.297 369.517,221.636 369.025,234.945 C368.801,241.005 367.356,247.105 365.764,252.999 C364.723,256.853 362.37,260.394 357.691,260.891 C352.879,261.403 349.276,258.751 347.731,254.785 C345.351,248.677 342.567,242.151 342.55,235.797 C342.482,209.841 346.38,184.407 355.795,160.038 C356.807,157.421 358.178,154.895 359.693,152.526 C363.995,145.8 368.396,145.124 373.687,150.96 C378.138,155.87 382.15,161.252 385.826,166.777 C395.318,181.046 404.463,195.546 413.875,209.868 C415.926,212.987 418.517,215.753 420.858,218.68 C421.323,218.574 421.788,218.467 422.252,218.361 C422.555,216.585 423.054,214.817 423.129,213.032 C423.909,194.502 420.495,176.609 415.015,158.998 C412.151,149.792 409.286,140.55 407.244,131.144 C406.491,127.676 406.787,122.084 408.944,120.321 C412.275,117.596 415.883,121.73 418.615,124.227 C429.219,133.918 435.456,146.38 440.332,159.61 C447.528,179.133 450.865,199.136 447.178,219.891 C445.465,229.536 442.074,238.511 435.47,245.964 C426.925,255.607 416.681,256.459 408.583,246.594 C401.057,237.426 395,226.971 388.938,216.703 C384.298,208.845 380.712,200.368 376.541,192.226 C375.449,190.093 373.924,188.183 372.598,186.17 C371.947,186.259 371.295,186.348 370.645,186.438 Z" id="Shape"></path>
            <path d="M263.378,234.199 C271.818,232.831 279.474,231.372 287.192,230.399 C295.114,229.401 303.083,228.66 311.055,228.225 C316.681,227.918 320.639,231.066 322.28,236.261 C323.826,241.155 321.164,243.94 317.522,246.644 C304.292,256.467 290.335,264.816 273.836,267.629 C268.823,268.484 263.454,268.682 258.449,267.897 C242.866,265.453 232.481,248.549 236.511,232.295 C238.267,225.215 241.214,218.437 243.212,211.405 C243.875,209.071 243.91,206.153 243.124,203.886 C240.228,195.534 241.906,191.613 250.069,188.744 C251.385,188.281 253.016,187.416 253.562,186.284 C256.09,181.042 258.444,175.698 260.436,170.236 C260.748,169.381 259.158,167.28 257.961,166.522 C253.628,163.777 248.734,161.799 244.778,158.626 C242.864,157.092 241.571,153.41 241.902,150.957 C242.107,149.443 245.781,147.655 248.102,147.291 C264.041,144.787 279.984,142.117 296.028,140.555 C305.195,139.662 314.586,140.364 323.817,141.102 C328.997,141.517 338.83,153.161 338.871,158.324 C338.885,159.985 337.227,162.651 335.751,163.159 C329.996,165.138 324.077,167.298 318.088,167.789 C308.818,168.549 299.437,168.15 290.11,167.927 C286.328,167.835 284.107,169.262 282.975,172.706 C282.56,173.968 282.111,175.228 281.836,176.522 C279.384,188.107 282.582,187.811 290.31,187.543 C296.968,187.312 303.642,187.416 310.305,187.543 C316.247,187.656 317.541,188.982 318.074,194.927 C318.178,196.087 318.193,197.258 318.19,198.423 C318.17,206.818 316.78,208.304 308.36,208.392 C297.862,208.501 287.36,208.624 276.866,208.414 C272.93,208.335 271.305,209.936 270.259,213.522 C268.311,220.199 265.894,226.736 263.378,234.199 Z" id="Shape"></path>
            <path d="M788.187,234.156 C796.41,232.831 804.208,231.344 812.072,230.371 C820.16,229.371 828.299,228.654 836.437,228.233 C841.563,227.967 845.55,231.386 847.045,236.406 C848.429,241.047 846.054,243.819 842.529,246.442 C829.316,256.278 815.397,264.705 798.904,267.55 C793.733,268.443 788.184,268.695 783.031,267.863 C767.479,265.356 757.253,248.43 761.305,232.139 C762.986,225.384 765.907,218.943 767.709,212.209 C768.462,209.398 768.469,205.982 767.605,203.221 C765.179,195.469 766.973,191.418 774.535,188.777 C776.092,188.233 777.893,187.004 778.58,185.6 C781.271,180.093 783.562,174.39 786.217,168.263 C782.872,166.641 779.777,165.153 776.695,163.638 C775.799,163.199 774.898,162.746 774.074,162.191 C770.095,159.511 764.79,157.072 766.382,151.275 C767.827,146.013 773.383,147.543 777.486,146.91 C788.339,145.236 799.15,143.276 810.024,141.764 C822.544,140.024 835.1,137.928 847.751,140.802 C853.236,142.048 863.2,152.488 863.583,158.004 C863.697,159.654 862.191,162.485 860.789,162.985 C855.058,165.029 849.154,167.272 843.173,167.78 C833.908,168.567 824.518,168.252 815.2,167.892 C810.563,167.713 808.486,169.916 807.249,173.749 C806.842,175.013 806.582,176.329 806.318,177.635 C804.671,185.779 806.04,187.478 814.221,187.492 C821.387,187.506 828.553,187.6 835.717,187.51 C840.293,187.452 842.434,189.763 842.761,194.094 C842.886,195.753 842.959,197.423 842.933,199.086 C842.814,206.689 841.355,208.277 833.94,208.363 C823.11,208.489 812.275,208.323 801.451,208.619 C799.53,208.672 796.528,209.923 795.949,211.383 C793.081,218.609 790.86,226.09 788.187,234.156 Z" id="Shape"></path>
            <path d="M898.467,246.1 C898.244,222.581 902.478,199.736 909.138,177.301 C910.216,173.669 909.534,172.369 906.103,170.575 C898.046,166.362 889.891,161.988 882.785,156.397 C873.977,149.467 870.61,139.948 874.531,128.746 C874.914,127.652 875.178,126.339 875.951,125.599 C877.411,124.199 879.199,123.142 880.85,121.942 C881.697,123.613 883.273,125.296 883.246,126.952 C883.18,131.037 885.294,133.259 888.308,135.436 C898.185,142.571 909.494,145.726 921.284,147.335 C923.064,147.578 925.418,145.873 927.054,144.523 C932.793,139.784 937.97,134.281 944.047,130.054 C951.309,125.002 959.705,124.946 968.04,127.519 C969.914,128.097 971.758,129.034 973.371,130.158 C987.76,140.185 986.237,166.647 970.226,173.598 C962.038,177.153 952.659,178.202 943.697,179.619 C940.209,180.171 938.051,180.873 937.546,184.448 C935.992,195.441 933.468,206.409 933.14,217.441 C932.454,240.566 932.932,263.725 932.928,286.871 C932.927,294.166 928.832,297.689 921.398,295.994 C912.543,293.974 906.468,288.067 902.773,280.013 C898.202,270.048 898.77,259.23 898.471,248.599 C898.447,247.766 898.467,246.933 898.467,246.1 Z M952.559,152.306 C957.182,150.242 961.971,148.464 966.328,145.94 C967.669,145.163 968.738,142.07 968.276,140.536 C967.79,138.92 965.488,137.162 963.689,136.76 C958.68,135.642 950.386,140.093 947.955,144.635 C945.383,149.436 946.558,151.317 952.559,152.306 Z" id="Shape"></path>
            <path d="M486.705,246.498 C487.482,223.035 491.456,200.311 498.204,178.063 C499.477,173.863 498.705,172.36 494.725,170.272 C486.395,165.903 478.056,161.152 470.806,155.23 C462.715,148.623 460.103,139.399 463.654,129.058 C464.083,127.808 464.379,126.315 465.251,125.459 C466.689,124.05 468.546,123.069 470.227,121.908 C471.019,123.634 472.507,125.378 472.463,127.082 C472.361,130.983 474.354,133.11 477.202,135.201 C487.173,142.52 498.643,145.731 510.611,147.351 C512.374,147.589 514.695,145.807 516.338,144.45 C522.077,139.709 527.265,134.213 533.353,130.001 C540.631,124.966 549.062,124.879 557.366,127.535 C566.2,130.361 570.131,137.391 571.515,145.878 C574.604,164.806 566.475,174.9 545.658,178.325 C541.23,179.054 536.731,179.678 532.26,179.716 C528.891,179.744 527.272,181.122 526.829,184.141 C525.221,195.129 522.687,206.1 522.356,217.134 C521.662,240.265 522.145,263.433 522.142,286.585 C522.141,294.235 518.002,297.903 510.402,295.925 C500.329,293.303 493.181,286.503 490.796,276.534 C488.454,266.757 487.991,256.528 486.705,246.498 Z M541.5,152.439 C546.346,150.207 551.327,148.212 555.944,145.58 C557.128,144.905 558.036,141.863 557.503,140.54 C556.838,138.89 554.715,137.147 552.933,136.756 C547.741,135.617 539.45,140.172 537.024,144.938 C534.662,149.578 535.683,151.22 541.5,152.439 Z" id="Shape"></path>
            <path d="M666.583,246.421 C667.293,222.422 671.744,199.276 678.459,176.517 C679.392,173.356 678.597,172.369 675.897,170.874 C667.645,166.31 659.096,161.982 651.721,156.211 C643.065,149.436 639.781,139.99 643.593,128.979 C644.079,127.575 644.478,125.936 645.465,124.96 C646.772,123.67 648.618,122.927 650.233,121.949 C650.99,123.529 652.456,125.15 652.368,126.681 C652.117,131.013 654.447,133.3 657.608,135.566 C667.511,142.663 678.843,145.762 690.628,147.377 C692.373,147.615 694.671,145.736 696.325,144.369 C702.062,139.625 707.259,134.135 713.357,129.943 C720.649,124.932 729.065,124.959 737.374,127.584 C739.395,128.222 741.382,129.3 743.077,130.582 C756.885,141.021 754.874,167.029 739.096,173.711 C730.867,177.196 721.501,178.213 712.535,179.637 C709.211,180.164 707.198,180.934 706.719,184.24 C705.125,195.23 702.59,206.2 702.259,217.232 C701.567,240.361 702.049,263.524 702.046,286.673 C702.045,294.101 698.068,297.752 690.713,296.011 C680.537,293.602 673.3,286.844 670.831,276.926 C668.365,267.019 667.916,256.61 666.583,246.421 Z M721.495,152.377 C726.219,150.253 731.103,148.407 735.564,145.83 C736.864,145.08 737.847,141.947 737.355,140.434 C736.835,138.833 734.537,137.132 732.744,136.753 C727.732,135.693 719.567,140.069 717.107,144.565 C714.482,149.36 715.582,151.256 721.495,152.377 Z" id="Shape"></path>
            <path d="M627.45,23.967 C640.271,24.029 649.196,24.822 655.694,30.611 C660.641,35.019 665.954,37.446 671.799,39.957 C683.318,44.905 687.437,55.71 681.708,67.899 C678.104,75.566 672.745,82.718 666.958,88.978 C657.136,99.602 644.806,106.936 631.495,112.676 C619.462,117.865 607.192,118.105 594.825,114.833 C591.208,113.877 589.162,114.519 587.393,117.466 C586.968,118.176 586.422,118.822 585.875,119.448 C581.697,124.236 577.78,124.267 574.89,118.67 C572.833,114.689 571.454,109.941 571.354,105.499 C571.274,101.957 570.853,99.131 568.772,96.324 C560.827,85.609 560.565,74.225 567.38,63.137 C582.061,39.256 603.71,26.387 627.45,23.967 Z M610.28,95.216 C629.134,93.691 645.203,89.125 658.483,77.287 C663.576,72.748 666.355,67.059 665.997,60.07 C665.723,54.736 663.928,52.302 658.725,52.741 C652.698,53.248 646.365,54.068 640.892,56.435 C626.809,62.528 616.48,73.526 606.903,85.149 C604.928,87.545 603.782,90.624 602.255,93.387 C605.392,94.103 608.531,94.817 610.28,95.216 Z M610.793,50.785 C610.483,50.277 610.175,49.769 609.865,49.262 C600.686,50.562 593.139,55.02 587.289,62.377 C583.322,67.365 580.315,72.831 580.495,78.975 C590.751,69.433 600.772,60.109 610.793,50.785 Z" id="Shape"></path>
            <path d="M616.599,202.293 C616.599,216.767 616.606,231.241 616.59,245.716 C616.588,247.543 616.633,249.396 616.365,251.194 C615.426,257.524 612.585,260.582 607.527,260.927 C600.589,261.402 595.435,258.65 593.993,252.852 C592.602,247.265 591.433,241.498 591.203,235.767 C589.965,205.081 592.792,174.628 597.358,144.324 C597.692,142.111 599.219,138.964 600.967,138.303 C604.976,136.788 612.087,139.739 613.459,143.404 C615.06,147.68 616.306,152.348 616.412,156.877 C616.768,172.009 616.547,187.153 616.547,202.294 C616.566,202.293 616.583,202.293 616.599,202.293 Z" id="Shape"></path>
        </g>
    </g>
</svg>