<?xml version="1.0" encoding="UTF-8"?>
<svg width="1260px" height="115px" viewBox="0 0 1260 115" version="1.1" xmlns="http://www.w3.org/2000/svg" xmlns:xlink="http://www.w3.org/1999/xlink">
    <!-- Generator: Sketch 48.2 (47327) - http://www.bohemiancoding.com/sketch -->
    <title>id-ikea</title>
    <desc>Created with Sketch.</desc>
    <defs></defs>
    <g id="Page-1" stroke="none" stroke-width="1" fill="none" fill-rule="evenodd">
        <g id="id-ikea" fill="#FED448">
            <path d="M493.292,52.102 C493.292,34.204 493.292,17.516 493.292,0.484 C509.142,0.484 524.345,0.484 539.921,0.484 C539.921,38.157 539.921,75.711 539.921,113.732 C538.536,113.838 537.102,114.043 535.666,114.044 C521.175,114.068 506.682,114.186 492.195,113.934 C489.843,113.893 486.966,112.76 485.271,111.146 C469.715,96.33 454.333,81.331 439.01,66.272 C437.394,64.683 436.489,62.372 435.253,60.395 C434.538,60.913 433.822,61.43 433.107,61.948 C433.107,79.126 433.107,96.304 433.107,113.765 C418.6,113.765 404.682,113.765 390.322,113.765 C390.322,76.067 390.322,38.401 390.322,0.369 C392.073,0.284 393.692,0.139 395.311,0.137 C410.967,0.119 426.625,0.232 442.281,0.042 C445.639,0.002 447.773,1.166 449.905,3.595 C462.872,18.362 475.969,33.013 489.036,47.692 C490.104,48.889 491.263,50.004 493.292,52.102 Z" id="Shape"></path>
            <path d="M83.942,113.814 C83.942,75.886 83.942,38.322 83.942,0.627 C84.77,0.437 85.397,0.162 86.021,0.168 C115.33,0.431 144.646,0.417 173.945,1.135 C187.791,1.474 201.442,4.02 214.271,9.692 C231.164,17.161 238.018,27.463 237.175,43.901 C236.655,54.036 236.84,64.226 237.14,74.379 C237.479,85.805 232.189,93.724 222.76,99.381 C211.688,106.023 199.399,109.313 186.817,110.714 C171.122,112.462 155.306,113.435 139.516,113.936 C122.708,114.469 105.87,114.065 89.046,114.05 C87.428,114.049 85.81,113.904 83.942,113.814 Z M141.23,29.827 C141.23,48.088 141.23,65.139 141.23,82.119 C149.957,82.119 158.383,82.302 166.795,82.023 C169.877,81.921 173.001,80.963 175.967,79.981 C180.159,78.592 182.354,75.774 182.207,70.987 C181.952,62.683 182.163,54.367 182.129,46.055 C182.093,37.329 178.56,32.366 169.905,31.304 C160.585,30.162 151.108,30.281 141.23,29.827 Z" id="Shape"></path>
            <path d="M1034.926,34.128 C1034.926,38.857 1034.926,42.803 1034.926,47.364 C1042.486,47.364 1049.888,47.364 1057.721,47.364 C1057.721,54.687 1057.721,61.415 1057.721,68.801 C1050.076,68.801 1042.349,68.801 1034.297,68.801 C1034.297,73.362 1034.297,77.281 1034.297,81.812 C1053.797,81.812 1073.353,81.812 1093.338,81.812 C1093.338,92.766 1093.338,103.122 1093.338,113.771 C1051.797,113.771 1010.395,113.771 968.608,113.771 C968.608,76.108 968.608,38.547 968.608,0.556 C1010.599,0.556 1052.614,0.556 1095.039,0.556 C1095.039,11.576 1095.039,22.597 1095.039,34.128 C1075.081,34.128 1055.333,34.128 1034.926,34.128 Z" id="Shape"></path>
            <path d="M376.741,34.277 C356.536,34.277 336.766,34.277 316.667,34.277 C316.667,38.795 316.667,42.857 316.667,47.564 C324.272,47.564 331.681,47.564 339.428,47.564 C339.428,54.928 339.428,61.652 339.428,68.901 C331.539,68.901 323.952,68.901 316.011,68.901 C316.011,73.46 316.011,77.498 316.011,82.089 C335.673,82.089 355.086,82.089 374.853,82.089 C374.853,92.868 374.853,103.102 374.853,113.698 C333.378,113.698 291.987,113.698 250.239,113.698 C250.239,75.999 250.239,38.428 250.239,0.491 C292.375,0.491 334.421,0.491 376.741,0.491 C376.741,11.597 376.741,22.519 376.741,34.277 Z" id="Shape"></path>
            <path d="M552.974,34.496 C552.974,22.794 552.974,11.726 552.974,0.392 C605.203,0.392 657.109,0.392 709.493,0.392 C709.493,11.433 709.493,22.479 709.493,34.338 C694.324,34.338 678.979,34.338 663.099,34.338 C663.099,61.197 663.099,87.258 663.099,113.687 C641.836,113.687 621.125,113.687 599.636,113.687 C599.636,87.47 599.636,61.292 599.636,34.496 C583.633,34.496 568.393,34.496 552.974,34.496 Z" id="Shape"></path>
            <path d="M954.645,0.414 C954.645,11.751 954.645,22.806 954.645,34.475 C939.175,34.475 923.931,34.475 908.147,34.475 C908.147,61.14 908.147,87.203 908.147,113.661 C886.892,113.661 866.183,113.661 844.698,113.661 C844.698,87.515 844.698,61.335 844.698,34.548 C828.69,34.548 813.439,34.548 797.944,34.548 C797.944,22.854 797.944,11.779 797.944,0.414 C850.266,0.414 902.292,0.414 954.645,0.414 Z" id="Shape"></path>
            <path d="M1216.061,113.809 C1194.534,113.809 1173.923,113.809 1152.828,113.809 C1152.724,111.657 1152.552,109.724 1152.55,107.79 C1152.531,85.127 1152.446,62.463 1152.621,39.801 C1152.653,35.696 1151.514,34.332 1147.309,34.425 C1135.483,34.685 1123.648,34.515 1111.817,34.515 C1110.01,34.515 1108.205,34.515 1106.024,34.515 C1106.024,22.966 1106.024,11.896 1106.024,0.474 C1157.146,0.474 1208.217,0.474 1259.645,0.474 C1259.645,11.556 1259.645,22.633 1259.645,34.443 C1245.365,34.443 1230.99,34.443 1216.061,34.443 C1216.061,61.234 1216.061,87.307 1216.061,113.809 Z" id="Shape"></path>
            <path d="M67.868,113.805 C45.266,113.805 23.164,113.805 0.757,113.805 C0.757,75.962 0.757,38.374 0.757,0.455 C23.159,0.455 45.368,0.455 67.868,0.455 C67.868,38.244 67.868,75.82 67.868,113.805 Z" id="Shape"></path>
            <path d="M719.969,113.833 C719.969,75.911 719.969,38.462 719.969,0.569 C742.288,0.569 764.507,0.569 787.114,0.569 C787.114,38.157 787.114,75.881 787.114,113.833 C764.792,113.833 742.686,113.833 719.969,113.833 Z" id="Shape"></path>
        </g>
    </g>
</svg>